<?xml version="1.0" encoding="UTF-8"?>
<svg xmlns="http://www.w3.org/2000/svg" xmlns:xlink="http://www.w3.org/1999/xlink" width="50px" height="50px" viewBox="0 0 50 50" version="1.1">
<g id="surface170412">
<path style=" stroke:none;fill-rule:nonzero;fill:rgb(32.156863%,52.156863%,100%);fill-opacity:1;" d="M 0 25 C 0 11.191406 11.191406 0 25 0 C 38.808594 0 50 11.191406 50 25 C 50 38.808594 38.808594 50 25 50 C 11.191406 50 0 38.808594 0 25 Z M 25 49 C 38.253906 49 49 38.253906 49 25 C 49 11.746094 38.253906 1 25 1 C 11.746094 1 1 11.746094 1 25 C 1 38.253906 11.746094 49 25 49 Z M 25 49 "/>
<path style=" stroke:none;fill-rule:nonzero;fill:rgb(20.392157%,59.607843%,85.882353%);fill-opacity:1;" d="M 28.894531 7.40625 C 28.808594 7.417969 28.726562 7.445312 28.644531 7.480469 C 27.957031 7.820312 27.175781 8.835938 27.023438 9.035156 C 27.015625 9.046875 27.007812 9.058594 27 9.070312 C 26.226562 10.226562 25.816406 11.582031 25.800781 12.992188 C 25.789062 14.046875 25.996094 15.09375 26.414062 16.101562 C 27.390625 18.445312 29.414062 20.382812 31.824219 21.289062 C 31.90625 21.316406 31.984375 21.34375 32.125 21.394531 C 32.136719 21.398438 32.257812 21.4375 32.273438 21.441406 L 32.363281 21.472656 C 32.488281 21.511719 32.617188 21.554688 32.742188 21.578125 C 33.375 21.707031 33.992188 21.777344 34.574219 21.796875 C 34.675781 21.796875 34.773438 21.800781 34.875 21.800781 C 39.257812 21.800781 40.960938 18.707031 41.523438 17.675781 C 41.582031 17.574219 41.621094 17.492188 41.660156 17.445312 C 41.660156 17.441406 41.660156 17.441406 41.664062 17.4375 C 41.910156 17.070312 41.816406 16.574219 41.449219 16.324219 C 41.085938 16.078125 40.589844 16.171875 40.339844 16.539062 L 40.335938 16.539062 C 39.167969 18.257812 37.167969 18.78125 34.398438 18.09375 C 34.191406 18.042969 33.964844 17.964844 33.765625 17.890625 C 33.503906 17.796875 33.242188 17.6875 32.996094 17.570312 C 32.511719 17.328125 32.054688 17.039062 31.644531 16.722656 C 29.207031 14.832031 28.253906 10.898438 29.679688 8.625 C 29.867188 8.320312 29.835938 7.929688 29.59375 7.664062 C 29.414062 7.460938 29.148438 7.371094 28.894531 7.40625 Z M 21.804688 9 C 21.625 8.996094 21.441406 9.054688 21.289062 9.179688 C 20.082031 10.164062 18.84375 11.777344 18.789062 11.84375 C 18.785156 11.855469 18.777344 11.867188 18.769531 11.878906 C 16.582031 15.0625 16.414062 19.59375 18.351562 23.421875 C 18.652344 24.027344 18.996094 24.605469 19.363281 25.136719 L 19.472656 25.292969 C 19.78125 25.746094 20.128906 26.257812 20.570312 26.660156 C 20.726562 26.835938 20.890625 27.003906 21.054688 27.164062 L 21.132812 27.246094 L 21.195312 27.3125 C 21.363281 27.472656 21.53125 27.632812 21.707031 27.789062 L 21.710938 27.789062 C 21.722656 27.808594 21.742188 27.820312 21.757812 27.835938 C 21.953125 28.011719 22.152344 28.179688 22.417969 28.386719 L 22.492188 28.441406 C 22.695312 28.605469 22.90625 28.761719 23.121094 28.914062 C 23.144531 28.929688 23.164062 28.945312 23.1875 28.960938 C 23.261719 29.011719 23.335938 29.058594 23.414062 29.113281 L 23.488281 29.164062 L 23.574219 29.21875 C 23.734375 29.324219 23.890625 29.421875 24.113281 29.550781 C 24.257812 29.636719 24.410156 29.726562 24.507812 29.773438 C 24.554688 29.800781 24.601562 29.824219 24.710938 29.882812 L 24.953125 30.011719 C 24.964844 30.019531 25.023438 30.042969 25.035156 30.050781 C 25.195312 30.132812 25.359375 30.210938 25.523438 30.285156 L 25.777344 30.398438 C 25.945312 30.46875 26.113281 30.539062 26.320312 30.617188 L 26.414062 30.648438 C 26.417969 30.65625 26.496094 30.683594 26.503906 30.6875 C 26.652344 30.742188 26.804688 30.792969 26.960938 30.84375 L 27.308594 30.960938 C 27.484375 31.019531 27.6875 31.085938 27.910156 31.125 C 29 31.304688 30.058594 31.398438 31.0625 31.398438 C 31.179688 31.398438 31.300781 31.398438 31.414062 31.398438 C 40.246094 31.203125 42.542969 23.699219 42.566406 23.625 C 42.675781 23.246094 42.496094 22.84375 42.140625 22.675781 C 41.785156 22.507812 41.359375 22.625 41.136719 22.949219 C 38.898438 26.21875 34.667969 27.601562 30.359375 26.460938 C 30.160156 26.414062 29.964844 26.355469 29.726562 26.277344 C 29.683594 26.265625 29.648438 26.253906 29.585938 26.226562 C 29.445312 26.183594 29.304688 26.136719 29.148438 26.078125 L 28.929688 25.992188 C 28.800781 25.945312 28.671875 25.894531 28.515625 25.824219 L 28.414062 25.777344 C 28.222656 25.695312 28.039062 25.605469 27.871094 25.523438 L 27.414062 25.289062 C 27.3125 25.238281 27.222656 25.179688 27.082031 25.097656 L 27.003906 25.054688 L 26.925781 25.007812 C 26.808594 24.9375 26.695312 24.867188 26.585938 24.789062 L 26.511719 24.742188 C 26.507812 24.742188 26.445312 24.695312 26.4375 24.691406 C 26.34375 24.632812 26.253906 24.570312 26.164062 24.515625 C 25.972656 24.378906 25.78125 24.234375 25.558594 24.058594 L 25.472656 23.988281 C 23.410156 22.339844 21.882812 20.140625 21.167969 17.78125 C 20.503906 15.617188 20.996094 12.78125 22.492188 10.199219 C 22.683594 9.867188 22.613281 9.441406 22.316406 9.191406 C 22.167969 9.066406 21.988281 9 21.804688 9 Z M 13.003906 11.398438 C 12.8125 11.398438 12.617188 11.46875 12.464844 11.605469 C 10.9375 12.976562 9.792969 14.757812 9.667969 14.960938 C 6.398438 19.71875 7.03125 27.117188 9.273438 31.636719 C 9.320312 31.730469 9.367188 31.820312 9.414062 31.914062 L 9.445312 31.960938 C 9.484375 32.054688 9.53125 32.148438 9.546875 32.164062 C 9.570312 32.226562 9.609375 32.289062 9.625 32.308594 C 9.664062 32.386719 9.699219 32.457031 9.769531 32.574219 L 10.023438 33.015625 C 10.0625 33.074219 10.101562 33.136719 10.113281 33.160156 C 10.164062 33.242188 10.214844 33.324219 10.269531 33.410156 L 10.394531 33.609375 C 10.429688 33.667969 10.46875 33.722656 10.492188 33.753906 C 10.617188 33.945312 10.742188 34.140625 10.882812 34.324219 C 10.886719 34.335938 10.894531 34.339844 10.898438 34.347656 L 10.949219 34.414062 C 11.0625 34.578125 11.179688 34.734375 11.28125 34.863281 L 11.738281 35.441406 C 11.742188 35.445312 11.792969 35.507812 11.796875 35.511719 L 11.863281 35.585938 C 12 35.757812 12.148438 35.925781 12.292969 36.085938 C 12.316406 36.113281 12.335938 36.132812 12.359375 36.160156 C 12.5 36.3125 12.644531 36.464844 12.792969 36.625 L 12.9375 36.761719 C 13.054688 36.886719 13.175781 37.007812 13.300781 37.125 C 13.300781 37.128906 13.359375 37.183594 13.359375 37.183594 L 13.484375 37.300781 C 13.632812 37.445312 13.789062 37.585938 13.910156 37.6875 C 13.914062 37.695312 14.027344 37.792969 14.039062 37.800781 C 14.183594 37.929688 14.332031 38.054688 14.480469 38.179688 L 15.246094 38.785156 C 15.375 38.878906 15.507812 38.972656 15.65625 39.082031 C 15.707031 39.117188 15.757812 39.15625 15.8125 39.191406 C 15.835938 39.210938 15.859375 39.226562 15.875 39.238281 L 16.449219 39.621094 C 16.660156 39.757812 16.867188 39.886719 17.125 40.039062 L 17.261719 40.117188 C 17.421875 40.210938 17.585938 40.304688 17.738281 40.386719 C 17.828125 40.4375 17.917969 40.480469 17.996094 40.523438 C 18.105469 40.582031 18.226562 40.648438 18.40625 40.734375 C 18.421875 40.742188 18.550781 40.804688 18.566406 40.8125 C 18.746094 40.902344 18.929688 40.988281 19.164062 41.089844 C 19.164062 41.09375 19.238281 41.128906 19.238281 41.128906 C 19.449219 41.21875 19.65625 41.304688 19.929688 41.414062 C 19.972656 41.433594 20.015625 41.449219 20.023438 41.453125 C 20.21875 41.527344 20.421875 41.601562 20.585938 41.664062 C 20.601562 41.667969 20.6875 41.703125 20.703125 41.710938 C 20.925781 41.785156 21.144531 41.855469 21.425781 41.945312 C 21.472656 41.960938 21.523438 41.976562 21.527344 41.976562 L 21.6875 42.023438 C 21.882812 42.085938 22.074219 42.148438 22.285156 42.1875 C 23.773438 42.460938 25.226562 42.601562 26.601562 42.601562 C 38.0625 42.601562 41.710938 33.378906 41.75 33.285156 C 41.890625 32.914062 41.738281 32.492188 41.386719 32.300781 C 41.042969 32.109375 40.605469 32.199219 40.363281 32.515625 C 37.421875 36.386719 31.875 37.824219 25.523438 36.367188 C 25.371094 36.328125 25.214844 36.285156 25.0625 36.238281 L 24.761719 36.148438 C 24.558594 36.085938 24.355469 36.015625 24.160156 35.945312 C 24.15625 35.945312 24.066406 35.914062 24.066406 35.914062 C 23.890625 35.851562 23.714844 35.785156 23.5625 35.726562 L 23.386719 35.65625 C 23.195312 35.578125 23 35.496094 22.8125 35.414062 L 22.703125 35.367188 C 22.535156 35.289062 22.371094 35.210938 22.210938 35.132812 C 22.195312 35.125 22.070312 35.0625 22.054688 35.058594 C 21.945312 35.003906 21.832031 34.945312 21.6875 34.867188 L 21.035156 34.515625 C 20.96875 34.472656 20.898438 34.429688 20.835938 34.398438 C 20.636719 34.273438 20.433594 34.152344 20.234375 34.023438 C 20.1875 33.996094 20.148438 33.964844 20.070312 33.914062 C 19.929688 33.824219 19.796875 33.734375 19.601562 33.597656 L 19.523438 33.539062 C 19.386719 33.445312 19.257812 33.347656 19.148438 33.265625 C 19.078125 33.214844 19.007812 33.160156 18.898438 33.074219 C 18.796875 32.996094 18.695312 32.921875 18.601562 32.847656 L 18.429688 32.703125 C 18.28125 32.585938 18.144531 32.460938 18 32.335938 C 17.980469 32.320312 17.964844 32.304688 17.945312 32.289062 C 17.785156 32.144531 17.621094 31.996094 17.429688 31.8125 L 16.863281 31.25 C 16.726562 31.109375 16.585938 30.964844 16.429688 30.792969 C 16.289062 30.632812 16.148438 30.476562 15.964844 30.257812 L 15.628906 29.84375 C 15.585938 29.785156 15.542969 29.726562 15.492188 29.664062 C 15.375 29.507812 15.257812 29.351562 15.144531 29.191406 C 12.03125 24.902344 11.21875 15.953125 13.644531 12.675781 C 13.886719 12.347656 13.84375 11.882812 13.539062 11.605469 C 13.386719 11.46875 13.195312 11.398438 13.003906 11.398438 Z M 13.003906 11.398438 "/>
</g>
</svg>
