<?xml version="1.0" encoding="utf-8"?>
<!-- Generator: Adobe Illustrator 23.0.0, SVG Export Plug-In . SVG Version: 6.00 Build 0)  -->
<svg version="1.1" xmlns="http://www.w3.org/2000/svg" xmlns:xlink="http://www.w3.org/1999/xlink" x="0px" y="0px"
	 viewBox="0 0 871.5 1002.6" style="enable-background:new 0 0 871.5 1002.6;" xml:space="preserve">
<style type="text/css">
	.Drop_x0020_Shadow{fill:none;}
	.Outer_x0020_Glow_x0020_5_x0020_pt{fill:none;}
	.Blue_x0020_Neon{fill:none;stroke:#8AACDA;stroke-width:7;stroke-linecap:round;stroke-linejoin:round;}
	.Chrome_x0020_Highlight{fill:url(#SVGID_1_);stroke:#FFFFFF;stroke-width:0.3629;stroke-miterlimit:1;}
	.Jive_GS{fill:#FFDD00;}
	.Alyssa_GS{fill:#A6D0E4;}
	.lightSkin{fill:#FFD8D7;}
	.lightFront{fill:#514ED8;}
	.lightBeard{fill:#3333BC;}
	.hair{fill:#1E1356;}
	.hairShadow{fill:#0F0833;}
	.skin{fill:#EF9292;}
	.skinShadow{fill:#D65B56;}
	.torso{fill:#EFEFEF;}
	.mouse{fill:#EBEBF7;}
	.doubleTorsoShadow{fill:#D3A7A7;}
	.torsoShadow{fill:#EAC8C7;}
	.pc{fill:#B7C6E5;}
	.trousersShadow{fill:#811E13;}
	.key{fill:#F4F4F4;}
	.trousers{fill:#D15437;}
	.darkColor{fill:#0A2056;}
	.color{fill:#163E6D;}
	.smoke{fill:#4F779E;}
	.subDarkColor{fill:#03122B;}
	.subSecondColor{fill:#061A44;}
	.secondColor{fill:#0F3860;}
	.darkGrey{fill:#100F1E;}
	.grey{fill:#1C1930;}
	.wall{fill:#212735;}
	.lampShadow{fill:#0A2056;}
	.lamp{fill:#163E6D;}
	.light{fill:#F9A34E;}
	.lightShadow{fill:#D67525;}
	.windowReflection{fill:#0D0830;}
	.window{fill:#221563;}
	.lightSkin_x0020_2{fill:#FFD8D7;}
	.lightFront_x0020_2{fill:#514ED8;}
	.lightBeard_x0020_2{fill:#3333BC;}
	.hair_x0020_2{fill:#1E1356;}
	.hairShadow_x0020_2{fill:#0F0833;}
	.skin_x0020_2{fill:#EF9292;}
	.skinShadow_x0020_2{fill:#D65B56;}
	.darkGrey_x0020_2{fill:#100F1E;}
	.grey_x0020_2{fill:#1C1930;}
	.lightSkin_x0020_3{fill:#FFD8D7;}
	.lightFront_x0020_3{fill:#514ED8;}
	.lightBeard_x0020_3{fill:#3333BC;}
	.hair_x0020_3{fill:#1E1356;}
	.hairShadow_x0020_3{fill:#0F0833;}
	.skin_x0020_3{fill:#EF9292;}
	.skinShadow_x0020_3{fill:#D65B56;}
	.st0{display:none;}
	.st1{display:inline;fill:#03030C;}
	.st2{fill:none;stroke:#101028;stroke-width:2.5577;stroke-miterlimit:10;}
	.st3{fill:#221563;}
	.st4{fill:#0D0830;}
	.st5{opacity:0.4;}
	.st6{fill:#03030C;}
	.st7{fill:#C45247;}
	.st8{fill:#FFAC99;}
	.st9{fill:#EF8270;}
	.st10{fill:#EFEFEF;}
	.st11{fill:#EAC8C7;}
	.st12{fill:#FFC178;}
	.st13{fill:#ED844F;}
	.st14{fill:#E26D5D;}
	.st15{fill:#FFFFFF;}
	.st16{fill:#EAC1BE;}
</style>
<linearGradient id="SVGID_1_" gradientUnits="userSpaceOnUse" x1="-104.2508" y1="7.3172" x2="-104.2508" y2="6.3172">
	<stop  offset="0" style="stop-color:#656565"/>
	<stop  offset="0.618" style="stop-color:#1B1B1B"/>
	<stop  offset="0.6292" style="stop-color:#545454"/>
	<stop  offset="0.9831" style="stop-color:#3E3E3E"/>
</linearGradient>
<g id="BG" class="st0">
	<rect x="-258" y="-124.4" class="st1" width="1387.5" height="1296.6"/>
</g>
<g id="P2">
	<g>
		<g>
			<line class="st2" x1="716.5" y1="146.2" x2="768.4" y2="146.2"/>
			<line class="st2" x1="726" y1="171.7" x2="799.9" y2="171.7"/>
			<line class="st2" x1="710.2" y1="196.7" x2="785.2" y2="196.7"/>
			<line class="st2" x1="745.7" y1="146.2" x2="745.7" y2="171.7"/>
			<line class="st2" x1="768.1" y1="170.9" x2="768.1" y2="196.4"/>
		</g>
		<g>
			<g>
				<rect x="326.4" y="55.2" class="st3" width="167.7" height="258.5"/>
				<rect x="509.8" y="55.2" class="st3" width="167.7" height="258.5"/>
				<rect x="326" y="329.1" class="st3" width="167.7" height="258.5"/>
				<rect x="509.8" y="328.8" class="st3" width="167.7" height="258.5"/>
			</g>
			<g>
				<polygon class="st4" points="326.4,55.2 494.1,55.2 494.1,266.2 326.4,98.6 				"/>
				<polygon class="st4" points="677.5,55.2 677.5,313.7 541.5,313.7 509.8,281.9 509.8,55.2 				"/>
				<polygon class="st4" points="677.5,328.8 677.5,449.6 556.6,328.8 				"/>
			</g>
		</g>
		<g class="st5">
			<g>
				<g>
					<g>
						<g>
							<path class="st6" d="M634.9,242.6c0,0-11,0.8-15.1,7.7c-0.6,1.1-1.1,2.2-1.6,3.4c-0.4,0.9-0.8,1.8-1.1,2.7
								c-0.3,0.7-0.9,1.9-0.4,2.6c0.6,0.9,1.7,1.5,2.6,0.6c1.1-1.2,7.5-10.3,7.5-10.3s-2.8,5.2-3.9,6.8c-0.9,1.2-1.9,2.9-1.7,4.5
								c0.1,1.3,1.2,2.1,2.3,1.2c1.1-0.9,2.9-3.9,3.8-4.9c0.9-1,3.1-3.3,6.3-1.5c-0.9,0.9-1.7,1.8-2.5,2.7c-0.7,0.7-1,1.7-1.3,2.6
								c-0.4,1.2-0.8,2.4-1.1,3.6c0,0.1,0,0.1,0,0.2c0,0.1,0.1,0.2,0.1,0.3c0.4,0.5,1.1,1.1,1.8,0.8c1.1-0.5,2.8-3.8,3.3-4.6
								c0.5-0.8,4.1-2.6,4.1-2.6s5.2,2.1,7.4,2.9c2.2,0.7,9.8,1.3,11.4,0.7c1.6-0.6-13.9-15.4-13.9-15.4L634.9,242.6z"/>
						</g>
						<path class="st6" d="M611.3,228.3"/>
					</g>
					<g>
						<path class="st6" d="M718.2,254.3l-5.1,21.2c-3.1-0.7-5.9-1.3-8.3-1.8c-3.4-0.7-5.8-1.3-6.5-1.5c-10.4-2.9-20.6-6.1-31.2-8
							c-3.4-0.6-6.9-1.2-10.4-1.4c-3.4-0.2-6.9,0-10.2-1.1c-3.4-1.1-6.7-2.9-9.6-5c-3.8-2.9-8.1-4.4-12.6-6c-3-1-8.7-3.6-5.7-7.1
							c0.1-0.1,0.2-0.2,0.3-0.2c1.6-0.5,6.5,1.5,11,3c5,1.6,6,0.7,6.1-0.5c0.1-1.2-8.7-7.2-9.7-7.8c-1-0.6-8-2.9-12.9-4.6
							c-1-0.4-2-1-2.1-2.2c-0.1-0.8,0.8-1.4,1.5-1.8c0.2-0.1,0.5-0.2,0.7-0.2c0.7,0,1.3,0.3,1.9,0.5c6.9,2.3,15.1,3.4,21.5,6.9
							c2.6,1.4,5.1,2.7,7.6,4.3c7.1,4.5,19.7,8.8,19.9,8.9c7.7,2,15.6,2.1,23.4,2.9c3.7,0.4,7.3,1,11,1c0.8,0,8.5,0.1,10.6,0.3
							c0.3,0,0.5,0.1,0.5,0.1C710,254.1,713.4,254.2,718.2,254.3z"/>
					</g>
				</g>
				<g>
					<path class="st6" d="M665.3,308.4l-7.3,1.5c-0.2,0.1-0.5-0.1-0.6-0.3l-0.2-0.6c-0.1-0.2,0.1-0.4,0.3-0.5l7.3-1.5
						c0.2-0.1,0.5,0.1,0.6,0.3l0.2,0.6C665.7,308.2,665.5,308.4,665.3,308.4z"/>
				</g>
				<g>
					<path class="st6" d="M647,312.2l-34,7c-0.4,0.1-0.9-0.1-1-0.5l0,0c-0.1-0.4,0.2-0.7,0.6-0.8l34-7c0.4-0.1,0.9,0.1,1,0.5l0,0
						C647.7,311.7,647.4,312.1,647,312.2z"/>
				</g>
				<g>
					<path class="st6" d="M674.7,306.5l-7.3,1.5c-0.2,0.1-0.5-0.1-0.6-0.3l-0.2-0.6c-0.1-0.2,0.1-0.4,0.3-0.5l7.3-1.5
						c0.2-0.1,0.5,0.1,0.6,0.3l0.2,0.6C675.1,306.2,674.9,306.4,674.7,306.5z"/>
				</g>
				<g>
					<path class="st6" d="M684.1,304.5l-7.3,1.5c-0.2,0.1-0.5-0.1-0.6-0.3l-0.2-0.6c-0.1-0.2,0.1-0.4,0.3-0.5l7.3-1.5
						c0.2-0.1,0.5,0.1,0.6,0.3l0.2,0.6C684.5,304.3,684.4,304.5,684.1,304.5z"/>
				</g>
				<g>
					<path class="st6" d="M693.5,302.6l-7.3,1.5c-0.2,0.1-0.5-0.1-0.6-0.3l-0.2-0.6c-0.1-0.2,0.1-0.4,0.3-0.5l7.3-1.5
						c0.2-0.1,0.5,0.1,0.6,0.3l0.2,0.6C693.9,302.3,693.8,302.5,693.5,302.6z"/>
				</g>
				<g>
					<path class="st6" d="M725.8,222.7l-7.6,31.6l-5.1,21.2l-7,29.3c-0.1,0.8-0.6,1.5-1.4,1.9c0,0,0,0,0,0c-0.1,0.1-0.3,0.1-0.5,0.2
						c-0.1,0-0.1,0-0.2,0.1c-0.1,0-0.2,0.1-0.2,0.1l-98.5,20.3c-1.7,0.3-3.3-0.5-3.7-1.9l-0.6-1.9c-0.4-1.4,0.6-2.8,2.2-3.1
						l95.1-19.6l6.5-27.1l4.8-19.8l7.8-32.6c0.3-1.4,2-2.3,3.6-2l2.4,0.4C725,220,726.1,221.3,725.8,222.7z"/>
				</g>
			</g>
			<g>
				<g>
					<g>
						<path class="st6" d="M588.6,221.1c-1.1,0-2.3-1.8-3.5-4.1c-1.2-2.2-3-4-3.5-4.4c-0.5-0.4-1.6-0.2-0.2,0.6
							c1.1,0.7,2.1,2.1,2.8,3.2c0.9,1.3,2.1,3,2.5,4.5c0.3,1-0.3,1.5-1.1,1.7c-0.4,0.1-0.8,0.2-1.1,0c-0.3-0.2-0.6-0.6-0.8-0.9
							c-0.8-1.5-1.6-3.2-2.7-4.5c-1-1.1-2.2-1.9-3.4-2.6c-0.9-0.5-1.9-1.1-2.8-1.5c-0.5-0.2-1.9-1-2.5-0.8c-0.4,0.2,1.6,2.4,1.8,2.6
							c1.9,2.1,1.2,3.2,1.6,6.7c0.3,3.5-0.4,5.2-1.6,5.9c-1.2,0.7-2.1-1.2-2.2-2.5c0-0.3-0.1-0.9-0.1-1.6c-0.2-2-0.5-5-0.9-6.3l0,0
							c-0.5-1.5-6.9-4.8-9.3-5.9c-0.5-0.3-0.9-0.4-0.9-0.4l0.1-3.2l6.3-1.9l10.8-0.8l0.4,0l0.2,0.2l6.7,6.4c0,0,0.3,0.5,0.8,1.3
							c1.3,2.2,3.7,6.5,4,7.2C590.3,221,589.7,221.1,588.6,221.1z"/>
					</g>
					<g>
						<path class="st6" d="M590,210.6c0,0-1-1.4-2-1.9c-0.9-0.6-4.2-4.6-6-6c-1.8-1.4-1.6-2-14.1-1.1c-12.5,0.9-29.4,2.4-32.6,3.7
							c-2.4,1-6.9,4.8-9.3,7.1l-17.3,15.1l9.5,7.9l5.6,4.6l15-16.1c1.7-2.1,3.3-3.8,4.2-3.9c2.3-0.3,5.6,1.9,8.2,1.6
							c2.5-0.4,17.5,1,20.6,2c0.1,0,0.1,0,0.2,0.1c2.7,1,3.5-0.4,3-1.5c-0.4-1.1-1.7-4-4-4.8c-2.3-0.8-5.4,0-7-2.2
							c-1.6-2.3-3.2-3.1-2.8-3.5c0,0,0.2-0.1,0.4-0.2c2.3-1,12.9-4.6,14.4-4.4c1.6,0.2,7.8,4.4,10.1,5.9c0,0,0,0,0,0
							c1.5,1,3.7,1.1,4.3,0.1C590.6,212.4,590.6,211.6,590,210.6z"/>
					</g>
					<g>
						<path class="st6" d="M585.4,209c-2.7-1.9-4.8-3.1-6.8-3.8c-0.2-0.1-0.4-0.1-0.6-0.2c-4.1-1.3-8-0.4-15.9,1.3
							c-7.5,1.6-14.6,5.8-21.1,9.6c-2.8,1.6-5.7,3.2-8.3,5.3c-2.8,2.3-5.5,4.6-8,7.1c-2.3,2.2-4.8,4.5-6.4,7.3l5.6,4.6l15-16.1
							c1.7-2.1,3.3-3.8,4.2-3.9c2.3-0.3,5.6,1.9,8.2,1.6c2.5-0.4,17.5,1,20.6,2c0.1,0,0.1,0,0.2,0.1c2.7,1,3.5-0.4,3-1.5
							c-0.4-1.1-1.7-4-4-4.8c-2.3-0.8-5.4,0-7-2.2c-1.6-2.3-3.2-3.1-2.8-3.5c0,0,0.2-0.1,0.4-0.2c2.3-1,12.9-4.6,14.4-4.4
							c1.6,0.2,7.8,4.4,10.1,5.9c0,0,0,0,0,0c1.5,1,3.7,1.1,4.3,0.1C588.8,211.5,587.2,210.2,585.4,209z"/>
					</g>
				</g>
				<g>
					<g>
						<path class="st6" d="M532.2,221.3c-1.5,0.9-3,2.2-4.5,3.8c-5.2,5.5-10.6,14.3-16,20.1c-18.8,19.9-40.9,41.1-68.5,46.1
							c-6.1,1.1-12.2,0.6-18.4-0.2c-6.9-0.9-13.8-2.3-20.6-2.4c-1.5,0-21-2.3-21.2-1.4c-0.1,0.4,0.3,1.6,1,3.3
							c-0.5-1.2-1.1-2.4-1.7-3.6c-7.9-0.6-41.4-3.2-53-4c-4.3-13.7,5.2-29.2,6.3-29.8c2.1-1.2,33.1,1.9,33.1,1.9
							c6.1,0.6,13.8,0.8,14,0.8c8.2,0.3,16.5-0.9,24.8-1c9.9-0.2,19.9,0.1,29.8,0.8c7.9,0.6,15.5,1.2,22.6-2.7
							c20.9-11.5,41-25.3,60.5-39c0.3-0.2,1.9-1.2,2.9-1.8c0.4-0.2,0.9-0.2,1.2,0.2l0.7,0.8L532.2,221.3z"/>
					</g>
					<g>
						<path class="st6" d="M539.6,228.1c-0.2,0.3-0.5,0.6-0.9,0.9c-0.2,0.2-0.4,0.4-0.5,0.6c-0.4,0.4-0.8,0.9-1.3,1.4
							c-0.1,0.1-0.2,0.3-0.4,0.4c-2.2,2.4-5.3,5.8-8.7,9.5c-0.2,0.3-0.5,0.5-0.7,0.8c-2.7,3-5.6,6.1-8.5,9.2
							c-0.3,0.3-0.5,0.5-0.8,0.8c-0.2,0.2-0.4,0.4-0.6,0.6c-0.3,0.3-0.5,0.6-0.8,0.9c-1.6,1.8-3.2,3.5-4.7,5.1
							c-0.3,0.3-0.5,0.5-0.7,0.8c-0.6,0.6-1.1,1.2-1.6,1.8c-1.1,1.2-2.1,2.2-3,3.2c0,0-0.1,0.1-0.1,0.1c-0.2,0.2-0.4,0.4-0.6,0.6
							c-1.5,1.7-2.8,3-3.7,4c-5.9,6.3-16.2,12.8-22.6,18.6c-6.9,6.2-14.8,11.6-23.5,14.6c-8.3,2.8-16.9,2.2-25.5,1.9
							c-12.6-0.4-27.4-1.2-39.9-0.1c0,0,0,0,0-0.1c0,0,0-0.1-0.1-0.1c0,0,0,0,0,0c-42.1,2.4-57-8.5-60.8-20.9
							c11.6,0.8,45.1,3.4,53,4c1.1,0.1,1.7,0.1,1.7,0.1l0,0c4.1-0.1,18.8,1.6,20.1,1.6c6.8,0.1,13.7,1.5,20.6,2.4
							c6.1,0.8,12.3,1.3,18.4,0.2c27.6-5,49.8-26.2,68.5-46.1c5.5-5.8,10.8-14.6,16-20.1c1.5-1.6,3-2.9,4.5-3.8l5.1,3.9l2.1,1.6
							C539.9,227.1,540,227.7,539.6,228.1z"/>
					</g>
				</g>
				<g>
					<g>
						<path class="st6" d="M654,467.8c0.5,0,0.8,0.1,1.1,0.2c1.9,1,1.9,8.9,2.1,14.1c0.2,5.5,0.8,7.2-0.6,12.2
							c-1,3.6-5.8,12.6-10,18.2c-5.1-1.2-14.4-1.7-20.8-8.7l0,0c-2.2-2.4-5.1-4.2-8.4-5.4c-0.1,0.2-0.1,0.5-0.2,0.7l0,0
							c0,0.1,0,0.1,0,0.2c-0.1,0.2-0.1,0.4-0.2,0.7c-0.6,2.4-1.4,4.9-2.5,6.8c-3.8,0.1-6.3-1.2-6.3-1.2l1.1-5.9l0.6-3.2l2-11l0.3-2
							c1.5,0.9,3.1,1.9,4.6,2.8c0,0,0,0,0,0c0.4,0.2,0.7,0.5,1.1,0.7c1.5,0.9,3,1.8,4.5,2.7c2,1.2,4,2.4,6,3.6
							c3.4,2,7.2-0.2,10.5-1.7c2-0.9,5.2-2.1,6.2-4.3c0.9-2.1,0.8-4.8,0.6-7C644.8,470.6,651,467.7,654,467.8z"/>
					</g>
					<g>
						<path class="st6" d="M617.2,499c0,0.1,0,0.1,0,0.2c-0.1,0.2-0.1,0.4-0.2,0.7c-0.6,2.4-6.3,4.6-7.4,6.5c2.9,0.3,9.6,1,14.7,2.2
							c8.3,2,13.8,9.8,17.9,8.2c0.3-0.1,1.2-1,2.1-1.9l0.3-0.3l0.6-0.7l0.3-0.3c0.4-0.4,0.8-0.8,1-1c-5.1-1.2-14.4-1.7-20.8-8.7l0,0
							c-2.2-2.4-5.1-4.2-8.4-5.4C617.3,498.5,617.2,498.8,617.2,499z"/>
					</g>
				</g>
				<g>
					<g>
						<path class="st6" d="M552.3,488.1c0,0.5,0,1-0.1,1.3c-0.9,2.4-10.4,3.2-16.7,3.9c-6.5,0.8-8.5,1.7-14.7,0.5
							c-4.4-0.9-15.8-5.7-22.8-10c1-6.3,0.6-17.5,8.2-25.8l0,0c2.7-2.9,4.5-6.6,5.6-10.7c-0.3,0-0.6-0.1-0.9-0.1l0,0
							c-0.1,0-0.1,0-0.2,0c-0.3,0-0.5-0.1-0.8-0.1c-2.9-0.5-6-1.1-8.5-2.3c-0.6-4.6-2-7.9-2-7.9l9.9,0.9l3.9,0.3l13.4,1.2l2.4,0.2
							c-0.9,1.9-1.9,3.9-2.8,5.8c0,0,0,0,0,0c-0.2,0.5-0.5,0.9-0.7,1.4c-0.9,1.9-1.8,3.8-2.8,5.7c-1.2,2.5-2.4,5-3.6,7.5
							c-2.1,4.3,1,8.6,3.1,12.3c1.3,2.3,3.1,6.1,5.8,7c2.6,0.9,5.8,0.4,8.5-0.1C548,477.3,552.1,484.5,552.3,488.1z"/>
					</g>
					<g>
						<path class="st6" d="M511,447.3c-0.1,0-0.1,0-0.2,0c-0.3,0-0.5-0.1-0.8-0.1c-2.9-0.5-6-1.1-8.5-2.3c0.4,3.5,0.4,7.8-1.2,11.9
							c-3.6,9.6-10.3,17.6-7.9,22.3c0.2,0.4,1.3,1.4,2.5,2.4l0.4,0.4l0.9,0.7l0.4,0.3c0.5,0.4,1,0.8,1.3,1.1
							c1-6.3,0.6-17.5,8.2-25.8l0,0c2.7-2.9,4.5-6.6,5.6-10.7C511.6,447.3,511.3,447.3,511,447.3z"/>
					</g>
				</g>
				<g>
					<g>
						<path class="st6" d="M556.1,312.7c1.6,14-2.6,31.1-4.8,42.7c-4.9,26-10.7,52.2-18.8,77.4c-0.6,1.8-1.1,3.6-1.8,5.3
							c-2.4,5.5-16.6-4.8-23.8-10.5c-2.2-1.7-3.7-3-4.1-3.3c-0.1-0.1-0.1-0.1-0.1-0.1s0-0.9,0-2.4c0-0.4,0-0.9,0-1.4v-0.2
							c0.2-8.4,0.8-28,2.2-39.6c0-0.3,0.1-0.6,0.1-0.8c0.1-1.1,0.3-2.1,0.4-3c0.2-1.1,0.4-2.1,0.6-2.9l0.3-1c0,0,0,0,0-0.1
							c0-0.1,0.1-0.2,0.1-0.2c0.1-0.6-0.4,0-1.3,1.3c0.1-0.3,0.1-0.6,0.2-0.9l0.3-1c0,0,0,0,0-0.1c0-0.1,0.1-0.2,0.1-0.2
							c0.3-1.6-4.7,6.3-10.2,14.7c-1.7,2.5-3.4,5.1-5,7.5c-0.3,0.4-0.6,0.8-0.8,1.2c-1,1.4-1.9,2.7-2.8,3.8c-0.4,0.5-0.7,1-1.1,1.4
							c-0.7,0.8-1.3,1.5-1.8,2.1c-4.1,4.1-8.8,9.3-12,12.9c-0.3,0.3-0.6,0.6-0.8,0.9c-1.8,2.1-3,3.5-3,3.5l-6.2-3.5l-1.7-0.9
							l-6.1-3.4l-0.4-0.2l-28.1-15.8l-17.9-6.5l-20.4-22l27.8-5c0,0,15,2.4,15,2.4c12.4-11.6,24.3-20.6,35.1-31.6
							c9.4-9.6,19-19.2,30-27.1c9.8-7.1,26.4-19.4,39.1-17.3C549.1,291.1,554.8,300.8,556.1,312.7z"/>
					</g>
					<g>
						<path class="st6" d="M521.6,319.3c1.9-1.1,1.1,1.4,0.9,2.4c-0.7,2.9-1.3,5.9-1.7,8.8c-1,6.3-1.7,12.7-2.8,19
							c-2.2,11.9-4.6,23.8-7.4,35.7c-3.9,16.8-3.6,41.4-3.6,42.6c-2.1-1.4-3.7-2.9-4.1-3.3c-0.1-0.1-0.1-0.1-0.1-0.1s0-0.9,0-2.4
							c0-0.4,0-0.9,0-1.4v-0.2c0.2-8.4,0.8-28,2.2-39.6c0-0.3,0.1-0.6,0.1-0.8c0.1-1.1,0.3-2.1,0.4-3c0.2-1.1,0.4-2.1,0.6-2.9l0.3-1
							c0,0,0,0,0-0.1c0-0.1,0.1-0.2,0.1-0.2c0.1-0.6-0.4,0-1.3,1.3c-1.8,2.5-5.2,7.9-8.8,13.4c-1.7,2.5-3.4,5.1-5.1,7.5
							c-0.3,0.4-0.6,0.8-0.8,1.2c-1,1.4-1.9,2.7-2.8,3.8c-0.4,0.5-0.7,0.9-1.1,1.4c-0.7,0.8-1.3,1.6-1.8,2.1
							c-4.1,4.1-8.8,9.2-12,12.9h-11.7l-6-1.8l-0.5-1.8l-0.3-0.7l-22.7-18.3c28.9,5.1,49.7-17.5,61.6-32
							c5.3-6.4,10.4-13.5,14.9-20.7c2.4-3.9,4.3-8,6.5-12c1.1-2,2.3-4,3.7-5.8C519.2,321.8,520.3,320,521.6,319.3z"/>
					</g>
				</g>
				<g>
					<g>
						<path class="st6" d="M618.9,498.6c-0.1,0.2-0.1,0.4-0.2,0.7c-1.7,5.2-5.4,9.3-13,7c-32.1-9.8-65.3-16.2-97.9-24.2
							c-26.3-6.5-52.5-13.7-78.4-21.5c-25-7.6-45.9-19.2-67.5-33.8l-0.3-6.7l-0.4-10l0-0.3l-0.6-13.7l-0.1-2.6l16.7-24.8l80.4,36.6
							c0,0,39.5,16.6,69.3,31.5c29.9,14.9,93.2,48.3,93.2,48.3S620.8,492.4,618.9,498.6z"/>
					</g>
				</g>
				<g>
					<g>
						<path class="st6" d="M362.9,211.4c0,0-0.1,0.1-0.1,0.1l0,0C362.8,211.4,362.9,211.4,362.9,211.4z"/>
					</g>
					<g>
						<path class="st6" d="M375.9,217.1c0.3,1.4,0.5,2.8,0.7,4.3c0.2,1.3,1.1,4.5,0.9,5.7c-0.4,2.1-2.5,3.5-5,4.3
							c0-0.5,0.1-1,0.2-1.5c0.8-3.1,0.5-6.2-0.2-9.3C373.7,219.6,374.9,218.5,375.9,217.1z"/>
					</g>
					<g>
						<path class="st6" d="M370.6,209.5c-0.1,0-0.3-0.1-0.5-0.1c-0.7-0.2-1.5-0.3-2.2-0.4c0.6,1.3,1.2,2.6,1.8,3.9
							c1,2.3,2,4.6,2.6,7.1c0.1,0.2,0.1,0.5,0.2,0.7c1.2-1,2.4-2.2,3.3-3.5c-0.1-0.7-0.3-1.4-0.5-2.1
							C374.6,212.5,373.3,210.3,370.6,209.5z"/>
					</g>
					<g>
						<g>
							<path class="st6" d="M321.2,202.6c0.9,1.6,0.5,3.5,0.5,5.3c0,0,0,0,0-0.1C321.7,206,322.1,204.2,321.2,202.6z"/>
						</g>
						<g>
							<path class="st6" d="M356.2,173.6c-1,0.4-2.1,0.7-3.1,0.7c0.2,0,0.3,0,0.4,0C354.4,174.1,355.3,173.9,356.2,173.6z"/>
						</g>
						<g>
							<path class="st6" d="M316.1,200.7c0-0.1-0.1-0.2-0.1-0.3C316,200.4,316,200.5,316.1,200.7C316,200.6,316,200.7,316.1,200.7z"
								/>
						</g>
						<g>
							<path class="st6" d="M315.2,196.7c0,0,0,0.1,0.1,0.3C315.2,196.9,315.2,196.8,315.2,196.7L315.2,196.7z"/>
						</g>
						<g>
							<path class="st6" d="M314.4,201.4c-1.1,0.8-1.9,2-2.1,3.3c-0.2,1.7,0.8,4.1,1.3,5.8c0.9,3.1,1.2,5.8,4.1,7.8
								c3.1,2.1,2.8,6.3,1.3,9.9c-0.3,0.7-0.8,1.5-1.3,2.3c0,0,0.4,1.1,0.3,2.8c-0.4,4.9,0.3,18.4-5,24.2c0.3-0.2,1-0.5,1.4-0.5
								c0,0,5.5-0.4,5.5-0.4c0.4,0,1.2-1.6,1.3-1.9c0.9-1.5,1.7-3.1,2.1-4.8c0.5-1.9,0.2-4,0.6-5.9c1.5-7.4,4.7-14.7,0.7-21.7
								c-3.7-6.4-5.2-13.7-8.5-21.7C315.4,200.5,314.9,201,314.4,201.4z"/>
						</g>
						<g>
							<g>
								<path class="st6" d="M362.8,211.5L362.8,211.5c0,0,0.1-0.1,0.1-0.1C362.9,211.4,362.8,211.4,362.8,211.5z"/>
							</g>
							<g>
								<path class="st6" d="M356.2,173.6c-1,0.4-2.1,0.7-3.1,0.7c0.2,0,0.3,0,0.4,0C354.4,174.1,355.3,173.9,356.2,173.6z"/>
							</g>
							<g>
								<path class="st6" d="M321.3,202.2c0,0.1,0.1,0.3,0.2,0.3c0.8,1.6,1,3.2,1.2,4.9c0.2,1.9,1.3,3.1,2.3,4.7
									c2.7,4.3,5.8,8.4,9.6,11.7c0.3,0.3,0.6,0.6,0.9,0.9c0.1,0.1,0.2,0.2,0.2,0.3c0,0,0.1,0.1,0.1,0.1c1,1.1,1.9,2.2,3.4,2.5
									c0.4,0.1,3.5,1.5,4.4,2.8c0.3,0.4,0.4,0.8,0.1,1.1c-1,1.3-1,4.3-1.2,5.8c-0.8,7.1,6.3,12.6,11,16.9
									c-0.9-0.3-1.7-0.5-2.5-0.5l-20.7,1.7l-10.7,0.9c1.5-2.1,2.6-4.7,3.1-7.2c0.4-2.1,0.3-4.2,0.7-6.2c0.4-2.1,1.1-4.1,1.7-6.1
									c0.9-3.3,1.4-7,0.3-10.3c-2.2-6.7-8.5-18.9-9.5-25.9c0,0,0,0,0-0.1c0,0,0-0.1,0-0.1c0,0,0,0,0,0c0,0,0,0,0,0l-0.1-0.3
									c1.5-0.5,3.5-0.2,4.8,1C321,201.4,321.1,201.9,321.3,202.2z"/>
							</g>
						</g>
						<g>
							<path class="st6" d="M291.2,143.4c-5.3,0.3-5.4,6.7-4.8,12.3c0.4,3.5,1.1,4.7,4.2,5.5c2.8,0.8,8,1.6,9.9,4.3
								c0.1,0.2,0.2,0.3,0.3,0.5c0.2,0.3,0.3,0.6,0.3,1c0.4,1.9-1.4,5-2.4,6.2c-1.2,1.4-2.8,2.9-3.4,4.7c-0.6,1.8,0,3.6,0.1,5.5
								c0.2,2.4-0.3,4.8-0.3,7.2c0,3.5,1.2,6.9,3.3,9.7c2.3,3.1,5.9,5.2,7.7,8.7c0,0.1,0.1,0.2,0.1,0.2c0.7,1.5,1,3.3,1.5,4.9
								c1,3.7,4.2,5.7,6.2,8.8c0.9,1.5,1.1,4.2,1.2,6c0.2,2.4-1.1,6.1-2.2,6.8c1.2-0.6,3.3-3.1,4.7-5.4c0.5-0.8,1-1.7,1.3-2.3
								c1.6-3.5,1.8-7.8-1.3-9.9c-2.8-1.9-3.2-4.6-4.1-7.8c-0.5-1.7-1.5-4-1.3-5.8c0.2-1.3,1-2.4,2.2-3.2c0.5-0.3,1-0.6,1.6-0.8
								c0,0,0,0,0,0c0-0.1-0.2-0.6-0.2-0.7c-0.4-1.6-0.2-3.1-0.6-4.7c-1.1-3.8-3.6-7-5.9-10.2c-1.9-2.7-2.8-5.7-2.2-8.9
								c0.6-2.9,2-5.5,3.2-8.1c1.2-2.8,2-5.8,3.1-8.7c-0.7,0.1-1.3,0.3-2,0.6c-1.4,0.7-3.3,2.2-5,1.2c-0.1-0.1-0.2-0.1-0.3-0.2
								c-0.2-0.2-0.4-0.4-0.5-0.6c-0.8-1.3-0.5-3.4-0.5-4.6c0.1-2.7,0.5-5.4-0.8-8C302.9,144.8,296.5,143.1,291.2,143.4z"/>
						</g>
						<g>
							<path class="st6" d="M294.9,168.5c0-1,0.4-1.9,1-2.7c0.6-0.8,1.5-1.5,2.4-1.9c0.5-0.2,1-0.4,1.5-0.5l0.7-0.2l0.5-0.1
								c0.7-0.2,1.4-0.5,2-0.9c0.6-0.4,1.2-0.9,1.8-1.5c0.5-0.6,1-1.2,1.5-1.9c0.9-1.4,1.7-2.9,2.3-4.7c0.5,1.8,0.3,3.8-0.4,5.7
								c-0.4,0.9-0.9,1.8-1.5,2.6c-0.6,0.8-1.4,1.5-2.3,2.1c-0.9,0.6-1.9,0.9-3,1.1l-0.8,0.1c-0.2,0-0.4,0-0.6,0
								c-0.2,0-0.4,0-0.6,0.1c-0.2,0-0.4,0-0.6,0.1C297.5,166.2,296,167,294.9,168.5z"/>
						</g>
						<g>
							<path class="st6" d="M372.3,219.9c0.1,0.2,0.1,0.5,0.2,0.7c0.7,3,0.9,6.2,0.2,9.3c-0.1,0.6-0.2,1.1-0.2,1.5
								c-0.3,0.1-0.6,0.2-0.9,0.3c-2.7,0.7-5.8,0.8-8.1,0.4c-0.3,0-0.6-0.1-0.9-0.2c-7.9-2-10.8,0.3-16.2-0.1c-0.3,0-0.5,0-0.8-0.1
								c-0.6-0.1-1.1-0.1-1.7-0.2c-1-0.5-2.2-1.1-3.4-1.9c-0.3-0.2-0.5-0.3-0.7-0.5c-0.1-0.1-0.3-0.2-0.4-0.3
								c-0.1,0-0.1-0.1-0.2-0.1c-0.2-0.1-0.3-0.2-0.5-0.3c-0.6-0.4-1.3-0.9-1.9-1.4c-0.3-0.2-0.6-0.5-0.9-0.7
								c-1.2-1-2.4-2.1-3.5-3.1c0,0,0,0,0,0c0,0,0,0,0.1,0c0.1,0,0.1,0.1,0.2,0.1c0.5,0.2,1.6,0.8,2.9,1.4c0.1,0,0.2,0.1,0.2,0.1
								c2.8,1.2,6.7,2.5,8.7,1.4c3.3-1.9,12.3-1.8,18.3-0.6c1.5,0.3,2-0.2,5-2.2C369.1,222.4,370.7,221.2,372.3,219.9z"/>
						</g>
						<g>
							<path class="st6" d="M352.7,174.3c0.2,2.3,0,4.8,0.6,9.1c0.7,4.6,4,7.4,6.6,11c3.2,4.4,5.7,9.6,8,14.6
								c-0.8,0-1.5,0.1-2.1,0.4c-0.1,0-0.2,0.1-0.3,0.1c0,0-0.1,0.1-0.1,0.1c-0.4,0.3-0.7,0.5-1,0.8c0.1,1,0.2,1.6,0.2,1.6
								c-3.1,2.3-7.2,4.4-11,5.3c-3.3,0.8-6.9-0.7-10.2-0.1c-2.2,0.4-4.5,0-6.8-0.6c-0.8-0.2-1.6-0.5-2.5-0.8l0,0
								c-2.1-0.8-4.1-1.9-5.5-3.5c-2.3-2.5-2.1-6.7-3.5-9.6c0-0.1,0-0.1-0.1-0.2c-0.1-0.2-0.2-0.3-0.3-0.5c-1.1-1.9-4.4-4-3.5-6.5
								c1.1-3,6.6-5,2-8.9c-0.1-0.1-0.2-0.2-0.3-0.3c-2-1.5-4.4-2.6-6-4.5c-0.7-0.8-0.2-3.4,0.9-3.9c1.9-0.9,3.7-1.4,5.6-2.3
								c1.3-0.5,2.6-0.1,3.9,0.1c1.7,0.2,3.5,0.8,5.1,0.2c2.7-1,4.2-3.5,7.1-4.1c0.5-0.1,1-0.2,1.6-0.2c0.2,0,0.3,0,0.5,0
								c0.6,0,1.1,0,1.7,0c0.2,0,0.3,0,0.5,0.1c0,0,0.1,0,0.1,0c0.1,0,0.2,0,0.4,0.1c0.2,0,0.3,0.1,0.5,0.1c0.2,0,0.3,0.1,0.5,0.1
								c0.1,0,0.3,0.1,0.4,0.1c0.1,0,0.3,0.1,0.4,0.1c0.3,0.1,0.5,0.2,0.8,0.4c0.7,0.4,1.5,0.7,2.4,1c0.8,0.3,1.6,0.5,2.4,0.6
								c0.1,0,0.2,0,0.4,0c0.1,0,0.1,0,0.2,0C352.4,174.3,352.5,174.3,352.7,174.3z"/>
						</g>
						<g>
							<path class="st6" d="M356.2,173.6c-1,0.4-2.1,0.7-3.1,0.7c0.2,0,0.3,0,0.4,0C354.4,174.1,355.3,173.9,356.2,173.6z"/>
						</g>
						<g>
							<path class="st6" d="M351.7,169.4c0.7,1.9,0.9,3.4,1,4.9c-0.2,0-0.4,0-0.5,0c-0.1,0-0.2,0-0.2,0c-0.1,0-0.2,0-0.4,0
								c-0.8-0.1-1.6-0.3-2.4-0.6c-0.8-0.3-1.7-0.7-2.4-1c-0.3-0.1-0.5-0.3-0.8-0.4c-0.1-0.1-0.3-0.1-0.4-0.1
								c-0.1-0.1-0.3-0.1-0.4-0.1c-0.2-0.1-0.3-0.1-0.5-0.1c-0.2,0-0.3-0.1-0.5-0.1c-0.1,0-0.3,0-0.4-0.1c0,0-0.1,0-0.1,0
								c-0.2,0-0.3,0-0.5-0.1c-0.5,0-1.1-0.1-1.7,0c-0.2,0-0.3,0-0.5,0c-0.5,0-1,0.1-1.6,0.2c-2.9,0.7-4.3,3.1-7.1,4.1
								c-1.6,0.6-3.4,0-5.1-0.2c-2.4-0.3-9.9,1.3-9.8,4.4c0.1,2.3,3.6,4.8,5.4,6.2c0.1,0.1,0.2,0.2,0.3,0.3c4.6,3.9-1,5.9-2,8.9
								c-0.9,2.6,2.4,4.6,3.5,6.5c0.1,0.2,0.2,0.3,0.3,0.5c0,0.1,0,0.1,0.1,0.2c1.4,2.8,1.5,5.9,3.4,8.5c0.1,0.1,0.2,0.3,0.3,0.4
								c1.6,2.1,3.4,3.3,5.2,4.1c0,0,0,0,0,0c3,1.2,6.3,1.1,9.8,0.9c1.8-0.1,3.7-0.3,5.6-0.3c0,0,0.1,0,0.1,0c4-0.1,7.3-1.1,10.7-3
								c0.2-0.1,0.5-0.3,0.7-0.4c0.1,0,0.2-0.1,0.3-0.2c0.5-0.3,1.1-0.7,1.6-1c0.1,0,0.1-0.1,0.2-0.1c0.5-0.3,1-0.7,1.5-1
								c0.3-0.2,0.7-0.5,1-0.8c0.1,0,0.1-0.1,0.1-0.1c0.1-0.1,0.2-0.1,0.3-0.1c0.6-0.3,1.4-0.4,2.1-0.4c0.6,1.3,1.2,2.6,1.8,3.9
								c1,2.3,2,4.6,2.6,7.1c0.1,0.2,0.1,0.5,0.2,0.7c-1.6,1.3-3.2,2.4-4.6,3.3c-2.1,1.4-4.6,2.9-7.2,3.1c-2.6,0.2-5.2-0.3-7.7-0.5
								c-2.2-0.2-4.7-0.4-6.9,0.2c-0.2,0.1-0.4,0.1-0.7,0.2c-1.6,0.6-2.7,0.7-4.4,0.3c-1.4-0.4-2.7-0.9-4-1.5
								c-0.4-0.2-0.8-0.4-1.2-0.6c0,0-0.1,0-0.1-0.1c-1.1-0.5-2.1-1.1-3.2-1.8c-0.1,0-0.1-0.1-0.2-0.1c0,0,0,0-0.1,0c0,0,0,0,0,0
								c-1-1-1.8-1.9-2.5-2.8c-0.1-0.1-0.2-0.3-0.3-0.4c-0.1-0.2-0.3-0.4-0.4-0.6c-0.3-0.4-0.5-0.7-0.8-1c-0.1-0.1-0.2-0.2-0.3-0.3
								c-2.7-3-6-5.3-6.2-9.8c0-0.1,0-0.1,0-0.2c0,0,0,0,0-0.1c0-1.8,0.4-3.7-0.5-5.3c0-0.1-0.1-0.1-0.1-0.2
								c-0.2-0.3-0.4-0.6-0.7-0.9c-1.2-1.2-2.9-1.3-4.4-0.9c0,0,0,0,0,0l0,0c0,0,0,0,0,0c0,0,0,0,0-0.1c0-0.1,0-0.2-0.1-0.3
								c-0.1-0.2-0.1-0.4-0.2-0.6c-0.1-0.3-0.1-0.6-0.2-0.9c0-0.2-0.1-0.4-0.1-0.6c0-0.2-0.1-0.4-0.1-0.6c0-0.2-0.1-0.4-0.1-0.6
								c-0.3-1.3-0.8-2.5-1.3-3.7c-1-2.4-2.4-4.7-4.3-6.5c-5.3-5.3-4.4-15.1-0.9-18.9c1.5-1.7,3.4-5,4.7-8.5
								c1.4-0.2,2.8,0.1,4.3,0.4c2.8,0.5,5.3-0.2,7.7-1.5c4-2.2,7-4.2,11.8-3.7c0.1,0,0.3,0,0.4,0c0.7,0.3,1.4,0.6,2.1,1
								C345.1,158.1,349.6,163.8,351.7,169.4z"/>
						</g>
						<g>
							<path class="st6" d="M360.2,160.9c1.3,1.4,1,4,0.4,5.6c-0.8,2.1-1.4,4.8-3.1,6.3c-0.4,0.3-0.8,0.6-1.2,0.8c0,0,0,0-0.1,0
								c-0.9,0.3-1.8,0.5-2.7,0.6c-0.1,0-0.3,0-0.4,0l-0.2,0c0,0-0.1,0-0.1,0c-0.1-1.5-0.3-3-1-4.9c-2.1-5.6-6.6-11.3-12-13.9
								c-0.7-0.3-1.4-0.7-2.1-1c2,0.2,4,0.7,5.9,1.4c2.1,0.8,4.1,1.9,5.8,3.3c0,0,0.1,0.1,0.1,0.1c1.4,1.2,2.9,2.5,4.6,2.9
								c1.9,0.4,3.6-0.4,5-1.4c0.2-0.2,0.5-0.3,0.8-0.2c0,0,0.1,0,0.1,0.1C360,160.8,360.1,160.9,360.2,160.9z"/>
						</g>
						<g>
							<path class="st6" d="M356.2,173.5c0,0,0,0.1,0,0.1c0.7,1.6,2,4.9,2.2,7.2c0.2,3.2,6.1,6.4,8.4,8.5c3.6,3.4-1.6,3.7-1,7.9
								c0.4,3.5,3.3,9.8,4.4,12c-0.7-0.2-1.5-0.3-2.2-0.4c-2.3-5.1-4.8-10.3-8-14.6c-2.6-3.5-5.9-6.4-6.6-11
								c-0.7-4.4-0.5-6.8-0.6-9.1c0,0,0,0,0.1,0l0.2,0C354.1,174.2,355.2,174,356.2,173.5C356.2,173.6,356.2,173.5,356.2,173.5z"/>
						</g>
						<g>
							<path class="st6" d="M356.2,173.6c-1,0.4-2.1,0.7-3.1,0.7c0.2,0,0.3,0,0.4,0C354.4,174.1,355.3,173.9,356.2,173.6z"/>
						</g>
					</g>
				</g>
				<g>
					<path class="st6" d="M618.9,498.6c-0.1,0.2-0.1,0.4-0.2,0.7c-1.7,5.2-5.4,9.3-13,7c-32.1-9.8-65.3-16.2-97.9-24.2
						c-26.3-6.5-52.5-13.7-78.4-21.5c-25-7.6-45.9-19.2-67.5-33.8l-0.3-6.7l-0.4-10l0-0.3l10-2.5c0,0,40.2,28.6,72.6,37.6
						c44.4,12.3,50,21.7,87.8,31.5C569.5,486.1,618.9,498.6,618.9,498.6z"/>
				</g>
				<g>
					<path class="st6" d="M430.1,364.7c0,0-11.7,3.1-33.6,12.2c-0.2,0.1-0.4,0.2-0.6,0.2c-0.5,0.2-0.9,0.4-1.4,0.6
						c-11.5,4.8-18.8,17.7-23.4,29.4c-0.3,0.7-0.6,1.5-0.8,2.2c-0.2,0.6-0.4,1.1-0.6,1.6c-1.2,3.4-2.1,6.7-2.8,9.5
						c-0.1,0.6-0.3,1.1-0.4,1.6c-0.2,0.9-0.4,1.7-0.5,2.4c-0.1,0.2-0.1,0.5-0.1,0.7c-0.2,0.8-0.3,1.6-0.5,2.2c0,0.1-0.1,0.3-0.1,0.4
						c0,0,0,0,0,0c0,0.2-0.1,0.4-0.1,0.6c0,0.1,0,0.2-0.1,0.4c0,0.1,0,0.2,0,0.3c0,0.1,0,0.1,0,0.2c0,0,0,0,0,0c0,0.1,0,0.1,0,0.2
						c0,0.3-0.1,0.4-0.1,0.4l-11.3-8.2c-21.9-11.7-42.5-48.3-53.5-80.7c-1.8,13-4.4,29.4-6.8,30.5c-0.6,0.3-1.2,0.5-1.8,0.8
						c-0.1,0-0.2,0.1-0.3,0.1c-0.1,0-0.2,0.1-0.3,0.1c0,0,0,0-0.1,0c-0.1,0-0.2,0.1-0.3,0.1c-0.2,0.1-0.3,0.1-0.5,0.2
						c-0.7,0.2-1.4,0.4-2.2,0.6c-0.1,0-0.3,0.1-0.4,0.1c-0.1,0-0.3,0.1-0.4,0.1c-0.2,0-0.3,0.1-0.5,0.1c-0.3,0.1-0.6,0.1-1,0.1
						c-0.1,0-0.2,0-0.3,0c-0.2,0-0.4,0.1-0.5,0.1c-0.2,0-0.5,0.1-0.7,0.1c0,0-0.1,0-0.1,0c-8.7,0.9-19.5,1.2-21.4-1.1
						c-0.2-0.2-0.3-0.5-0.3-0.8c0-4.6,5.4-53.4,4-69.6c-0.5-6,1.4-11.8,3.5-17.5c0.5-1.5,1.2-3,1.8-4.4c3.1-6.7,7.8-12.6,13.5-17.3
						c3.2-2.6,6.9-5.2,10.7-7.3c4.8-2.7,9.9-4.7,15.1-5.4c0.9-0.1,2.7-0.1,5.2-0.1c1.8,0.1,3.9,0.1,6.3,0.3c0.1,0,0.3,0,0.4,0
						c9,0.5,21,1.5,29.8,2.3c5.4,0.5,9.7,1,11.3,1.3c1.3,0.2,3,0.4,4.9,0.6c2.5,7.3,9.9,23.7,15.4,35.5c2.9,6.3,5.3,11.3,6.1,12.9
						c0.1,0.1,0.1,0.2,0.1,0.3c0,0,0,0,0,0c0,0.1,0,0.1,0.1,0.1c0,0.1,0,0.1,0,0.1c1.5,5.5,8.2,19.7,10.1,24
						c6.9,15,14.8,26.2,28.2,35.6c0.4,0.2,0.7,0.5,1.1,0.8h0l0,0C430,364.6,430.1,364.6,430.1,364.7z"/>
				</g>
				<g>
					<path class="st6" d="M371.2,407.2c-4.6,12-6.2,22.8-6.2,22.8l-11.3-8.2c-21.9-11.7-42.5-48.3-53.5-80.7
						c-1.8,12.9-4.4,29.4-6.8,30.5c-2.3,1.1-5,2-9.5,2.5c-1.2-3.8-1.6-7.4-0.9-10.5c1-4.4,1.8-8.8,2.6-13.2
						c2.3-12.8,5.6-25.8,7.8-38.7c1.2-6.7,2-13.4,2.4-20.2c0.1-1,1.1-11.2,2-10.6c1.6,1.2,2.2,6.5,2.6,8.2c1.7,7,3,14.2,4.4,21.3
						C315.8,369.3,371.2,407.2,371.2,407.2z"/>
				</g>
				<g>
					<path class="st6" d="M384.2,290.7c2.9,6.3,5.3,11.3,6.1,12.9C389.3,301.7,385.9,294.9,384.2,290.7z"/>
				</g>
				<g>
					<path class="st6" d="M539.5,227.8c0.3-0.4,0.3-1-0.1-1.3l0.8,0.6C540.2,227.1,539.9,227.4,539.5,227.8z"/>
				</g>
				<g>
					<g>
						<g>
							<path class="st6" d="M286.6,367.8c0,0,5.4,7.5,10.9,9.4c5.5,1.9,10.6,4.7,7.1,7.1s-8-2.1-11.2-3.4s-11-8.1-12.1-9
								C280.2,370.8,286.6,367.8,286.6,367.8z"/>
						</g>
						<g>
							<path class="st6" d="M299.7,395c-2.8,0.7-1.7,3.6-3.9,3.9c-2.2,0.4-2.9,2.2-4.3,2.8c-1.4,0.6-1.9-0.4-4.1,1.4
								c-2.1,1.8-3.6,2.3-6.5,1.5c-0.4-0.1-0.9-0.4-1.4-0.9c-3.7-3.1-10.4-13.3-14.4-20.3c-4.6-8.2-1.5-13-1.5-13
								c4.7-6.5,22-6,26.1,0.6c0.8,1.3,5,5.8,8.9,10.2c3.4,3.9,6.5,7.5,6.5,8.5C305,391.7,302.5,394.4,299.7,395z"/>
						</g>
					</g>
					<g>
						<path class="st6" d="M299.7,395c-2.8,0.7-1.7,3.6-3.9,3.9c-2.2,0.4-2.9,2.2-4.3,2.8c-1.4,0.6-1.9-0.4-4.1,1.4
							c-2.1,1.8-3.6,2.3-6.5,1.5c-0.4-0.1-0.9-0.4-1.4-0.9c1.3-1.2,3-2.5,4.9-3.9c9.2-6.8,12.9-13.4,14.2-18.7
							c3.4,3.9,6.5,7.5,6.5,8.5C305,391.7,302.5,394.4,299.7,395z"/>
					</g>
				</g>
				<g>
					<path class="st6" d="M539.4,226.5l0.8,0.6c0,0-0.2,0.3-0.7,0.7C539.9,227.4,539.8,226.8,539.4,226.5z"/>
				</g>
			</g>
		</g>
		<g>
			<line class="st2" x1="204.3" y1="203.1" x2="256.2" y2="203.1"/>
			<line class="st2" x1="213.8" y1="228.6" x2="287.7" y2="228.6"/>
			<line class="st2" x1="198.1" y1="253.6" x2="273" y2="253.6"/>
			<line class="st2" x1="233.5" y1="203.1" x2="233.5" y2="228.6"/>
			<line class="st2" x1="255.9" y1="227.8" x2="255.9" y2="253.3"/>
		</g>
	</g>
</g>
<g id="Me">
	<g>
		<g>
			<path class="st7" d="M595.6,455.2c-1.9,0-4-3.2-6.1-7.1s-5.2-7.1-6-7.7c-0.8-0.6-2.7-0.3-0.4,1.1c2,1.2,3.7,3.7,5,5.6
				c1.5,2.3,3.7,5.2,4.4,7.9c0.5,1.8-0.6,2.6-2,3c-0.6,0.2-1.3,0.3-1.9,0c-0.6-0.3-1-1-1.3-1.6c-1.5-2.7-2.8-5.7-4.8-7.9
				c-1.7-1.9-3.8-3.3-5.9-4.6c-1.6-0.9-3.3-1.9-5-2.6c-0.9-0.4-3.4-1.8-4.3-1.4c-0.8,0.3,2.9,4.3,3.1,4.6c3.3,3.7,2.2,5.5,2.7,11.8
				c0.6,6.2-0.7,9-2.9,10.3c-2.2,1.2-3.7-2.2-3.8-4.3c-0.1-0.6-0.1-1.6-0.2-2.8c-0.3-3.5-0.8-8.7-1.5-11l0,0
				c-0.8-2.5-12.2-8.3-16.4-10.4c-1-0.5-1.5-0.7-1.5-0.7l0.2-5.6l11-3.3l18.9-1.4l0.7-0.1l0.4,0.4l11.8,11.1c0,0,0.5,0.9,1.3,2.3
				c2.2,3.9,6.5,11.4,7,12.6C598.5,455,597.5,455.2,595.6,455.2z"/>
			<path class="st8" d="M597.9,436.8c0,0-1.8-2.4-3.5-3.4c-1.7-1-7.4-8.1-10.5-10.5c-3.1-2.4-2.9-3.5-24.7-1.9
				c-21.8,1.6-51.6,4.2-57.1,6.5c-4.2,1.7-12,8.5-16.3,12.5l-30.3,26.4l16.6,13.8l9.8,8.1l26.2-28.2c2.9-3.7,5.8-6.7,7.4-6.9
				c4-0.5,9.9,3.4,14.4,2.8c4.5-0.6,30.6,1.7,36,3.4c0.1,0,0.2,0.1,0.3,0.1c4.7,1.8,6-0.7,5.3-2.7c-0.7-2-3-7-7.1-8.4
				c-4-1.4-9.4,0-12.2-3.9c-2.8-4-5.5-5.4-4.9-6.1c0.1-0.1,0.3-0.2,0.7-0.4c4-1.8,22.6-8,25.1-7.7c2.9,0.4,13.7,7.6,17.6,10.3
				c0,0,0,0,0,0c2.7,1.8,6.4,1.9,7.5,0.1C599.1,439.9,599,438.6,597.9,436.8z"/>
			<path class="st9" d="M589.9,433.9c-4.7-3.3-8.5-5.4-12-6.6c-0.4-0.1-0.7-0.3-1.1-0.4c-7.3-2.2-14-0.7-27.9,2.2
				c-13.1,2.7-25.5,10.2-37,16.8c-4.9,2.8-10.1,5.6-14.5,9.2c-4.8,4-9.6,8.1-14.1,12.4c-4,3.8-8.5,7.9-11.2,12.7l9.8,8.1l26.2-28.2
				c2.9-3.7,5.8-6.7,7.4-6.9c4-0.5,9.9,3.4,14.4,2.8c4.5-0.6,30.6,1.7,36,3.4c0.1,0,0.2,0.1,0.3,0.1c4.7,1.8,6-0.7,5.3-2.7
				c-0.7-2-3-7-7.1-8.4c-4-1.4-9.4,0-12.2-3.9c-2.8-4-5.5-5.4-4.9-6.1c0.1-0.1,0.3-0.2,0.7-0.4c4-1.8,22.6-8,25.1-7.7
				c2.9,0.4,13.7,7.6,17.6,10.3c0,0,0,0,0,0c2.7,1.8,6.4,1.9,7.5,0.1C595.9,438.4,593,436.1,589.9,433.9z"/>
		</g>
		<g>
			<path class="st10" d="M498.1,456.5c-2.6,1.5-3.5,5.4-6.1,8.1c-9.1,9.6-19.6,23.5-29.2,33.6c-32.8,34.8-68.9,77.3-117.3,86.1
				c-10.7,1.9-24.9-1.2-35.7-2.7c-12.1-1.6-23.4-2.2-35.4-2.4c-2.6,0-33.9-6.4-34.2-4.9c-0.1,0.6-4-0.5-2.8,2.5
				c-0.9-2-1.9-4.2-2.9-6.4c-13.8-1.1-72.5-5.7-92.8-7.1c-7.5-24,9.1-51.1,11-52.2c3.6-2.2,58,3.4,58,3.4c10.7,1,24.2,1.5,24.5,1.5
				c14.3,0.5,29-1.6,43.4-1.8c17.4-0.3,34.8,0.2,52.1,1.5c13.8,1,27.1,2.1,39.6-4.8c36.6-20.1,71.8-44.3,106-68.3
				c0.5-0.3,3.3-2.1,5-3.1c0.7-0.4,1.5-0.3,2,0.3l1.1,1.3L498.1,456.5z"/>
			<path class="st11" d="M509.7,467.5c-0.4,0.4-0.9,1-1.5,1.6c-0.3,0.3-0.6,0.7-1,1c-0.7,0.7-1.5,1.6-2.3,2.5
				c-0.2,0.2-0.4,0.4-0.6,0.7c-3.9,4.3-9.3,10.1-15.2,16.6c-0.4,0.4-0.8,0.9-1.3,1.4c-4.8,5.2-9.9,10.7-14.9,16.2
				c-0.4,0.5-0.9,1-1.3,1.4c-0.3,0.3-0.7,0.7-1,1.1c-0.5,0.5-1,1-1.4,1.5c-2.8,3.1-5.6,6.1-8.2,8.9c-0.5,0.5-0.9,0.9-1.3,1.4
				c-1,1.1-1.9,2.1-2.9,3.1c-1.9,2-3.6,3.9-5.3,5.7c-0.1,0-0.1,0.1-0.2,0.2c-0.4,0.4-0.7,0.7-1,1.1c-2.7,2.9-5,5.3-6.6,7
				c-10.3,11-28.3,22.5-39.6,32.6c-12,10.8-25.9,20.3-41.2,25.6c-14.5,4.9-29.6,3.9-44.7,3.4c-22-0.7-47.9-2.1-69.9-0.2
				c0,0,0-0.1-0.1-0.2c0-0.1-0.1-0.1-0.1-0.2c0,0,0-0.1,0-0.1c-73.7,4.2-99.8-14.9-106.5-36.5c20.3,1.4,79,6,92.8,7.1
				c1.9,0.1,2.9,0.2,2.9,0.2l0,0c7.2-0.2,33,2.8,35.2,2.8c12,0.2,24.1,2.6,36.1,4.3c10.7,1.5,21.5,2.3,32.1,0.3
				c48.3-8.8,87.2-45.9,120-80.7c9.5-10.1,18.9-25.6,28.1-35.3c2.6-2.8,5.2-5.1,7.8-6.6l9,6.8l3.7,2.8
				C510.3,465.7,510.4,466.8,509.7,467.5z"/>
		</g>
		<g>
			<path class="st8" d="M710.1,887.1c0.8,0,1.5,0.1,1.9,0.4c3.4,1.7,3.3,15.5,3.6,24.7c0.3,9.6,1.4,12.6-1.1,21.3
				c-1.8,6.2-10.9,22.8-18.1,32.5c-9-2.2-24.9-2.3-36-14.4l-1.3-0.8c-3.9-4.3-7.1-7.2-12.9-9.4c-0.1,0.4-0.5,0.1-0.6,0.5l0,0
				c0,0.1,0,0.2-0.1,0.3c-0.1,0.4-0.2,0.8-0.3,1.2c-1,4.1-2.4,8.6-4.4,12c-6.7,0.2-11-2.1-11-2.1l1.8-10.3l1-5.6l3.4-19.3l0.6-3.4
				c2.7,1.6,5.4,3.2,8.1,4.9c0,0,0,0,0,0c0.6,0.4,1.3,0.8,1.9,1.2c2.6,1.6,5.3,3.1,7.9,4.7c3.5,2.1,6.9,4.2,10.4,6.2
				c5.9,3.5,12.6-0.4,18.3-3c3.6-1.6,9.2-3.7,10.9-7.6c1.6-3.7,1.3-8.4,1-12.3C693.9,892.1,704.9,887.1,710.1,887.1z"/>
			<path class="st9" d="M645.6,941.9c0,0.1,0,0.2-0.1,0.3c-0.1,0.4-0.2,0.8-0.3,1.2c-1,4.1-11,8-12.9,11.4c5,0.5,16.9,1.7,25.7,3.9
				c14.5,3.6,24.2,17.1,31.3,14.3c0.6-0.2,2.2-1.7,3.8-3.4l0.6-0.6l1.1-1.2l0.5-0.6c0.7-0.7,1.3-1.4,1.7-1.8
				c-9-2.2-25.3-3.1-36.4-15.2l0,0c-3.9-4.3-9-7.3-14.8-9.5C645.8,941,645.7,941.4,645.6,941.9z"/>
		</g>
		<g>
			<path class="st8" d="M532,922.7c0.1,1,0,1.8-0.2,2.3c-1.7,4.2-18.2,5.6-29.2,6.9c-11.4,1.4-15,3.1-25.7,0.9
				c-7.6-1.5-27.6-9.9-39.9-17.6c1.7-10.9,1-30.6,14.4-45.2l0,0c4.7-5.2,7.9-11.5,9.8-18.7c-0.5-0.1-1-0.2-1.6-0.2l0,0
				c-0.1,0-0.3,0-0.3,0c-0.5-0.1-0.9-0.2-1.4-0.2c-5.1-0.8-10.6-2-14.8-4c-1-8-3.5-13.8-3.5-13.8l17.4,1.6l6.9,0.6l23.5,2.1l4.2,0.4
				c-1.7,3.4-3.3,6.8-5,10.2c0,0,0,0,0,0c-0.4,0.8-0.8,1.6-1.2,2.5c-1.6,3.3-3.2,6.6-4.8,9.9c-2.1,4.4-4.3,8.8-6.4,13.1
				c-3.6,7.5,1.8,15.1,5.5,21.6c2.3,4.1,5.4,10.6,10.2,12.3c4.6,1.6,10.1,0.7,14.8-0.1C524.4,903.8,531.5,916.5,532,922.7z"/>
			<path class="st9" d="M459.7,851.2c-0.1,0-0.2,0-0.3-0.1c-0.5-0.1-0.9-0.2-1.4-0.2c-5.1-0.8-10.6-2-14.8-4
				c0.8,6.2,0.7,13.6-2.1,20.9c-6.4,16.7-18,30.8-13.8,39c0.3,0.7,2.3,2.4,4.5,4.1l0.8,0.6l1.5,1.2l0.7,0.6c1,0.8,1.8,1.4,2.3,1.8
				c1.7-10.9,1-30.6,14.4-45.2l0,0c4.7-5.2,7.9-11.5,9.8-18.7C460.8,851.4,460.2,851.3,459.7,851.2z"/>
		</g>
		<g>
			<path class="st12" d="M538.7,615.6c-2.4-20.9-12.3-38-38-42.2c-22.1-3.7-51.3,17.9-68.4,30.3c-19.2,13.9-35.9,30.7-52.5,47.5
				c-18.9,19.3-39.9,34.9-61.5,55.3c0,0-26.3-4.1-26.3-4.1l-52.3,10.8l39.4,36.4l31.3,11.4l49.2,27.6l0.7,0.4l10.6,5.9l2.9,1.7
				l10.9,6.1c0,0,2.1-2.4,5.3-6.1c0.5-0.5,0.9-1.1,1.4-1.7c5.6-6.4,13.7-15.4,21-22.6c0.9-0.9,2-2.1,3.2-3.6
				c0.6-0.7,1.2-1.5,1.9-2.4c1.5-1.9,3.1-4.2,4.8-6.6c0.5-0.7,1-1.4,1.5-2.1c2.8-4.1,5.9-8.7,8.8-13.1c9.6-14.6,18.4-28.6,17.8-25.7
				c0,0.1,0,0.2-0.1,0.4c0,0.2-0.1,0.2-0.1,0.2l-0.5,1.7c-0.1,0.5-0.2,1-0.4,1.5c1.6-2.2,2.5-3.2,2.4-2.2c0,0.1,0,0.2-0.1,0.4
				c0,0.2-0.1,0.2-0.1,0.2l-0.5,1.8c-0.4,1.4-0.7,3.2-1.1,5.2c-0.3,1.6-0.6,3.3-0.8,5.2c0,0.5-0.1,1-0.2,1.5
				c-2.4,20.4-3.5,54.8-3.9,69.4v0.4c0,0.9,0,1.7-0.1,2.5c0,2.6-0.1,4.1-0.1,4.1s0,0,0.1,0.1c0.7,0.5,3.4,2.7,7.2,5.8
				c12.6,9.9,37.5,28,41.7,18.3c1.3-3,2.2-6.2,3.2-9.3c14.2-44.1,24.3-90.1,32.9-135.5C534.1,670.1,541.6,640.2,538.7,615.6z"/>
			<path class="st13" d="M478.2,627.1c3.3-1.9,2,2.5,1.6,4.2c-1.1,5.1-2.2,10.3-3.1,15.5c-1.8,11.1-2.9,22.2-5,33.2
				c-3.9,20.9-8.1,41.7-13,62.4c-6.9,29.5-6.4,72.5-6.4,74.6c-3.8-2.4-6.6-5.2-7.2-5.8c-0.1-0.1-0.1-0.1-0.1-0.1s0-1.5,0.1-4.1
				c0-0.7,0.1-1.5,0.1-2.5v-0.4c0.4-14.6,1.5-49,3.9-69.4c0.1-0.5,0.1-1,0.2-1.5c0.2-1.9,0.5-3.7,0.8-5.2c0.3-2,0.7-3.8,1.1-5.2
				l0.5-1.8c0,0,0,0,0.1-0.2c0.1-0.2,0.1-0.3,0.1-0.4c0.2-1-0.7,0-2.4,2.2c-3.2,4.4-9.2,13.8-15.5,23.4c-2.9,4.4-6,9-8.8,13.1
				c-0.5,0.7-1,1.4-1.5,2.1c-1.7,2.4-3.3,4.7-4.8,6.6c-0.6,0.9-1.3,1.6-1.9,2.4c-1.2,1.5-2.2,2.7-3.2,3.7
				c-7.3,7.1-15.4,16.2-21,22.5h-20.5l-10.5-3.1l-0.8-3.2l-0.6-1.2l-39.7-32.1c50.6,8.9,87-30.7,107.9-56.1
				c9.3-11.3,18.3-23.6,26.1-36.3c4.2-6.8,7.5-14,11.4-21c2-3.5,4.1-6.9,6.5-10.1C474,631.6,476,628.4,478.2,627.1z"/>
		</g>
		<g>
			<path class="st12" d="M648.6,941.1c-0.1,0.4-0.2,0.8-0.4,1.2c-3,9.1-9.4,16.4-22.7,12.3c-56.3-17.1-114.4-28.3-171.4-42.4
				c-46.1-11.3-91.9-23.9-137.3-37.7c-43.7-13.3-80.4-33.6-118.2-59.3l-0.5-11.7l-0.8-17.4l0-0.6l-1.1-23.9L196,757l29.2-43.5
				l140.8,64c0,0,69.1,29.1,121.4,55.2c52.3,26,163.3,84.7,163.3,84.7S651.9,930.3,648.6,941.1z"/>
		</g>
		<path class="st13" d="M648.6,941.1c-0.1,0.4-0.2,0.8-0.4,1.2c-3,9.1-9.4,16.4-22.7,12.3c-56.3-17.1-114.4-28.3-171.4-42.4
			c-46.1-11.3-91.9-23.9-137.3-37.7c-43.7-13.3-80.4-33.6-118.2-59.3l-0.5-11.7l-0.8-17.4l0-0.6l17.6-4.5c0,0,70.4,50.1,127.2,65.8
			c77.8,21.5,87.5,38.1,153.8,55.2C562.2,919.3,648.6,941.1,648.6,941.1z"/>
		<g>
			<path class="st8" d="M111.8,370.4c0,0-2.3,17.3,3.7,24.1c6.1,6.8,6.5,16.9,10,20.9c3.4,3.9,4,16.2,7.5,19.5
				c3.5,3.3,14.2,18.3,27.5,19.8c13.3,1.5,40.1-8,44.6-11.4c4.4-3.4,7.5-4.2,5.6-8.6c-1.8-4.4-17.6-34.7-20.5-43.9
				c-2.9-9.2,0.2-17.8-5.7-21.4C178.6,365.8,128.7,343.9,111.8,370.4z"/>
			<path class="st9" d="M115,419.9c-2,1.3-3.4,3.4-3.8,5.7c-0.5,3,1.3,7.2,2.1,10.1c1.5,5.5,2,10.3,7,13.7c5.4,3.7,4.8,11.2,2,17.3
				c-0.5,1.2-1.4,2.6-2.4,4.1c0,0,0.7,1.9,0.4,4.8c-0.8,8.7,0.1,32.2-9.3,42.3c0.6-0.3,1.8-0.8,2.5-0.8c0,0,9.6-0.7,9.6-0.7
				c0.6,0,2.1-2.9,2.4-3.3c1.6-2.6,3-5.4,3.9-8.3c1-3.3,0.4-7,1.2-10.3c2.8-12.9,8.6-25.6,1.7-38.2c-6.3-11.4-8.9-24.1-14.4-38.3
				C116.8,418.4,115.8,419.3,115,419.9z"/>
			<path class="hairShadow_x0020_3" d="M99.8,339.5c0.3-4.7,1.1-9.5-1.2-14.1c-2.5-5.2-13.7-8.2-23.1-7.8
				c-9.3,0.4-9.7,11.6-8.6,21.5c0.7,6.2,1.9,8.3,7.2,9.8c3.6,1,9.5,2.2,13.7,4.6c-0.1,0-0.2,0.1-0.3,0.1c-1.7,0.7-3.2,1.9-4.3,3.3
				c-1,1.4-1.8,3.1-1.7,4.8c1.9-2.7,4.5-4,7.2-4.5c0.3-0.1,0.7-0.1,1-0.2c0.3,0,0.7-0.1,1-0.1c0.3,0,0.5,0,0.8,0
				c0.1,0.2,0.3,0.5,0.4,0.7c0.3,0.5,0.5,1.1,0.6,1.7c0.6,3.3-2.5,8.7-4.3,10.8c-2.1,2.4-4.9,5-6,8.1c-1.2,3.2-0.1,6.4,0.1,9.6
				c0.4,4.2-0.7,8.4-0.8,12.7c-0.2,6.2,1.9,12.1,5.5,17.1c3.9,5.5,10.3,9.3,13.3,15.4c0.1,0.1,0.1,0.3,0.2,0.4
				c1.2,2.7,1.7,5.8,2.5,8.6c1.7,6.5,7.2,10.1,10.6,15.7c1.6,2.7,1.8,7.5,2,10.6c0.2,4.2-2.1,10.7-4.1,11.8c2.1-1.1,5.8-5.4,8.4-9.4
				c1-1.5,1.8-2.9,2.3-4c2.8-6.2,3.4-13.6-2-17.3c-5-3.5-5.5-8.2-7-13.7c-0.8-3-2.6-7.1-2.1-10.1c0.4-2.3,1.9-4.3,3.9-5.6
				c0.9-0.6,1.8-1,2.8-1.3c0,0,0-0.1,0-0.1c0-0.2-0.3-1-0.4-1.2c-0.7-2.7-0.2-5.4-0.9-8.2c-1.8-6.8-6.2-12.4-10.1-18
				c-3.3-4.8-4.8-10.1-3.6-15.7c1-5.1,3.6-9.6,5.7-14.2c2.3-4.9,3.6-10.2,5.6-15.2c-1.2,0.1-2.4,0.4-3.5,1.1c-2,1-4.6,2.8-7.1,2.5
				c0.6-0.9,1.1-1.9,1.5-2.8c1.3-3.2,1.7-6.7,0.8-9.9c-1.1,3.1-2.5,5.8-4.1,8.2c-0.5,0.7-1,1.3-1.5,1.9
				C99.3,344.7,99.7,341.5,99.8,339.5z"/>
			<path class="st8" d="M127.1,421.4c0.1,0.1,0.3,0.5,0.3,0.6c1.4,2.8,1.6,5.6,2,8.6c0.4,3.4,2.2,5.5,4,8.4
				c4.7,7.5,10,14.8,16.6,20.8c0.5,0.5,1,1,1.5,1.5c0.2,0.2,0.3,0.3,0.4,0.5c0.1,0.1,0.2,0.1,0.2,0.2c1.7,2,3.3,4,6,4.4
				c0.6,0.1,6.1,2.7,7.7,5.1c0.5,0.7,0.6,1.4,0.2,1.9c0,0-1.7,4.8-2.1,11.4c-0.1,1.3-0.1,2.7-0.1,4.2c0,1.1,0.5,2.4,1.1,3.8
				c0.6,1.2,1.4,2.5,2.3,3.9c0.1,0.2,0.3,0.4,0.4,0.6c4.2,5.9,10.9,12.5,15,16.3c-1.5-0.6-3-1-4.4-0.9l-36.4,2.5l-18.8,1.3
				c2.6-3.7,4.7-8.1,5.7-12.5c0.7-3.6,0.5-7.3,1.4-10.9s2-7.1,3.1-10.6c1.7-5.8,2.7-12.3,0.8-18.1c-3.8-11.8-14.5-33.3-16.1-45.6
				c0,0,0,0,0,0c0,0,0-0.1,0-0.1c0-0.1,0-0.1,0-0.2c0,0,0,0,0,0c0,0,0,0,0-0.1l-0.2-0.5c2.6-0.8,6.2-0.2,8.4,1.9
				C126.5,420.1,126.8,420.9,127.1,421.4z"/>
			<path class="hairShadow_x0020_3" d="M216.3,453.8c0.1,0.4,0.2,0.8,0.3,1.2c1.2,5.4,1.5,10.9,0.1,16.3c-0.3,1-0.4,1.9-0.5,2.7
				c-0.5,0.2-1.1,0.3-1.7,0.5c-4.8,1.1-10.2,1.2-14.1,0.5c-0.6-0.1-1.1-0.2-1.6-0.3c-13.8-3.6-19,0.3-28.5-0.6
				c-0.5,0-0.9-0.1-1.4-0.1c-1-0.1-2-0.2-3-0.4c-1.8-0.8-3.8-2-6-3.4c-0.4-0.3-0.9-0.6-1.3-0.9c-0.2-0.2-0.5-0.3-0.7-0.5
				c-0.1-0.1-0.2-0.2-0.4-0.2c-0.3-0.2-0.6-0.4-0.8-0.6c-1.1-0.8-2.2-1.6-3.3-2.5c-0.5-0.4-1-0.8-1.5-1.3c-2.1-1.8-4.2-3.7-6-5.6
				c0,0,0,0,0,0c0,0,0.1,0,0.1,0.1c0.1,0.1,0.2,0.1,0.3,0.2c0.8,0.4,2.7,1.5,5.1,2.6c0.1,0.1,0.3,0.1,0.4,0.2
				c5,2.2,11.7,4.6,15.2,2.7c5.9-3.2,21.7-2.9,32.1-0.6c2.5,0.6,3.5-0.4,8.8-3.8C210.5,458.1,213.4,456,216.3,453.8z"/>
			<path class="hair_x0020_3" d="M181.2,364.6c1.2,3.3,1.6,5.9,1.7,8.6c-0.3,0-0.6,0-0.9,0c-0.1,0-0.3,0-0.4,0
				c-0.2,0-0.4-0.1-0.6-0.1c-1.4-0.2-2.8-0.6-4.1-1.1c-1.5-0.6-2.9-1.2-4.2-1.9c-0.5-0.2-0.9-0.5-1.4-0.6c-0.2-0.1-0.5-0.2-0.7-0.3
				c-0.2-0.1-0.5-0.2-0.7-0.2c-0.3-0.1-0.6-0.2-0.8-0.2c-0.3-0.1-0.6-0.1-0.9-0.2c-0.2,0-0.4-0.1-0.7-0.1c-0.1,0-0.1,0-0.2,0
				c-0.3,0-0.6-0.1-0.9-0.1c-1-0.1-1.9-0.1-2.9-0.1c-0.3,0-0.6,0-0.9,0.1c-0.9,0.1-1.8,0.2-2.8,0.4c-5.1,1.1-7.7,5.4-12.5,7.1
				c-2.8,1-6-0.1-8.9-0.5c-4.3-0.6-17.4,2.1-17.3,7.4c0.1,4.1,6.2,8.4,9.4,11.1c0.2,0.2,0.4,0.3,0.6,0.5c8,6.9-1.8,10.3-3.8,15.5
				c-1.6,4.5,4.1,8.1,6,11.5c0.2,0.3,0.3,0.5,0.4,0.8c0,0.1,0.1,0.2,0.1,0.3c2.4,4.9,2.4,10.4,5.8,14.9c0.2,0.2,0.3,0.5,0.5,0.7
				c2.8,3.6,5.9,5.9,9.1,7.2c0,0,0,0,0,0c5.3,2.2,11,2.1,17.1,1.8c3.2-0.2,6.5-0.4,9.8-0.4c0.1,0,0.1,0,0.2,0c7,0,12.8-1.7,18.8-5
				c0.4-0.2,0.8-0.5,1.2-0.7c0.1-0.1,0.3-0.2,0.5-0.3c0.9-0.5,1.9-1.1,2.9-1.8c0.1,0,0.2-0.1,0.3-0.2c0.8-0.5,1.7-1.1,2.6-1.8
				c0.6-0.4,1.2-0.8,1.9-1.3c0.1,0,0.2-0.1,0.2-0.2c0.2-0.1,0.3-0.2,0.5-0.2c1.1-0.5,2.4-0.7,3.8-0.6c1,2.3,2,4.6,3,6.8
				c1.7,4,3.4,8.2,4.4,12.5c0.1,0.4,0.2,0.8,0.3,1.2c-2.8,2.3-5.7,4.1-8.2,5.7c-3.7,2.4-8.2,5-12.7,5.2c-4.5,0.2-9.1-0.7-13.5-1.1
				c-3.9-0.4-8.2-0.9-12.1,0.2c-0.4,0.1-0.8,0.2-1.2,0.4c-2.7,1.1-4.8,1.2-7.6,0.5c-2.4-0.6-4.8-1.7-7-2.7c-0.7-0.4-1.5-0.7-2.2-1.1
				c-0.1,0-0.1-0.1-0.2-0.1c-1.9-1-3.7-2-5.5-3.2c-0.1-0.1-0.2-0.1-0.3-0.2c0,0-0.1,0-0.1-0.1c0,0,0,0,0,0c-1.7-1.7-3.1-3.4-4.3-5
				c-0.2-0.3-0.3-0.5-0.5-0.8c-0.2-0.4-0.5-0.7-0.8-1.1c-0.5-0.6-0.9-1.2-1.4-1.8c-0.2-0.2-0.3-0.4-0.5-0.6
				c-4.7-5.3-10.4-9.4-10.7-17.3c0-0.1,0-0.2,0-0.4c0,0,0-0.1,0-0.1c0-3.2,0.7-6.5-0.7-9.3c-0.1-0.1-0.1-0.2-0.2-0.3
				c-0.3-0.5-0.7-1-1.2-1.5c-2.1-2.1-5-2.4-7.6-1.7c0,0-0.1,0-0.1,0l0,0c0,0,0,0,0,0c0,0,0-0.1,0-0.1c0-0.2-0.1-0.3-0.1-0.4
				c-0.1-0.4-0.2-0.7-0.3-1.1c-0.1-0.5-0.2-1.1-0.3-1.6c0-0.4-0.1-0.7-0.2-1.1c-0.1-0.4-0.1-0.7-0.2-1.1c-0.1-0.4-0.1-0.7-0.2-1.1
				c-0.6-2.2-1.3-4.4-2.2-6.5c-1.8-4.2-4.2-8.2-7.4-11.5c-9.2-9.4-7.4-26.7-1.2-33.3c2.7-2.9,6-8.6,8.4-14.8
				c2.4-0.3,4.9,0.3,7.5,0.8c4.9,1,9.4-0.3,13.6-2.4c7.2-3.7,12.5-7.2,20.8-6.3c0.2,0,0.5,0.1,0.7,0.1c1.2,0.5,2.5,1.1,3.7,1.7
				C169.9,344.7,177.7,354.7,181.2,364.6z"/>
			<path class="lightBeard_x0020_3" d="M222.5,448.9c0.5,2.5,0.8,5,1.2,7.5c0.4,2.2,1.9,7.9,1.4,10c-0.8,3.7-4.4,6.2-8.9,7.5
				c0.1-0.8,0.2-1.7,0.5-2.7c1.4-5.4,1.1-10.9-0.1-16.3C218.7,453.3,220.8,451.3,222.5,448.9z"/>
			<path class="lightFront_x0020_3" d="M213.5,435.4c-0.3-0.1-0.5-0.2-0.8-0.2c-1.2-0.4-2.6-0.6-3.9-0.7c1,2.3,2,4.6,3,6.8
				c1.7,4,3.4,8.2,4.4,12.5c0.1,0.4,0.2,0.8,0.3,1.2c2.1-1.7,4.2-3.7,6-6.1c-0.2-1.2-0.5-2.5-0.8-3.7
				C220.5,440.7,218.1,436.8,213.5,435.4z"/>
			<path class="lightFront_x0020_3" d="M196.3,349.9c0.3,0.3,0.5,0.6,0.6,0.9c0.3,0.6,0.6,1.2,0.7,1.9c0.3,1.4,0.2,2.8,0,4.2
				c-0.2,0.9-0.4,1.8-0.7,2.7c-1.4,3.6-2.5,8.3-5.6,10.9c-0.7,0.6-1.4,1-2.2,1.4c0,0-0.1,0-0.1,0c-1.5,0.6-3.2,0.9-4.7,1.1
				c-0.3,0-0.5,0.1-0.8,0.1l-0.4,0c0,0-0.1,0-0.1,0c-0.1-2.7-0.5-5.2-1.7-8.6c-3.5-9.9-11.2-19.9-20.7-24.6
				c-1.2-0.6-2.4-1.2-3.7-1.7c3.5,0.4,7,1.3,10.3,2.6c3.7,1.4,7.1,3.5,10.1,6c0.1,0.1,0.2,0.1,0.2,0.2c2.4,2.1,5,4.4,8.1,5.1
				c3.2,0.7,6.2-0.6,8.8-2.3c0.3-0.2,0.7-0.5,1.1-0.5C195.8,349.5,196,349.7,196.3,349.9z"/>
			<path class="lightSkin_x0020_3" d="M189,372c0,0.1,0.1,0.1,0.1,0.2c1.2,2.8,3.4,8.6,3.6,12.8c0.3,5.6,10.6,11.3,14.6,15.2
				c6.3,6.1-2.8,6.4-2,13.9c0.7,6.1,5.6,17.2,7.4,21.1c-1.2-0.4-2.6-0.6-3.9-0.7c-3.9-9-8.2-18.1-13.8-25.9
				c-4.5-6.3-10.2-11.3-11.3-19.4c-1.1-7.7-0.7-12-0.9-16c0,0,0.1,0,0.1,0l0.4,0c1.9,0,3.8-0.4,5.5-1.1C189,372,189,372,189,372z"/>
		</g>
		<path class="st10" d="M318,706.6c0,0-20.5,5.4-58.8,21.4c-0.3,0.1-0.7,0.3-1,0.4c-0.8,0.3-1.6,0.7-2.4,1
			c-20.1,8.5-33,31-40.9,51.6c-0.5,1.3-1,2.6-1.4,3.9c-0.4,1-0.7,1.9-1,2.9c-2.1,6-3.7,11.7-4.9,16.6c-0.2,1-0.5,2-0.7,2.9
			c-0.4,1.5-0.7,2.9-1,4.2c-0.1,0.4-0.2,0.8-0.3,1.2c-0.3,1.5-0.6,2.8-0.8,3.9c0,0.2-0.1,0.5-0.1,0.7c0,0,0,0,0,0
			c-0.1,0.4-0.1,0.8-0.2,1.1c0,0.2-0.1,0.4-0.1,0.6c0,0.2,0,0.3-0.1,0.4c0,0.1,0,0.3-0.1,0.4c0,0,0,0,0,0c0,0.1,0,0.2,0,0.3
			c-0.1,0.5-0.1,0.8-0.1,0.8l-19.7-14.3C146,786.3,109.9,722,90.6,665.4c-3.2,22.7-7.7,51.5-11.9,53.5c-1,0.5-2,0.9-3.1,1.3
			c-0.2,0.1-0.4,0.1-0.6,0.2c-0.2,0.1-0.4,0.2-0.6,0.2c0,0-0.1,0-0.1,0c-0.2,0.1-0.4,0.1-0.6,0.2c-0.3,0.1-0.6,0.2-0.8,0.3
			c-1.2,0.4-2.5,0.7-3.8,1c-0.2,0.1-0.5,0.1-0.8,0.2c-0.3,0-0.5,0.1-0.8,0.2c-0.3,0-0.5,0.1-0.8,0.1c-0.5,0.1-1.1,0.2-1.7,0.3
			c-0.2,0-0.4,0-0.5,0.1c-0.3,0-0.6,0.1-0.9,0.1c-0.4,0-0.8,0.1-1.3,0.1c-0.1,0-0.1,0-0.2,0c-15.3,1.6-34.1,2.2-37.4-2
			c-0.3-0.4-0.5-0.9-0.5-1.4c0-8.1,9.4-93.6,7-121.9c-0.9-10.5,2.5-20.6,6.1-30.7c1-2.7,2-5.3,3.2-7.8c5.5-11.7,13.6-22.1,23.7-30.2
			c5.7-4.6,12-9,18.7-12.8c8.4-4.7,17.3-8.2,26.5-9.4c1.6-0.2,4.8-0.2,9-0.1c3.1,0.1,6.9,0.3,11,0.5c0.2,0,0.5,0,0.7,0
			c15.7,0.9,36.8,2.6,52.2,4.1c9.5,0.9,17,1.7,19.7,2.2c2.3,0.4,5.3,0.8,8.6,1c4.3,12.9,17.3,41.6,26.9,62.2
			c5.1,11,9.3,19.8,10.6,22.6c0.1,0.2,0.2,0.3,0.2,0.5c0,0,0,0.1,0,0.1c0,0.1,0.1,0.2,0.1,0.2c0,0.1,0.1,0.2,0.1,0.2
			c2.7,9.5,14.3,34.6,17.7,42c12,26.2,25.8,46,49.3,62.4c0.7,0.4,1.3,0.9,2,1.3h0l0,0C317.8,706.5,317.9,706.5,318,706.6z"/>
		<path class="st11" d="M214.8,781.1c-8,21-10.8,39.9-10.8,39.9l-19.7-14.3C146,786.2,109.9,722,90.6,665.4
			c-3.2,22.7-7.7,51.5-11.9,53.5c-4.1,1.9-8.7,3.6-16.6,4.3c-2-6.6-2.8-13-1.6-18.5c1.7-7.7,3.1-15.4,4.5-23.1
			c4.1-22.4,9.8-45.1,13.7-67.8c2-11.7,3.5-23.5,4.2-35.4c0.1-1.8,2-19.6,3.6-18.5c2.9,2,3.9,11.4,4.6,14.4
			c3,12.3,5.3,24.8,7.6,37.3C117.7,714.7,214.8,781.1,214.8,781.1z"/>
		<path class="st11" d="M237.6,577.1c5.1,11,9.3,19.8,10.6,22.6C246.5,596.3,240.6,584.4,237.6,577.1z"/>
		<g>
			<g>
				<path class="st14" d="M66.7,712c0,0,9.4,13.2,19.1,16.5s18.6,8.2,12.5,12.5c-6.1,4.3-14.1-3.7-19.7-6s-19.3-14.1-21.2-15.8
					C55.5,717.4,66.7,712,66.7,712z"/>
				<path class="st8" d="M89.6,759.7c-4.8,1.2-2.9,6.3-6.7,6.9c-3.8,0.6-5,3.8-7.6,4.9c-2.5,1.1-3.4-0.8-7.2,2.4
					c-3.8,3.2-6.3,4.1-11.5,2.6c-0.7-0.2-1.5-0.7-2.5-1.6c-6.4-5.4-18.3-23.2-25.3-35.6c-8-14.3-2.7-22.8-2.7-22.8
					c8.3-11.3,38.6-10.5,45.8,1c1.4,2.2,8.8,10.2,15.5,17.8c6,6.8,11.4,13.2,11.4,14.9C99,753.9,94.5,758.6,89.6,759.7z"/>
			</g>
			<path class="st9" d="M89.6,759.7c-4.8,1.2-2.9,6.3-6.7,6.9c-3.8,0.6-5,3.8-7.6,4.9c-2.5,1.1-3.4-0.8-7.2,2.4
				c-3.8,3.2-6.3,4.1-11.5,2.6c-0.7-0.2-1.5-0.7-2.5-1.6c2.4-2.1,5.2-4.4,8.5-6.8c16.1-11.9,22.6-23.6,24.8-32.8
				c6,6.8,11.4,13.2,11.4,14.9C99,753.9,94.5,758.6,89.6,759.7z"/>
		</g>
	</g>
</g>
<g id="Client">
	<g>
		<g>
			<g>
				<path class="st9" d="M680.8,493.5c0,0-19.3,1.4-26.4,13.4c-1,2-2,3.9-2.9,5.9c-0.7,1.5-1.4,3.1-2,4.7c-0.5,1.3-1.6,3.3-0.7,4.6
					c1.1,1.6,3.1,2.7,4.5,1.1c1.9-2,13.1-18.1,13.1-18.1s-5,9.1-6.8,11.8c-1.5,2.2-3.3,5-3.1,7.8c0.2,2.3,2.1,3.6,4,2.1
					c2-1.6,5.1-6.9,6.6-8.7s5.5-5.7,11-2.7c-1.5,1.5-3,3.1-4.5,4.7c-1.2,1.3-1.7,3-2.3,4.6c-0.7,2.1-1.3,4.2-1.9,6.3
					c0,0.1-0.1,0.2-0.1,0.3c0,0.2,0.1,0.3,0.2,0.4c0.7,0.9,1.9,1.9,3.2,1.3c1.9-0.8,4.9-6.6,5.8-8c0.9-1.4,7.2-4.6,7.2-4.6
					s9.1,3.7,13,5c3.9,1.3,17.1,2.2,19.9,1.2c2.8-1-24.3-27-24.3-27L680.8,493.5z"/>
			</g>
			<path class="st8" d="M826.7,514l-8.9,37.2c-5.4-1.1-10.4-2.2-14.5-3.1c-5.9-1.3-10.1-2.3-11.5-2.6c-18.1-5-36.1-10.7-54.7-14.1
				c-6-1.1-12.1-2.1-18.2-2.4c-6-0.4-12.1,0-17.9-2c-6-2-11.8-5.1-16.7-8.8c-6.7-5.1-14.1-7.8-22-10.5c-5.2-1.8-15.2-6.3-10-12.5
				c0.1-0.2,0.3-0.3,0.6-0.4c2.8-1,11.4,2.7,19.3,5.2c8.7,2.8,10.5,1.3,10.7-0.8c0.2-2.1-15.1-12.7-16.9-13.7
				c-1.8-1-14.1-5.1-22.5-8.1c-1.8-0.6-3.4-1.7-3.7-3.9c-0.1-1.3,1.4-2.5,2.6-3.1c0.4-0.2,0.9-0.3,1.3-0.3c1.1,0,2.3,0.5,3.4,0.9
				c12.1,4.1,26.4,5.9,37.6,12.1c4.5,2.5,8.8,4.8,13.2,7.6c12.4,7.9,34.5,15.4,34.8,15.5c13.4,3.5,27.3,3.7,41,5
				c6.5,0.6,12.8,1.7,19.3,1.7c1.3,0,15,0.2,18.5,0.6c0.5,0,0.9,0.1,0.9,0.2C812.4,513.5,818.4,513.7,826.7,514z"/>
		</g>
		<path class="st15" d="M734,608.7l-12.8,2.6c-0.4,0.1-0.9-0.1-1-0.5l-0.3-1c-0.1-0.4,0.2-0.7,0.6-0.8l12.8-2.6
			c0.4-0.1,0.9,0.1,1,0.5l0.3,1C734.7,608.2,734.5,608.6,734,608.7z"/>
		<path class="st15" d="M702,615.3l-59.5,12.3c-0.8,0.2-1.5-0.2-1.7-0.9l0,0c-0.2-0.6,0.3-1.3,1-1.4l59.5-12.3
			c0.8-0.2,1.5,0.2,1.7,0.9v0C703.2,614.5,702.8,615.1,702,615.3z"/>
		<path class="st15" d="M750.5,605.3l-12.8,2.6c-0.4,0.1-0.9-0.1-1-0.5l-0.3-1c-0.1-0.4,0.2-0.7,0.6-0.8l12.8-2.6
			c0.4-0.1,0.9,0.1,1,0.5l0.3,1C751.2,604.8,751,605.2,750.5,605.3z"/>
		<path class="st15" d="M767,601.9l-12.8,2.6c-0.4,0.1-0.9-0.1-1-0.5l-0.3-1c-0.1-0.4,0.2-0.7,0.6-0.8l12.8-2.6
			c0.4-0.1,0.9,0.1,1,0.5l0.3,1C767.7,601.4,767.4,601.8,767,601.9z"/>
		<path class="st15" d="M783.5,598.5l-12.8,2.6c-0.4,0.1-0.9-0.1-1-0.5l-0.3-1c-0.1-0.4,0.2-0.7,0.6-0.8l12.8-2.6
			c0.4-0.1,0.9,0.1,1,0.5l0.3,1C784.2,598,783.9,598.4,783.5,598.5z"/>
		<path class="st16" d="M840,458.6L826.7,514l-8.9,37.2l-12.3,51.3c-0.1,1.3-1,2.6-2.4,3.3c0,0,0,0,0,0c-0.2,0.1-0.5,0.2-0.8,0.4
			c-0.1,0-0.2,0.1-0.4,0.1c-0.2,0-0.3,0.1-0.4,0.1L629,641.9c-2.9,0.6-5.8-0.9-6.5-3.2l-1-3.4c-0.7-2.4,1-4.8,3.9-5.4l166.5-34.3
			l11.4-47.5l8.3-34.7l13.7-57.2c0.6-2.4,3.4-4,6.3-3.5l4.1,0.7C838.7,453.8,840.6,456.2,840,458.6z"/>
	</g>
</g>
</svg>
