<svg width="450" height="691" viewBox="0 0 634 791" fill="none" xmlns="http://www.w3.org/2000/svg">
<path d="M321 35H488V272H321V35Z" fill="#221563"/>
<path d="M141 35H306V272H141V35Z" fill="#221563"/>
<path d="M323 287H489V524H323V287Z" fill="#221563"/>
<path d="M141 286H306V524H141V286Z" fill="#221563"/>
<path d="M488 74.8588L321 229V35H488V74.8588Z" fill="#0D0830"/>
<path d="M306 35V242.885L274.755 272H141V35H306Z" fill="#0D0830"/>
<path d="M141 397V286H260L141 397Z" fill="#0D0830"/>
<path d="M130 179C130.546 180.401 131.179 181.772 131.911 183.084C132.271 183.734 132.653 184.375 133.058 184.995C139.162 194.513 150.136 201.099 162.857 201.92C163.731 201.97 164.615 202 165.5 202C179.324 202 191.402 195.174 197.942 184.995C199.165 183.104 200.192 181.102 201 179H130Z" fill="#D67525"/>
<path d="M130 179C130.552 180.406 131.192 181.782 131.931 183.098C132.295 183.751 132.681 184.393 133.09 185.016C139.258 194.568 150.347 201.176 163.201 202C174.555 199.991 183.769 193.553 189.054 185.016C190.235 183.108 191.228 181.099 192 179H130Z" fill="#F9A34E"/>
<path d="M117 181H214C214 173.757 212.156 166.914 208.878 160.851C205.244 154.148 199.862 148.396 193.284 144.124C192.023 143.303 190.729 142.533 189.381 141.833C189.176 141.723 188.971 141.622 188.766 141.512C187.267 140.752 185.725 140.062 184.14 139.442C183.805 139.311 183.471 139.191 183.137 139.071C182.63 138.881 182.112 138.711 181.595 138.541C181.26 138.431 180.926 138.321 180.592 138.221C180.225 138.111 179.848 138.001 179.47 137.891C179.104 137.791 178.737 137.691 178.36 137.601C178.015 137.511 177.669 137.431 177.324 137.341C177.184 137.311 177.044 137.281 176.893 137.251C176.559 137.171 176.224 137.1 175.901 137.04C175.48 136.95 175.071 136.87 174.65 136.8C173.593 136.61 172.526 136.46 171.447 136.34C171.113 136.3 170.779 136.26 170.444 136.24C170.142 136.2 169.84 136.18 169.539 136.16C169.204 136.13 168.87 136.11 168.536 136.09C168.191 136.07 167.845 136.05 167.5 136.04C167.231 136.03 166.961 136.02 166.681 136.02C166.293 136 165.894 136 165.495 136C165.16 136 164.815 136 164.481 136.01C164.179 136.02 163.877 136.02 163.586 136.04C163.176 136.05 162.777 136.07 162.378 136.1C162.065 136.11 161.763 136.13 161.451 136.16C160.642 136.22 159.844 136.3 159.057 136.4C159.003 136.4 158.949 136.41 158.906 136.42C158.539 136.46 158.172 136.51 157.806 136.57C156.598 136.74 155.412 136.96 154.247 137.221C153.46 137.391 152.694 137.581 151.929 137.791C151.551 137.891 151.163 138.001 150.786 138.111C147.852 138.971 145.038 140.092 142.385 141.432C142.04 141.602 141.695 141.783 141.361 141.963C140.94 142.183 140.519 142.413 140.11 142.653C139.452 143.033 138.794 143.423 138.158 143.833C137.834 144.034 137.511 144.244 137.198 144.454C136.885 144.664 136.573 144.874 136.26 145.094C134.718 146.175 133.251 147.345 131.849 148.596C131.569 148.846 131.288 149.096 131.019 149.356C130.749 149.616 130.48 149.866 130.21 150.136C129.941 150.396 129.682 150.657 129.423 150.927C129.164 151.197 128.905 151.467 128.657 151.737C128.204 152.217 127.773 152.717 127.342 153.218C127.342 153.218 127.331 153.228 127.331 153.238C126.9 153.748 126.479 154.268 126.069 154.798C126.026 154.848 125.983 154.898 125.951 154.948C125.789 155.159 125.638 155.369 125.487 155.579C125.422 155.659 125.357 155.739 125.304 155.819C125.174 155.979 125.055 156.149 124.948 156.309C124.904 156.369 124.861 156.429 124.829 156.479C124.462 156.999 124.106 157.52 123.772 158.06C123.416 158.61 123.071 159.18 122.737 159.761C122.446 160.251 122.176 160.751 121.907 161.261C121.82 161.421 121.734 161.581 121.659 161.741C121.411 162.232 121.163 162.722 120.936 163.212C120.893 163.302 120.85 163.392 120.817 163.482C120.591 163.982 120.365 164.483 120.16 164.993C119.383 166.884 118.736 168.845 118.24 170.845C118.089 171.456 117.949 172.066 117.83 172.686C117.55 174.057 117.345 175.448 117.205 176.858C117.173 177.198 117.14 177.538 117.119 177.879C117.043 178.909 117 179.95 117 181Z" fill="#163E6D"/>
<path d="M117.12 177.876C117.141 177.535 117.174 177.195 117.207 176.855C117.348 175.443 117.555 174.051 117.837 172.679C117.957 172.058 118.098 171.447 118.251 170.837C118.751 168.834 119.404 166.871 120.187 164.979C120.393 164.468 120.622 163.967 120.85 163.467C120.883 163.377 120.926 163.287 120.97 163.196C121.198 162.706 121.448 162.215 121.698 161.724C121.775 161.564 121.862 161.404 121.949 161.244C122.221 160.733 122.492 160.232 122.786 159.742C123.123 159.161 123.471 158.59 123.83 158.04C124.167 157.499 124.526 156.978 124.896 156.457C124.929 156.407 124.972 156.347 125.016 156.287C125.124 156.127 125.244 155.957 125.375 155.797C125.429 155.706 125.494 155.626 125.559 155.536C125.712 155.326 125.875 155.126 126.027 154.925C126.06 154.875 126.103 154.825 126.147 154.775C126.56 154.245 126.984 153.724 127.419 153.213C127.419 153.203 127.43 153.193 127.43 153.193C127.865 152.692 128.3 152.192 128.757 151.711C129.007 151.441 129.268 151.17 129.529 150.9C129.79 150.63 130.051 150.369 130.323 150.109C130.595 149.839 130.867 149.588 131.139 149.328C131.411 149.068 131.694 148.817 131.976 148.567C133.39 147.315 134.869 146.144 136.425 145.062C136.74 144.842 137.055 144.632 137.371 144.421C137.686 144.211 138.013 144.001 138.339 143.801C138.98 143.39 139.644 143 140.307 142.619C140.721 142.379 141.145 142.148 141.569 141.928C141.906 141.748 142.254 141.568 142.602 141.397C145.278 140.056 148.116 138.934 151.075 138.073C151.455 137.963 151.847 137.853 152.228 137.753C153 137.542 153.772 137.352 154.566 137.182C155.74 136.922 156.937 136.701 158.155 136.531C158.525 136.471 158.895 136.421 159.264 136.381C159.308 136.371 159.362 136.361 159.417 136.361C160.211 136.261 161.015 136.181 161.831 136.12V0L169.988 0V136.12C170.293 136.141 170.597 136.161 170.902 136.201C171.239 136.221 171.576 136.261 171.913 136.301C173.001 136.421 174.078 136.571 175.143 136.761C175.568 136.831 175.981 136.912 176.405 137.002C176.731 137.062 177.068 137.132 177.406 137.212C177.558 137.242 177.699 137.272 177.841 137.302C178.189 137.392 178.537 137.472 178.885 137.562C179.265 137.653 179.635 137.753 180.005 137.853C180.386 137.963 180.766 138.073 181.136 138.183C181.473 138.283 181.81 138.394 182.147 138.504C182.67 138.674 183.192 138.844 183.703 139.034C184.04 139.155 184.377 139.275 184.714 139.405C186.313 140.026 187.868 140.717 189.38 141.478C189.587 141.588 189.793 141.688 190 141.798C183.768 142.829 176.883 144.381 169.988 146.705C167.258 147.616 164.528 148.647 161.831 149.829C148.606 155.586 136.305 164.638 129.66 178.847C129.333 179.548 129.018 180.269 128.714 181H117C117 179.949 117.044 178.907 117.12 177.876Z" fill="#0A2056"/>
<path d="M41.7256 180.976V163.225H28.2862V161.2H60.7558V143.024H35.2013V141H79.2432V143.024H62.9269V161.2H91V163.225H43.8968V180.976H77.6257V183H14V180.976H41.7256Z" fill="#212735"/>
<path d="M557 238.229V236.206H601.268V218.024H583.366V216H626.767V218.024H603.408V236.206H618.817V238.229H584.661V255.976H632V258H569.274V255.976H582.521V238.229H557Z" fill="#212735"/>
<path d="M232 582.695V580.72H277.46V562.976H259.069V561H303.639V562.976H279.657V580.72H295.465V582.695H260.398V600.024H309V602H244.601V600.024H258.201V582.695H232Z" fill="#212735"/>
<path d="M170 505.558V614L184 599.659V505.558C184 503.589 182.722 502 181.151 502H172.839C171.259 502 170 503.589 170 505.558Z" fill="#100F1E"/>
<path d="M115 739.395C115 737.755 116.501 736.434 118.348 736.434H143.072L143.04 736.414L169.211 736.434V612.686L184.711 599V736.434H238.652C240.499 736.434 242 737.755 242 739.395V743.297C242 743.377 241.978 743.437 241.978 743.517H242V748.29C242 748.68 241.644 749 241.19 749H115.897C115.4 749 115 748.65 115 748.22V743.527H115.022C115.022 743.447 115 743.387 115 743.307V739.395Z" fill="#1C1930"/>
<path d="M14 480.015V499.975C14 502.752 15.9722 505 18.3994 505H339.601C342.028 505 344 502.752 344 499.975V479.934C343.957 477.197 342.006 475 339.601 475H18.3994C15.9722 475 14 477.238 14 480.015Z" fill="#1C1930"/>
<path d="M14 494H344V498H14V494Z" fill="#100F1E"/>
<path d="M495.15 585.55V647.76C495.15 649.35 496.347 650.65 497.825 650.65H508.514C510.002 650.65 511.21 649.36 511.21 647.76V585.55C511.21 583.94 510.013 582.65 508.514 582.65H497.825C496.347 582.65 495.15 583.95 495.15 585.55Z" fill="#1C1930"/>
<path d="M492.443 653.58H514.057C515.416 653.58 516.452 654.76 516.301 656.09L512.213 691.68L508.826 721C508.708 722.14 507.737 723 506.583 723H499.098C497.943 723 496.962 722.13 496.854 720.97L494.136 694.41L490.199 656.05C490.059 654.73 491.105 653.58 492.443 653.58Z" fill="#1C1930"/>
<path d="M512.332 706.08C515.794 706.59 519.256 707.11 522.718 707.62C530.366 708.75 538.002 709.87 545.649 711C553.954 712.23 562.281 713.47 570.586 714.71C573.897 715.21 577.219 715.71 580.519 716.21C583.302 716.62 586.29 716.87 589.008 717.58C589.234 717.65 589.623 717.94 589.72 718.15C590.13 719.05 589.979 721.91 589.979 723.01H600.948C601.045 722.05 601.045 721.08 600.991 720.12C600.915 718.58 601.088 717 600.063 715.67C598.197 713.27 593.667 712.56 590.852 711.65C583.777 709.38 576.604 707.39 569.432 705.4C561.008 703.08 552.53 700.84 544.053 698.64C536.988 696.8 529.913 695 522.837 693.22C519.882 692.48 516.926 691.74 513.96 691.01L513.141 698.61L512.332 706.08Z" fill="#1C1930"/>
<path d="M582.763 737.91C582.72 738.79 582.795 739.66 582.968 740.51C584.003 745.52 588.63 749.38 594.347 749.62C598.111 749.76 601.541 748.29 603.871 745.88C605.683 744.01 606.837 741.57 606.966 738.88C607.257 732.69 602.08 727.46 595.382 727.19C588.695 726.91 583.054 731.72 582.763 737.91Z" fill="#1C1930"/>
<path d="M491.148 738.02C490.868 744.22 496.056 749.46 502.732 749.73C503.121 749.74 503.498 749.74 503.886 749.72C510.056 749.43 515.071 744.83 515.341 739C515.632 732.81 510.455 727.58 503.757 727.31C498.31 727.08 493.543 730.25 491.817 734.8C491.418 735.8 491.192 736.88 491.148 738.02Z" fill="#1C1930"/>
<path d="M398.908 738.99C399.199 745.18 404.84 749.98 411.517 749.73C412.38 749.7 413.221 749.57 414.041 749.37C419.466 748.07 423.36 743.41 423.101 738.02C422.81 731.83 417.169 727.03 410.492 727.3C407.289 727.43 404.431 728.7 402.36 730.65C400.095 732.8 398.757 735.77 398.908 738.99Z" fill="#1C1930"/>
<path d="M493.554 706.08C490.091 706.59 486.629 707.11 483.167 707.62C475.52 708.75 467.883 709.87 460.236 711C451.931 712.23 443.605 713.47 435.3 714.71C431.988 715.21 428.666 715.71 425.366 716.21C422.583 716.62 419.595 716.87 416.877 717.58C416.651 717.65 416.263 717.94 416.166 718.15C415.756 719.05 415.907 721.91 415.907 723.01H404.937C404.84 722.05 404.84 721.08 404.894 720.12C404.97 718.58 404.797 717 405.822 715.67C407.688 713.27 412.218 712.56 415.033 711.65C422.108 709.38 429.281 707.39 436.454 705.4C444.877 703.08 453.355 700.84 461.833 698.64C468.897 696.8 475.973 695 483.037 693.22C485.993 692.48 488.948 691.74 491.914 691.01L492.734 698.61L493.554 706.08Z" fill="#1C1930"/>
<path d="M402.403 568.45C403.255 569.85 404.139 571.23 405.056 572.6C405.995 574 407.073 575.45 408.777 576.11C409.802 576.51 410.945 576.57 412.067 576.62C416.683 576.84 421.289 577.04 425.905 577.22C447.692 578.07 469.512 578.49 491.321 578.48C513.141 578.47 534.949 578.04 556.737 577.18C557.308 577.16 557.891 577.14 558.462 577.11C558.915 577.09 559.368 577.07 559.832 577.05C566.929 576.7 574.113 575.97 580.271 572.99C585.438 570.48 589.45 566.53 592.319 562.01C593.635 559.94 594.703 557.75 595.555 555.52C595.566 555.5 595.566 555.47 595.576 555.45C595.857 554.72 596.105 553.98 596.331 553.25C596.385 553.1 596.428 552.95 596.482 552.8C596.698 552.09 596.892 551.37 597.076 550.65C597.108 550.49 597.151 550.33 597.194 550.17C597.367 549.44 597.518 548.71 597.658 547.97C597.669 547.88 597.69 547.79 597.701 547.7C597.831 546.96 597.949 546.22 598.046 545.49C598.057 545.42 598.068 545.36 598.068 545.3C598.165 544.52 598.24 543.74 598.305 542.95C598.316 542.87 598.316 542.79 598.327 542.7C598.381 541.9 598.424 541.09 598.456 540.29V540.26C598.467 539.69 598.478 539.13 598.478 538.56C598.478 536.3 598.359 534.05 598.165 531.79C597.949 529.4 597.647 526.99 597.291 524.58C597.151 523.6 597 522.62 596.849 521.63C596.828 521.52 596.817 521.42 596.795 521.31C596.633 520.26 596.461 519.21 596.31 518.16C592.168 491.52 589.331 465.27 591.445 438.28C592.125 429.74 593.171 421.23 594.39 412.72C595.781 403.11 597.378 393.51 598.92 383.91C600.268 375.44 601.573 366.96 602.62 358.47C603.741 349.34 607.635 338.57 601.099 330.28C594.465 321.86 579.646 316.66 568.159 317.76C565.764 317.99 563.37 318.69 561.504 319.95C561.299 320.08 561.116 320.22 560.932 320.36C560.62 320.62 560.318 320.88 560.048 321.17C557.6 323.71 556.996 327.49 557.125 331.61C557.308 337.86 559.174 344.86 558.818 349.39C557.988 359.95 557.902 368.85 557.654 377.89C557.654 377.89 557.654 377.89 557.654 377.9V377.91C557.546 382.09 557.395 386.3 557.125 390.71C556.564 399.99 556.532 409.9 556.661 419.19C556.942 441.62 563.974 462.69 568.979 484.55C569.033 484.81 569.097 485.08 569.151 485.35C569.216 485.68 569.291 486 569.356 486.34C569.432 486.67 569.486 487.02 569.55 487.36C569.583 487.49 569.604 487.63 569.626 487.77C569.658 487.91 569.68 488.05 569.712 488.2C569.777 488.59 569.842 488.99 569.906 489.39V489.45C569.949 489.67 569.982 489.88 570.014 490.09C570.057 490.39 570.1 490.7 570.144 491.01L572.624 490.26C572.624 490.26 585.103 522.39 580.735 533.39C576.367 544.38 571.513 557.67 534.302 557.77C497.091 557.88 443.691 557.27 404.873 567.82C403.999 568.06 403.179 568.27 402.403 568.45Z" fill="#1C1930"/>
<path d="M495.15 585.55V647.76C495.15 649.35 496.347 650.65 497.825 650.65H508.514C510.002 650.65 511.21 649.36 511.21 647.76V585.55C511.21 583.94 510.013 582.65 508.514 582.65H497.825C496.347 582.65 495.15 583.95 495.15 585.55Z" fill="#1C1930"/>
<path d="M492.443 653.58H514.057C515.416 653.58 516.452 654.76 516.301 656.09L512.213 691.68L508.826 721C508.708 722.14 507.737 723 506.583 723H499.098C497.943 723 496.962 722.13 496.854 720.97L494.136 694.41L490.199 656.05C490.059 654.73 491.105 653.58 492.443 653.58Z" fill="#1C1930"/>
<path d="M512.332 706.08C515.794 706.59 519.256 707.11 522.718 707.62C530.366 708.75 538.002 709.87 545.649 711C553.954 712.23 562.281 713.47 570.586 714.71C573.897 715.21 577.219 715.71 580.519 716.21C583.302 716.62 586.29 716.87 589.008 717.58C589.234 717.65 589.623 717.94 589.72 718.15C590.13 719.05 589.979 721.91 589.979 723.01H600.948C601.045 722.05 601.045 721.08 600.991 720.12C600.915 718.58 601.088 717 600.063 715.67C598.197 713.27 593.667 712.56 590.852 711.65C583.777 709.38 576.604 707.39 569.432 705.4C561.008 703.08 552.53 700.84 544.053 698.64C536.988 696.8 529.913 695 522.837 693.22C519.882 692.48 516.926 691.74 513.96 691.01L513.141 698.61L512.332 706.08Z" fill="#1C1930"/>
<path d="M582.763 737.91C582.72 738.79 582.795 739.66 582.968 740.51C584.003 745.52 588.63 749.38 594.347 749.62C598.111 749.76 601.541 748.29 603.871 745.88C605.683 744.01 606.837 741.57 606.966 738.88C607.257 732.69 602.08 727.46 595.382 727.19C588.695 726.91 583.054 731.72 582.763 737.91Z" fill="#1C1930"/>
<path d="M491.148 738.02C490.868 744.22 496.056 749.46 502.732 749.73C503.121 749.74 503.498 749.74 503.886 749.72C510.056 749.43 515.071 744.83 515.341 739C515.632 732.81 510.455 727.58 503.757 727.31C498.31 727.08 493.543 730.25 491.817 734.8C491.418 735.8 491.192 736.88 491.148 738.02Z" fill="#1C1930"/>
<path d="M398.908 738.99C399.199 745.18 404.84 749.98 411.517 749.73C412.38 749.7 413.221 749.57 414.041 749.37C419.466 748.07 423.36 743.41 423.101 738.02C422.81 731.83 417.169 727.03 410.492 727.3C407.289 727.43 404.431 728.7 402.36 730.65C400.095 732.8 398.757 735.77 398.908 738.99Z" fill="#1C1930"/>
<path d="M493.554 706.08C490.091 706.59 486.629 707.11 483.167 707.62C475.52 708.75 467.883 709.87 460.236 711C451.931 712.23 443.605 713.47 435.3 714.71C431.988 715.21 428.666 715.71 425.366 716.21C422.583 716.62 419.595 716.87 416.877 717.58C416.651 717.65 416.263 717.94 416.166 718.15C415.756 719.05 415.907 721.91 415.907 723.01H404.937C404.84 722.05 404.84 721.08 404.894 720.12C404.97 718.58 404.797 717 405.822 715.67C407.688 713.27 412.218 712.56 415.033 711.65C422.108 709.38 429.281 707.39 436.454 705.4C444.877 703.08 453.355 700.84 461.833 698.64C468.897 696.8 475.973 695 483.037 693.22C485.993 692.48 488.948 691.74 491.914 691.01L492.734 698.61L493.554 706.08Z" fill="#1C1930"/>
<path d="M402.403 568.45C403.255 569.85 404.139 571.23 405.056 572.6C405.995 574 407.073 575.45 408.777 576.11C409.802 576.51 410.945 576.57 412.067 576.62C416.683 576.84 421.289 577.04 425.905 577.22C447.692 578.07 469.512 578.49 491.321 578.48C513.141 578.47 534.949 578.04 556.737 577.18C557.308 577.16 557.891 577.14 558.462 577.11C558.915 577.09 559.368 577.07 559.832 577.05C566.929 576.7 574.113 575.97 580.271 572.99C585.438 570.48 589.45 566.53 592.319 562.01C593.635 559.94 594.703 557.75 595.555 555.52C595.566 555.5 595.566 555.47 595.576 555.45C595.857 554.72 596.105 553.98 596.331 553.25C596.385 553.1 596.428 552.95 596.482 552.8C596.698 552.09 596.892 551.37 597.076 550.65C597.108 550.49 597.151 550.33 597.194 550.17C597.367 549.44 597.518 548.71 597.658 547.97C597.669 547.88 597.69 547.79 597.701 547.7C597.831 546.96 597.949 546.22 598.046 545.49C598.057 545.42 598.068 545.36 598.068 545.3C598.165 544.52 598.24 543.74 598.305 542.95C598.316 542.87 598.316 542.79 598.327 542.7C598.381 541.9 598.424 541.09 598.456 540.29V540.26C598.467 539.69 598.478 539.13 598.478 538.56C598.478 536.3 598.359 534.05 598.165 531.79C597.949 529.4 597.647 526.99 597.291 524.58C597.151 523.6 597 522.62 596.849 521.63C596.828 521.52 596.817 521.42 596.795 521.31C596.633 520.26 596.461 519.21 596.31 518.16C592.168 491.52 589.331 465.27 591.445 438.28C592.125 429.74 593.171 421.23 594.39 412.72C595.781 403.11 597.378 393.51 598.92 383.91C600.268 375.44 601.573 366.96 602.62 358.47C603.741 349.34 607.635 338.57 601.099 330.28C594.465 321.86 579.646 316.66 568.159 317.76C565.764 317.99 563.37 318.69 561.504 319.95C561.299 320.08 561.116 320.22 560.932 320.36C560.62 320.62 560.318 320.88 560.048 321.17C557.6 323.71 556.996 327.49 557.125 331.61C557.308 337.86 559.174 344.86 558.818 349.39C557.988 359.95 557.902 368.85 557.654 377.89C557.654 377.89 557.654 377.89 557.654 377.9V377.91C557.546 382.09 557.395 386.3 557.125 390.71C556.564 399.99 556.532 409.9 556.661 419.19C556.942 441.62 563.974 462.69 568.979 484.55C569.033 484.81 569.097 485.08 569.151 485.35C569.216 485.68 569.291 486 569.356 486.34C569.432 486.67 569.486 487.02 569.55 487.36C569.583 487.49 569.604 487.63 569.626 487.77C569.658 487.91 569.68 488.05 569.712 488.2C569.777 488.59 569.842 488.99 569.906 489.39V489.45C569.949 489.67 569.982 489.88 570.014 490.09C570.057 490.39 570.1 490.7 570.144 491.01L572.624 490.26C572.624 490.26 585.103 522.39 580.735 533.39C576.367 544.38 571.513 557.67 534.302 557.77C497.091 557.88 443.691 557.27 404.873 567.82C403.999 568.06 403.179 568.27 402.403 568.45Z" fill="#1C1930"/>
<path d="M495.15 621.81V648C495.15 649.46 496.347 650.65 497.825 650.65H508.513C510.002 650.65 511.21 649.46 511.21 648V618.94C507.931 618.03 504.781 617.9 502.516 619.43C500.888 620.51 498.256 621.28 495.15 621.81Z" fill="#100F1E"/>
<path d="M488.57 739.75L489.649 739.71C489.315 732.41 495.139 726.24 502.635 725.94C506.27 725.8 509.743 727.03 512.418 729.42C515.103 731.82 516.678 735.09 516.84 738.63L517.919 738.59C517.746 734.79 516.053 731.28 513.162 728.71C510.261 726.13 506.496 724.79 502.581 724.95C494.503 725.25 488.204 731.9 488.57 739.75Z" fill="#100F1E"/>
<path d="M580.206 739.75L581.285 739.71C580.951 732.41 586.775 726.24 594.271 725.94C597.906 725.8 601.379 727.03 604.054 729.42C606.74 731.82 608.314 735.09 608.476 738.63L609.555 738.59C609.382 734.79 607.689 731.28 604.798 728.71C601.897 726.13 598.132 724.79 594.217 724.95C586.139 725.25 579.851 731.9 580.206 739.75Z" fill="#100F1E"/>
<path d="M512.332 706.08C515.794 706.59 519.256 707.11 522.718 707.62C530.365 708.75 538.002 709.87 545.649 711C553.954 712.23 562.281 713.47 570.586 714.71C573.897 715.21 577.219 715.71 580.519 716.21C583.302 716.62 586.29 716.87 589.008 717.58C589.234 717.65 589.623 717.94 589.72 718.15C590.129 719.05 589.978 721.91 589.978 723.01H594.886C594.875 720.34 594.562 717.16 593.333 715.75C591.154 713.23 521.489 700.16 513.151 698.61L512.332 706.08Z" fill="#100F1E"/>
<path d="M582.957 740.5C583.992 745.51 588.619 749.37 594.336 749.61C598.1 749.75 601.53 748.28 603.86 745.87C599.049 746.43 592.955 746.34 587.368 743.9C585.362 743.02 583.928 741.84 582.957 740.5Z" fill="#100F1E"/>
<path d="M491.148 738.02C490.868 744.22 496.056 749.46 502.732 749.73C503.12 749.74 503.498 749.74 503.886 749.72C503.304 749.42 502.613 749.11 501.794 748.78C495.754 746.37 493.025 740.28 491.828 734.79C491.418 735.8 491.191 736.88 491.148 738.02Z" fill="#100F1E"/>
<path d="M396.33 739.75L397.409 739.71C397.075 732.41 402.899 726.24 410.395 725.94C414.03 725.8 417.503 727.03 420.178 729.42C422.863 731.82 424.438 735.09 424.6 738.63L425.678 738.59C425.506 734.79 423.812 731.28 420.922 728.71C418.021 726.13 414.256 724.79 410.341 724.95C402.262 725.25 395.974 731.9 396.33 739.75Z" fill="#100F1E"/>
<path d="M493.553 706.08C490.091 706.59 486.629 707.11 483.167 707.62C475.52 708.75 467.883 709.87 460.236 711C451.931 712.23 443.604 713.47 435.299 714.71C431.988 715.21 428.666 715.71 425.366 716.21C422.583 716.62 419.595 716.87 416.877 717.58C416.651 717.65 416.262 717.94 416.165 718.15C415.755 719.05 415.906 721.91 415.906 723.01H410.999C411.01 720.34 411.323 717.16 412.552 715.75C414.731 713.23 484.396 700.16 492.734 698.61L493.553 706.08Z" fill="#100F1E"/>
<path d="M398.908 738.99C399.199 745.18 404.84 749.98 411.517 749.73C412.38 749.7 413.221 749.57 414.041 749.37C413.113 748.67 411.797 748 409.964 747.35C401.658 744.38 401.292 736.53 402.349 730.65C400.095 732.8 398.757 735.77 398.908 738.99Z" fill="#100F1E"/>
<path d="M392.07 540.87C392.07 543.27 392.437 545.74 393.041 548.15C393.558 550.24 394.259 552.28 395.068 554.19C395.575 555.39 396.115 556.59 396.665 557.77C397.215 558.95 397.797 560.12 398.39 561.28C399.631 563.71 400.968 566.1 402.403 568.45C403.179 568.27 403.999 568.06 404.873 567.82C443.691 557.27 497.091 557.88 534.302 557.77C571.513 557.67 576.367 544.38 580.735 533.39C585.103 522.39 572.624 490.26 572.624 490.26L570.143 491.01C570.165 491.15 570.176 491.3 570.197 491.45C570.219 491.64 570.251 491.82 570.273 492.01C570.338 492.51 570.391 493.01 570.445 493.52C570.445 493.57 570.456 493.61 570.456 493.66C570.467 493.75 570.478 493.85 570.489 493.95C570.542 494.5 570.596 495.06 570.65 495.62C570.65 495.68 570.661 495.74 570.661 495.8C570.661 495.83 570.661 495.86 570.672 495.89C570.715 496.49 570.758 497.1 570.801 497.72V497.84C570.888 499.25 570.942 500.69 570.963 502.14C570.974 502.47 570.974 502.81 570.974 503.15C570.985 504.21 570.974 505.27 570.952 506.34C570.931 506.85 570.92 507.37 570.898 507.88C570.866 508.85 570.812 509.81 570.747 510.78C570.715 511.27 570.683 511.77 570.64 512.26C570.532 513.69 570.391 515.12 570.208 516.53C570.014 518.13 569.766 519.71 569.485 521.26C568.461 526.89 567.501 530.66 562.755 535.26C557.2 540.63 550.395 543.21 543.2 544.25C542.683 544.33 542.154 544.4 541.637 544.46C541.065 544.52 540.504 544.58 539.932 544.63C538.962 544.72 537.98 544.78 537.009 544.81C536.837 544.82 536.653 544.82 536.47 544.83C536.136 544.84 535.801 544.85 535.467 544.86C534.583 544.87 533.687 544.87 532.803 544.86C530.139 544.82 527.475 544.66 524.843 544.44C496.12 542.02 468.034 536.12 440.002 530.29C434.652 529.17 429.302 528.06 423.953 526.98C423.155 526.82 422.367 526.66 421.569 526.5C414.008 524.97 405.38 523.66 398.973 527.47C394.691 530.01 392.728 533.97 392.21 538.39C392.113 539.2 392.07 540.03 392.07 540.87Z" fill="#100F1E"/>
<path d="M495.15 621.81V648C495.15 649.46 496.347 650.65 497.825 650.65H508.513C510.002 650.65 511.21 649.46 511.21 648V618.94C507.931 618.03 504.781 617.9 502.516 619.43C500.888 620.51 498.256 621.28 495.15 621.81Z" fill="#100F1E"/>
<path d="M488.57 739.75L489.649 739.71C489.315 732.41 495.139 726.24 502.635 725.94C506.27 725.8 509.743 727.03 512.418 729.42C515.103 731.82 516.678 735.09 516.84 738.63L517.919 738.59C517.746 734.79 516.053 731.28 513.162 728.71C510.261 726.13 506.496 724.79 502.581 724.95C494.503 725.25 488.204 731.9 488.57 739.75Z" fill="#100F1E"/>
<path d="M580.206 739.75L581.285 739.71C580.951 732.41 586.775 726.24 594.271 725.94C597.906 725.8 601.379 727.03 604.054 729.42C606.74 731.82 608.314 735.09 608.476 738.63L609.555 738.59C609.382 734.79 607.689 731.28 604.798 728.71C601.897 726.13 598.132 724.79 594.217 724.95C586.139 725.25 579.851 731.9 580.206 739.75Z" fill="#100F1E"/>
<path d="M512.332 706.08C515.794 706.59 519.256 707.11 522.718 707.62C530.365 708.75 538.002 709.87 545.649 711C553.954 712.23 562.281 713.47 570.586 714.71C573.897 715.21 577.219 715.71 580.519 716.21C583.302 716.62 586.29 716.87 589.008 717.58C589.234 717.65 589.623 717.94 589.72 718.15C590.129 719.05 589.978 721.91 589.978 723.01H594.886C594.875 720.34 594.562 717.16 593.333 715.75C591.154 713.23 521.489 700.16 513.151 698.61L512.332 706.08Z" fill="#100F1E"/>
<path d="M582.957 740.5C583.992 745.51 588.619 749.37 594.336 749.61C598.1 749.75 601.53 748.28 603.86 745.87C599.049 746.43 592.955 746.34 587.368 743.9C585.362 743.02 583.928 741.84 582.957 740.5Z" fill="#100F1E"/>
<path d="M491.148 738.02C490.868 744.22 496.056 749.46 502.732 749.73C503.12 749.74 503.498 749.74 503.886 749.72C503.304 749.42 502.613 749.11 501.794 748.78C495.754 746.37 493.025 740.28 491.828 734.79C491.418 735.8 491.191 736.88 491.148 738.02Z" fill="#100F1E"/>
<path d="M396.33 739.75L397.409 739.71C397.075 732.41 402.899 726.24 410.395 725.94C414.03 725.8 417.503 727.03 420.178 729.42C422.863 731.82 424.438 735.09 424.6 738.63L425.678 738.59C425.506 734.79 423.812 731.28 420.922 728.71C418.021 726.13 414.256 724.79 410.341 724.95C402.262 725.25 395.974 731.9 396.33 739.75Z" fill="#100F1E"/>
<path d="M493.553 706.08C490.091 706.59 486.629 707.11 483.167 707.62C475.52 708.75 467.883 709.87 460.236 711C451.931 712.23 443.604 713.47 435.299 714.71C431.988 715.21 428.666 715.71 425.366 716.21C422.583 716.62 419.595 716.87 416.877 717.58C416.651 717.65 416.262 717.94 416.165 718.15C415.755 719.05 415.906 721.91 415.906 723.01H410.999C411.01 720.34 411.323 717.16 412.552 715.75C414.731 713.23 484.396 700.16 492.734 698.61L493.553 706.08Z" fill="#100F1E"/>
<path d="M398.908 738.99C399.199 745.18 404.84 749.98 411.517 749.73C412.38 749.7 413.221 749.57 414.041 749.37C413.113 748.67 411.797 748 409.964 747.35C401.658 744.38 401.292 736.53 402.349 730.65C400.095 732.8 398.757 735.77 398.908 738.99Z" fill="#100F1E"/>
<path d="M392.07 540.87C392.07 543.27 392.437 545.74 393.041 548.15C393.558 550.24 394.259 552.28 395.068 554.19C395.575 555.39 396.115 556.59 396.665 557.77C397.215 558.95 397.797 560.12 398.39 561.28C399.631 563.71 400.968 566.1 402.403 568.45C403.179 568.27 403.999 568.06 404.873 567.82C443.691 557.27 497.091 557.88 534.302 557.77C571.513 557.67 576.367 544.38 580.735 533.39C585.103 522.39 572.624 490.26 572.624 490.26L570.143 491.01C570.165 491.15 570.176 491.3 570.197 491.45C570.219 491.64 570.251 491.82 570.273 492.01C570.338 492.51 570.391 493.01 570.445 493.52C570.445 493.57 570.456 493.61 570.456 493.66C570.467 493.75 570.478 493.85 570.489 493.95C570.542 494.5 570.596 495.06 570.65 495.62C570.65 495.68 570.661 495.74 570.661 495.8C570.661 495.83 570.661 495.86 570.672 495.89C570.715 496.49 570.758 497.1 570.801 497.72V497.84C570.888 499.25 570.942 500.69 570.963 502.14C570.974 502.47 570.974 502.81 570.974 503.15C570.985 504.21 570.974 505.27 570.952 506.34C570.931 506.85 570.92 507.37 570.898 507.88C570.866 508.85 570.812 509.81 570.747 510.78C570.715 511.27 570.683 511.77 570.64 512.26C570.532 513.69 570.391 515.12 570.208 516.53C570.014 518.13 569.766 519.71 569.485 521.26C568.461 526.89 567.501 530.66 562.755 535.26C557.2 540.63 550.395 543.21 543.2 544.25C542.683 544.33 542.154 544.4 541.637 544.46C541.065 544.52 540.504 544.58 539.932 544.63C538.962 544.72 537.98 544.78 537.009 544.81C536.837 544.82 536.653 544.82 536.47 544.83C536.136 544.84 535.801 544.85 535.467 544.86C534.583 544.87 533.687 544.87 532.803 544.86C530.139 544.82 527.475 544.66 524.843 544.44C496.12 542.02 468.034 536.12 440.002 530.29C434.652 529.17 429.302 528.06 423.953 526.98C423.155 526.82 422.367 526.66 421.569 526.5C414.008 524.97 405.38 523.66 398.973 527.47C394.691 530.01 392.728 533.97 392.21 538.39C392.113 539.2 392.07 540.03 392.07 540.87Z" fill="#100F1E"/>
<path d="M31.576 294.472C36.1912 292.77 43.1919 296.022 47.0267 298.67C47.0267 298.67 51.809 301.953 56.4353 307.601C56.6248 309.202 56.558 311.115 56.558 311.115C56.8255 310.823 57.3717 310.078 57.8511 309.414C60.2924 312.696 62.5331 316.643 63.815 321.104C67.2262 332.934 62.0649 337.355 66 344.202C65.2754 344.816 64.64 345.521 64.0715 346.256C62.5665 348.209 61.5744 350.444 60.8498 352.71C60.2701 354.492 59.8465 356.314 59.5009 358.137C59.1999 359.728 58.8878 361.349 58.5868 363C57.1822 361.641 55.655 360.493 54.0497 359.466C53.2583 358.972 52.4444 358.509 51.6195 358.056C48.9106 356.596 46.0234 355.368 43.0693 354.029C41.0961 353.122 39.1787 352.095 37.3617 350.948C39.045 344.171 38.142 338.855 36.481 334.274L39.6469 330.8L34.7977 330.246C33.4266 327.296 31.9551 324.608 31.0298 321.939C29.6141 317.902 28.6219 314.398 27.9754 311.387L30.7511 309.081L27.496 308.93C25.9799 299.778 28.1091 295.74 31.576 294.472Z" fill="#0A2056"/>
<path d="M56.0817 400.91L56.2435 402.47L56.524 409.97C56.7828 411.83 56.6641 413.69 56.7289 415.56H59.8784C59.6842 413.68 59.5008 411.81 59.3067 409.93C58.9831 406.75 58.6272 403.58 58.2713 400.41C57.5594 400.62 56.826 400.79 56.0817 400.91Z" fill="#03122B"/>
<path d="M39.2127 306.93C40.5394 309.15 41.7043 311.4 42.826 313.71C43.4084 314.86 43.9477 316.02 44.5733 317.16L45.5225 318.86C45.6735 319.13 45.8244 319.4 45.9646 319.67L46.3745 320.5C46.8814 321.62 47.356 322.74 47.7443 323.89C48.1218 325.04 48.4238 326.22 48.6719 327.4C49.1572 329.78 49.4269 332.2 49.5239 334.66C49.6534 338.43 49.621 342.2 49.6858 345.97C49.7397 347.25 49.8044 348.54 49.923 349.83C50.0309 351.12 50.2035 352.44 50.3869 353.71L50.9154 357.45L50.9369 357.6C51.735 358.05 52.5224 358.51 53.2882 359L53.0509 357.2C52.7381 354.69 52.2959 352.19 52.1234 349.68C51.7566 344.66 51.9507 339.6 51.6056 334.54C51.4222 332.02 51.1095 329.49 50.4731 327.02C49.8691 324.55 48.9415 322.14 47.7011 319.87C47.0863 318.74 46.3422 317.67 45.6627 316.58C44.9832 315.49 44.3252 314.39 43.6565 313.28C42.3406 311.08 40.9924 308.87 39.3961 306.81L39.2127 306.93Z" fill="#03122B"/>
<path d="M3.47011 322.353C4.74288 319.92 7.38633 317.913 10.3344 318.003C13.2498 318.082 15.6757 320.148 17.079 322.472C20.3316 327.844 21.5718 333.793 25.4336 338.977C25.5859 339.176 25.7382 339.374 25.8797 339.573L24.7809 342.701L26.8804 340.814C27.1089 341.092 27.3373 341.36 27.5658 341.628L26.3692 343.287L28.3273 342.483C31.123 345.561 34.3757 348.312 37.9655 350.596C39.7387 351.728 41.6098 352.741 43.5353 353.635C46.4181 354.956 49.2355 356.167 51.879 357.607C52.684 358.054 53.4782 358.511 54.2505 358.998C55.817 360.011 57.3073 361.143 58.678 362.483C57.5249 369.048 56.6764 375.96 58.1015 382.305C59.2655 387.46 62.17 391.273 66.4234 393.339C66.6083 393.428 66.8042 393.517 67 393.607C66.3908 395.146 65.4879 396.536 64.1934 397.639C62.8444 398.781 61.1474 399.585 59.2764 400.121C58.5584 400.33 57.8186 400.499 57.068 400.618C56.3609 400.747 55.6321 400.836 54.9141 400.896C54.2179 400.956 53.5325 400.995 52.8472 400.995C50.5627 401.035 48.3218 400.817 46.3963 400.449C33.6033 397.986 29.4042 388.87 25.0964 379.376L28.2511 374.51L23.6713 376.277C23.1056 375.056 22.5182 373.844 21.8981 372.643C18.3082 365.77 12.8473 360.855 7.77798 354.946C2.59986 348.908 1.9907 341.35 2.03422 333.972C2.05597 330.119 1.59902 325.928 3.47011 322.353Z" fill="#0F3860"/>
<path d="M12.2174 330C12.5899 332.542 13.3247 335.033 14.2562 337.435C15.1876 339.846 16.3468 342.177 17.7439 344.357C19.1515 346.537 20.7142 348.637 22.5461 350.485C23.4154 351.46 24.44 352.284 25.3922 353.168C25.6302 353.399 25.8993 353.58 26.158 353.781L26.9342 354.383C27.4621 354.775 27.9692 355.187 28.5074 355.559C32.8128 358.583 37.0353 361.808 40.5748 365.696C42.3446 367.635 43.9591 369.725 45.3356 371.945C46.7017 374.175 47.8608 376.516 48.8026 378.948C50.6862 383.8 51.7522 388.914 52.3525 394.048C52.6423 396.62 52.839 399.202 52.9218 401.784C53.0149 404.366 53.0149 406.958 52.9735 409.53L52.8907 416H51.1209C51.2037 413.84 51.2348 411.68 51.2037 409.52C51.1623 406.928 51.0795 404.406 50.9553 401.854C50.8208 399.312 50.5828 396.791 50.2516 394.289C49.5892 389.276 48.5439 384.343 46.7017 379.721C45.8117 377.4 44.7353 375.16 43.452 373.04C42.1687 370.92 40.6473 368.941 38.9914 367.062C37.3458 365.174 35.4933 363.425 33.5476 361.768C32.5747 360.934 31.5708 360.13 30.5566 359.326C29.5423 358.523 28.5074 357.739 27.4621 356.955C27.2137 356.765 26.9446 356.554 26.6755 356.332L25.8786 355.689L25.0817 355.047C24.823 354.825 24.5435 354.625 24.3055 354.383C23.3327 353.429 22.2873 352.545 21.4387 351.49C19.6068 349.491 18.0751 347.26 16.7297 344.96C15.405 342.649 14.339 340.207 13.5318 337.706C13.3248 337.083 13.1695 336.44 12.9832 335.807C12.8073 335.174 12.6727 334.541 12.5278 333.898C12.2794 332.612 12.0724 331.326 12 330.02L12.2174 330Z" fill="#061A44"/>
<path d="M57.3162 362.363C57.6081 360.733 57.9108 359.132 58.2027 357.562C58.5378 355.762 58.9487 353.963 59.5108 352.203C60.2136 349.966 61.1757 347.759 62.6352 345.831C63.1866 345.105 63.8028 344.409 64.5055 343.803C64.7001 343.624 64.8947 343.455 65.1001 343.295C65.5758 342.928 66.0839 342.59 66.6136 342.291C67.219 342.013 67.7704 341.635 68.3542 341.337C68.9704 341.019 69.6082 340.721 70.2461 340.452C71.3488 339.995 72.484 339.617 73.5759 339.14C75.0786 338.484 76.5272 337.718 77.9326 336.913C81.9543 334.587 84.3759 330.65 86.6354 326.952C92.4409 317.477 99.6842 309.594 111.868 308.291C112.333 308.232 112.809 308.192 113.295 308.162C116.16 307.983 119.793 307.645 122.279 309.166C124.982 310.837 126.052 314.068 125.998 317.587C125.922 322.498 124.333 327.866 122.528 332.42C121.025 336.187 119.025 340.472 115.922 342.888C112.571 345.483 110.841 348.226 110.095 352.68C109.62 355.583 109.295 358.397 108.819 361.21C107.101 361.598 105.068 361.886 103.468 361.986C102.603 362.045 101.857 362.045 101.371 361.986C100.441 361.856 101.5 362.592 102.971 363.656C103.803 364.252 104.776 364.958 105.587 365.674C106.398 366.39 107.068 367.125 107.284 367.791C105.036 374.9 100.906 381.58 95.6734 386.372C91.5112 390.19 86.2462 392.764 80.5597 394.087C78.7867 394.494 77.0137 394.743 75.2299 394.912C74.9921 394.932 74.7651 394.952 74.5272 394.961C72.3867 395.081 70.4083 394.922 68.592 394.504C67.7164 394.305 66.8731 394.047 66.0839 393.719C65.9109 393.659 65.7487 393.59 65.5866 393.52C65.392 393.43 65.1974 393.341 65.0136 393.252C60.7865 391.184 57.9 387.366 56.7432 382.207C55.327 375.854 56.1702 368.935 57.3162 362.363Z" fill="#163E6D"/>
<path d="M61.5591 411.185C62.3978 405.734 63.5273 400.314 64.914 394.964C64.9699 394.742 65.037 394.509 65.0929 394.287C67.8439 383.9 71.6572 373.867 76.5441 364.146C79.0938 359.099 81.8447 354.123 84.6181 349.176C88.8228 341.707 92.7144 335.004 99.5806 329.22C103.316 326.081 107.442 323.446 111.982 321.327C112.329 321.286 112.53 320.882 113 321.034C112.418 321.387 111.882 321.72 111.334 322.053C111.177 322.124 111.009 322.174 110.875 322.255C107.14 324.587 103.606 327.131 100.442 330.088C93.6202 336.448 89.2366 344.543 85.3003 352.548C81.0843 361.128 76.8908 369.728 73.3123 378.551C71.1093 383.981 69.2194 389.503 67.6874 395.085C65.7975 401.959 64.4331 408.944 63.6503 416H61C61.2684 413.587 61.492 411.629 61.5591 411.185Z" fill="#0A2056"/>
<path d="M103.723 362.13C105.319 362.03 107.347 361.74 109.072 361.35C109.547 358.52 109.86 355.68 110.345 352.77C111.078 348.29 112.815 345.53 116.159 342.92C119.254 340.49 121.249 336.18 122.749 332.4C124.55 327.82 126.135 322.42 126.211 317.48C126.265 313.94 125.197 310.69 122.501 309.01C120.02 307.47 116.396 307.82 113.538 308C113.052 308.03 112.589 308.07 112.114 308.13C114.454 308.46 116.817 309.06 118.909 310.12C120.171 310.76 121.67 311.68 122.156 313.02C122.727 314.61 121.217 315.51 120.16 316.5C118.434 318.11 116.957 319.95 115.889 322C114.142 325.34 113.786 328.91 113.074 332.5C112.405 335.83 110.874 338.84 108.209 341.17C106.441 342.72 103.712 344.02 102.935 346.3C101.997 348.94 105.136 355.72 103.723 362.13Z" fill="#0A2056"/>
<path d="M74.849 395.3C75.0755 395.29 75.3128 395.27 75.5501 395.25C77.3297 395.08 79.0986 394.83 80.8675 394.42C86.5408 393.09 91.7935 390.5 95.9461 386.66C101.166 381.84 105.287 375.12 107.53 367.97C107.077 366.65 104.887 365.01 103.226 363.81C102.31 366.36 100.508 368.79 97.2835 370.79C85.3652 378.18 86.4977 375.57 82.6687 386.05C81.2882 389.84 78.2142 392.92 74.849 395.3Z" fill="#0A2056"/>
<path d="M103.723 362.13C105.319 362.03 107.347 361.74 109.072 361.35C109.547 358.52 109.86 355.68 110.345 352.77C111.078 348.29 112.815 345.53 116.159 342.92C119.254 340.49 121.249 336.18 122.749 332.4C124.55 327.82 126.135 322.42 126.211 317.48C126.265 313.94 125.197 310.69 122.501 309.01C120.02 307.47 116.396 307.82 113.538 308C113.052 308.03 112.589 308.07 112.114 308.13C114.454 308.46 116.817 309.06 118.909 310.12C120.171 310.76 121.67 311.68 122.156 313.02C122.727 314.61 121.217 315.51 120.16 316.5C118.434 318.11 116.957 319.95 115.889 322C114.142 325.34 113.786 328.91 113.074 332.5C112.405 335.83 110.874 338.84 108.209 341.17C106.441 342.72 103.712 344.02 102.935 346.3C101.997 348.94 105.136 355.72 103.723 362.13Z" fill="#0A2056"/>
<path d="M74.849 395.3C75.0755 395.29 75.3128 395.27 75.5501 395.25C77.3297 395.08 79.0986 394.83 80.8675 394.42C86.5408 393.09 91.7935 390.5 95.9461 386.66C101.166 381.84 105.287 375.12 107.53 367.97C107.077 366.65 104.887 365.01 103.226 363.81C102.31 366.36 100.508 368.79 97.2835 370.79C85.3652 378.18 86.4977 375.57 82.6687 386.05C81.2882 389.84 78.2142 392.92 74.849 395.3Z" fill="#0A2056"/>
<path d="M49.5179 448.214C49.3119 448.964 49.1493 449.724 49.0193 450.494C45.0632 450.734 41.0205 450.854 36.8368 450.854C35.2435 450.854 33.6394 450.834 32.0028 450.794C32.0028 450.864 32.0137 450.924 32.0245 450.984C37.8123 452.834 43.2965 454.384 48.6183 455.664V455.674C48.6291 456.444 48.6508 457.214 48.7158 457.975C43.47 456.704 38.0832 455.194 32.4038 453.394C33.531 460.075 35.081 465.835 36.1865 469.436C41.2373 469.416 46.1687 469.236 50.8943 468.886C51.1219 469.636 51.3713 470.376 51.6205 471.076C46.8841 471.436 41.9526 471.636 36.9018 471.676C37.1836 472.516 37.3896 473.066 37.4763 473.276C37.4871 473.306 37.4979 473.326 37.5088 473.346C38.1808 474.896 39.6981 475.887 41.3564 475.897C43.6542 475.917 48.5098 475.947 53.6039 475.977C61.4293 476.017 69.8401 476.017 70.5338 475.887C71.7043 475.657 73.0916 472.776 73.3951 472.116C73.4384 472.016 73.4926 471.916 73.5468 471.826C74.4031 470.276 75.1835 468.716 75.8663 467.146C76.2456 466.296 76.5924 465.445 76.9284 464.585C77.2644 463.715 77.5679 462.835 77.8605 461.965C78.099 461.215 78.3266 460.475 78.5434 459.725C80.0066 454.594 80.7111 449.524 80.917 444.753V444.743C80.9604 443.963 80.982 443.193 80.9929 442.433C81.0037 441.703 81.0037 440.993 80.982 440.293L80.917 438.032C80.7653 434.462 80.3751 431.162 79.8873 428.261L79.4972 426.051C78.9444 423.221 78.3375 420.871 77.8389 419.16C77.297 417.28 75.6278 416 73.7311 416H38.3434C36.6526 416 35.1243 417.01 34.4306 418.59C34.268 418.97 34.1055 419.36 33.9538 419.75C41.1614 421.861 47.8162 423.451 54.2868 424.601C54.471 425.361 54.6336 426.141 54.7528 426.941C47.9137 425.751 40.8687 424.081 33.2167 421.821C33.1842 421.911 33.1517 422.001 33.1192 422.101C40.6194 425.731 47.6428 428.731 54.5577 431.292C54.7203 431.352 54.8938 431.412 55.0563 431.472C55.0455 432.212 54.9913 432.972 54.8937 433.722C54.6553 433.642 54.4169 433.552 54.1784 433.462C47.1984 430.882 40.11 427.841 32.5339 424.181C30.5721 431.872 30.7239 440.603 31.6993 448.554C37.9423 448.684 43.8168 448.584 49.5179 448.214Z" fill="#163E6D"/>
<path d="M54.3776 424.16C54.561 424.92 54.7227 425.7 54.8414 426.5C54.8522 426.51 54.863 426.51 54.8738 426.51C60.9246 427.56 66.8029 428.09 72.6703 428.09C75.0648 428.09 77.4592 428 79.8536 427.82L79.4654 425.61C71.376 426.17 63.3837 425.73 55.0571 424.28C54.8306 424.24 54.6041 424.2 54.3776 424.16Z" fill="#0A2056"/>
<path d="M49.1357 450.05C50.883 449.95 52.6087 449.82 54.3345 449.67C63.524 448.86 72.2173 447.11 80.8783 444.31V444.3C80.9214 443.52 80.943 442.75 80.9538 441.99C72.2281 444.84 63.4916 446.62 54.2482 447.43C52.7166 447.56 51.185 447.68 49.6319 447.77C49.4269 448.52 49.2651 449.28 49.1357 450.05Z" fill="#0A2056"/>
<path d="M51.0016 468.44C51.2281 469.19 51.4762 469.93 51.7243 470.63C52.5333 470.58 53.3314 470.51 54.1187 470.44C61.6256 469.78 68.7551 468.55 75.8521 466.7C76.2296 465.85 76.5748 465 76.9091 464.14C69.4238 466.18 61.9385 467.5 54.0217 468.2C53.0294 468.29 52.0155 468.37 51.0016 468.44Z" fill="#0A2056"/>
<path d="M54.9816 433.28C63.772 436.49 72.2712 438.63 80.943 439.85L80.8783 437.59C72.282 436.37 63.8475 434.22 55.1434 431.03C55.1326 431.77 55.0787 432.53 54.9816 433.28Z" fill="#0A2056"/>
<path d="M48.7366 455.23C48.7474 456 48.769 456.77 48.8337 457.53C50.7428 457.99 52.6303 458.41 54.507 458.81C62.4561 460.48 70.1033 461.37 77.8367 461.52C78.074 460.77 78.3005 460.03 78.5162 459.28C70.621 459.18 62.8337 458.3 54.7227 456.59C52.7489 456.17 50.7536 455.72 48.7366 455.23Z" fill="#0A2056"/>
<path d="M33.41 421.38C41.0248 423.64 48.0356 425.31 54.8414 426.5C54.7228 425.7 54.561 424.92 54.3776 424.16C47.9385 423.01 41.3161 421.42 34.1435 419.31C33.8739 419.99 33.6258 420.67 33.41 421.38Z" fill="#03122B"/>
<path d="M32.7305 423.74C40.2698 427.4 47.3237 430.44 54.2698 433.02C54.5071 433.11 54.7443 433.2 54.9816 433.28C55.0787 432.53 55.1326 431.77 55.1434 431.03C54.9816 430.97 54.809 430.91 54.6473 430.85C47.7659 428.29 40.7768 425.29 33.313 421.66C33.0973 422.34 32.9031 423.03 32.7305 423.74Z" fill="#03122B"/>
<path d="M31.9001 448.11C31.9864 448.86 32.0942 449.61 32.202 450.35C33.8307 450.39 35.427 450.41 37.0125 450.41C41.1759 450.41 45.1989 450.29 49.1358 450.05C49.2652 449.28 49.427 448.52 49.6319 447.77C43.9586 448.14 38.1127 448.24 31.9001 448.11Z" fill="#03122B"/>
<path d="M32.2236 450.54C32.3423 451.35 32.4717 452.16 32.6011 452.95C38.2529 454.75 43.6134 456.26 48.8338 457.53C48.7691 456.77 48.7475 456 48.7367 455.23V455.22C43.4408 453.94 37.9832 452.39 32.2236 450.54Z" fill="#03122B"/>
<path d="M36.3654 468.99C36.635 469.87 36.8723 470.63 37.0772 471.23C42.1034 471.19 47.011 470.99 51.7244 470.63C51.4763 469.93 51.2282 469.19 51.0017 468.44C46.2991 468.79 41.3916 468.97 36.3654 468.99Z" fill="#03122B"/>
<path d="M34 419.488C40.7351 421.451 46.9536 422.93 53 424C52.2708 420.958 51.0757 418.223 49.8907 416H38.1018C36.5218 416 35.0938 416.94 34.4456 418.409C34.2937 418.763 34.1418 419.126 34 419.488Z" fill="#0A2056"/>
<path d="M55.4714 430.813C55.6419 430.876 55.8237 430.938 55.9941 431C56.0281 429.394 55.9145 427.819 55.6759 426.306C48.5073 425.073 41.1229 423.342 33.1022 421C33.0681 421.093 33.0341 421.187 33 421.29C40.8616 425.052 48.2233 428.161 55.4714 430.813Z" fill="#0A2056"/>
<path d="M51.1 471C46.5627 471.367 41.8384 471.571 37 471.612C37.27 472.469 37.4673 473.031 37.5503 473.245C37.5607 473.275 37.5711 473.296 37.5814 473.316C38.2252 474.898 39.6788 475.908 41.2674 475.918C43.4685 475.939 48.12 475.969 53 476C52.3978 474.571 51.7333 472.878 51.1 471Z" fill="#0A2056"/>
<path d="M32 453C33.1583 459.663 34.7509 465.409 35.8869 469C41.0768 468.98 46.1442 468.801 51 468.451C49.9197 465.16 49.0399 461.419 48.7615 457.569C43.3711 456.302 37.8359 454.796 32 453Z" fill="#0A2056"/>
<path d="M32 450.29C32 450.358 32.0108 450.416 32.0217 450.474C37.8038 452.263 43.2828 453.762 48.5994 455C48.5885 453.327 48.7076 451.654 49 450C45.0478 450.232 41.0089 450.348 36.8293 450.348C35.2376 450.348 33.635 450.329 32 450.29Z" fill="#0A2056"/>
<path d="M31.7317 447.947C38.2638 448.074 44.4102 447.976 50.3752 447.613C50.9196 445.657 51.736 443.751 52.8814 441.933C54.6732 439.083 55.6371 436.194 56 433.374C55.7505 433.296 55.5011 433.207 55.2516 433.119C47.9484 430.584 40.5318 427.596 32.6049 424C30.5523 431.556 30.7111 440.135 31.7317 447.947Z" fill="#0A2056"/>
<path d="M129.519 422.535C131.594 423.4 134.1 424.235 134.696 426.17C135.325 428.196 133.427 430.121 132.146 431.933C130.645 434.051 129.939 436.536 129.994 439H131.153C131.164 436.974 132.312 435.12 133.935 433.593C134.586 432.972 135.303 432.412 136.065 431.913C138.703 430.182 141.772 429.021 144.465 427.371C146.099 426.374 147.733 424.795 147.214 423.156C146.905 422.189 145.922 421.527 145.039 420.885C142.622 419.134 140.436 416.812 140.304 414.053C140.171 411.527 141.794 409.145 143.737 407.23C145.668 405.306 147.986 403.666 149.719 401.599C151.464 399.542 152.578 396.854 151.684 394.471C151.188 393.168 150.172 392.14 148.892 391.345C147.28 390.348 145.227 389.726 143.251 389.401C138.162 388.555 132.687 389.014 128.04 391.101C113.249 397.73 115.699 416.69 129.519 422.535Z" fill="#4F779E"/>
<path d="M127.657 439.01C127.99 443.633 127.876 449.131 126.284 453.41C126.096 453.911 125.93 454.423 125.795 454.944C124.619 459.134 124.858 463.62 125.795 467.692C126.409 470.367 127.314 472.866 128.323 475H144.794C146.012 475 147 474.056 147 472.915V441.085C147 439.934 146.012 439 144.794 439L127.657 439.01Z" fill="#163E6D"/>
<path d="M112.623 444.992H117.307V441.076C117.307 439.935 118.254 439 119.387 439H126.369C126.684 443.624 126.576 449.124 125.067 453.404C124.89 453.906 124.732 454.417 124.604 454.939C123.49 459.13 123.716 463.617 124.604 467.69C125.186 470.366 126.044 472.865 127 475H119.387C118.678 475 118.046 474.626 117.662 474.075C117.563 473.928 117.484 473.78 117.425 473.613C117.405 473.564 117.396 473.505 117.376 473.455C117.327 473.288 117.307 473.111 117.307 472.924V471.704H112.623C111.173 471.704 110 470.533 110 469.087V447.609C110 446.163 111.173 444.992 112.623 444.992ZM111.972 469.087C111.972 469.441 112.268 469.736 112.623 469.736H117.307V446.96H112.623C112.268 446.96 111.972 447.255 111.972 447.609V469.087Z" fill="#0A2056"/>
<path d="M400.4 709.976C401.134 711.037 404.295 711.118 407.881 710.906C410.318 710.754 412.947 710.481 415.139 710.289C420.759 709.794 422.653 710.228 427.591 708.207C432.529 706.185 447.727 695.642 448.876 691.478C449.791 688.152 445.481 684.099 441.277 679.014H441.256C438.457 677.114 436.297 674.516 434.615 671.433C434.849 671.352 435.094 671.261 435.339 671.18C435.392 671.16 435.445 671.14 435.498 671.12C435.711 671.039 435.935 670.958 436.158 670.877C435.211 668.178 434.945 665.489 434.945 663.367C434.945 660.779 435.317 659 435.317 659L430.667 660.355L419.013 663.761L414.735 665.014L411.979 665.823C413.788 668.027 415.001 670.392 416.459 672.697C417.044 673.637 417.683 674.546 418.417 675.446C419.897 677.235 421.376 679.034 422.855 680.824C425.367 683.897 423.504 687.909 422.419 691.235C421.727 693.338 420.897 696.613 418.758 697.836C416.693 699.008 413.948 699.16 411.606 699.231C400.24 699.635 399.165 708.197 400.4 709.976Z" fill="#D65B56"/>
<path d="M344.523 557.507C346.036 561.721 347.753 565.864 349.803 569.878C353.849 577.794 358.785 585.29 363.517 592.866C373.604 609.019 382.811 623.701 391.374 637.162C396.332 644.969 401.311 652.765 406.333 660.541C408.586 664.034 410.647 667.917 413.329 671.14C415.175 673.352 419.875 673.091 422 672.831C419.382 671.5 417.987 668.818 416.463 666.556C416.184 666.136 415.905 665.705 415.626 665.285C413.673 662.313 411.774 659.31 409.906 656.308C402.277 644.118 394.443 632.909 387.082 620.589C379.366 607.688 372.145 593.637 364.59 580.676C360.577 573.761 356.059 566.905 352.679 559.689C350.415 554.855 345.521 546.178 349.545 536C343.933 542.505 341.014 547.72 344.523 557.507Z" fill="#811E13"/>
<path d="M407.047 710.942C407.113 711.387 407.243 711.751 407.406 711.983C408.669 713.762 416.96 712.762 422.477 712.297C428.234 711.801 430.16 712.236 435.209 710.204C438.81 708.769 447.744 702.988 453 698.287C451.03 693.446 449.3 684.41 441.194 679.052H441.172C438.31 677.152 436.101 674.555 434.382 671.472C434.621 671.391 434.871 671.3 435.122 671.219V671.209C435.187 671.189 435.241 671.168 435.285 671.158C435.502 671.077 435.731 670.997 435.96 670.916C438.364 670.057 440.954 668.965 442.837 667.651C442.488 663.881 443.109 661 443.109 661L434.719 663.406L431.411 664.346L420.062 667.59L418.038 668.166C419.213 669.561 420.388 670.956 421.552 672.361C421.563 672.361 421.563 672.361 421.563 672.371C421.857 672.705 422.14 673.038 422.423 673.372C423.555 674.726 424.697 676.091 425.84 677.445C427.341 679.234 428.854 681.034 430.356 682.833C432.924 685.895 431.041 689.908 429.92 693.244C429.224 695.346 428.364 698.621 426.177 699.844C424.066 701.017 421.259 701.158 418.865 701.239C408.799 701.583 406.634 708.052 407.047 710.942Z" fill="#EF9292"/>
<path d="M434.749 671.494C434.804 671.474 434.859 671.454 434.914 671.435C435.135 671.355 435.366 671.276 435.597 671.197C438.032 670.356 440.654 669.287 442.56 668C442.835 670.831 443.673 674.166 445.832 677.155C450.789 684.034 458.06 689.231 456.87 693.299C456.771 693.645 455.978 694.595 455.086 695.575L454.766 695.931L454.127 696.624L453.819 696.951C453.422 697.386 453.07 697.762 452.849 698C450.855 693.259 449.104 684.41 440.896 679.165H440.874C437.977 677.304 435.741 674.76 434 671.741C434.242 671.662 434.496 671.573 434.749 671.494Z" fill="#D65B56"/>
<path d="M350.682 559.724C354.069 566.95 358.596 573.824 362.618 580.739C370.198 593.726 377.435 607.796 385.167 620.713C385.844 621.836 386.511 622.958 387.188 624.06C393.973 635.114 401.092 645.385 408.038 656.479C409.92 659.485 411.813 662.492 413.78 665.468C414.049 665.889 414.329 666.32 414.608 666.741C416.135 669.005 417.533 671.691 420.157 673.024H420.168C420.221 673.064 420.275 673.094 420.329 673.124C420.877 673.385 421.458 673.585 422.049 673.715C424.716 674.357 427.706 673.826 430.232 673.004C431.146 672.703 432.426 672.302 433.867 671.831C434.362 671.661 434.889 671.481 435.426 671.28C437.803 670.428 440.362 669.346 442.222 668.043C444.362 666.55 445.588 664.766 444.577 662.712C440.545 654.545 437.222 647.149 435.717 638.29C434.889 633.46 432.996 628.169 432.125 623.349C430.415 613.969 428.609 604.339 424.017 595.741C421.2 590.459 418.92 586.351 417.082 583.054C411.533 573.123 409.92 570.688 409.307 566.729C409.167 565.847 409.081 564.885 409.006 563.753C408.49 555.846 410.802 553.912 431.684 551.567C441.695 550.445 503.633 551.256 536.483 547.759C546.214 546.727 553.398 545.314 555.924 543.37C557.968 541.796 559.806 540.073 561.452 538.309C561.495 538.269 561.548 538.209 561.602 538.159C562.667 537.006 563.667 535.834 564.591 534.691C564.591 534.661 564.624 534.641 564.634 534.621C564.763 534.441 564.882 534.251 565 534.07C564.957 534.07 564.903 534.06 564.86 534.06C564.774 534.05 564.699 534.04 564.613 534.03C564.495 534.02 564.366 534.01 564.247 533.99C564.172 533.98 564.108 533.98 564.032 533.97C563.871 533.95 563.699 533.93 563.538 533.92C563.505 533.92 563.473 533.91 563.441 533.91C562.15 533.749 560.935 533.579 559.785 533.379C546.838 531.194 542.537 526.594 542.279 526.304C542.268 526.294 542.268 526.294 542.268 526.294C538.569 523.207 535.795 519.329 532.676 515.761C526.848 509.107 518.945 504.267 511.138 499.848C505.321 496.571 499.6 493.013 493.073 491.079C488.213 489.646 483.18 489.466 478.148 489.065C478.116 489.065 478.083 489.055 478.04 489.055C478.019 489.055 477.987 489.045 477.965 489.045C475.309 488.774 472.062 489.797 469.352 490.187C469.191 490.207 469.029 490.227 468.879 490.248C468.857 490.248 468.836 490.258 468.814 490.258C468.201 490.318 467.674 490.328 467.212 490.278L466.621 490.438C466.61 490.438 466.61 490.438 466.61 490.438L466.255 490.538L459.115 492.422C459.115 492.422 375.779 509.869 361.263 520.221C355.305 524.46 351.488 528.659 349.166 532.667C348.51 533.79 347.972 534.902 347.542 535.994V536.004C343.509 546.196 348.402 554.884 350.682 559.724Z" fill="#D15437"/>
<path d="M248.492 468H256.508C256.778 468 257 467.871 257 467.714V467.286C257 467.129 256.778 467 256.508 467H248.492C248.223 467 248 467.129 248 467.286V467.714C247.989 467.871 248.211 468 248.492 468Z" fill="#F4F4F4"/>
<path d="M239.437 468H246.563C246.802 468 247 467.871 247 467.714V467.286C247 467.129 246.802 467 246.563 467H239.437C239.198 467 239 467.129 239 467.286V467.714C239 467.871 239.198 468 239.437 468Z" fill="#F4F4F4"/>
<path d="M230.437 468H237.563C237.802 468 238 467.871 238 467.714V467.286C238 467.129 237.802 467 237.563 467H230.437C230.198 467 230 467.129 230 467.286V467.714C230 467.871 230.198 468 230.437 468Z" fill="#F4F4F4"/>
<path d="M220.492 468H228.508C228.778 468 229 467.871 229 467.714V467.286C229 467.129 228.778 467 228.508 467H220.492C220.222 467 220 467.129 220 467.286V467.714C220 467.871 220.222 468 220.492 468Z" fill="#F4F4F4"/>
<path d="M393.222 544.689C395.909 552.731 400.209 555.998 402.358 563.538C402.724 564.835 402.993 566.403 403.208 568.162C404.261 576.637 404.175 589.515 409.077 597.216C414.988 606.515 418.482 606.263 422.244 615.06C426.006 623.856 426.006 633.155 427.618 640.946C429.231 648.737 433.917 672 433.917 672C434.412 671.829 434.938 671.648 435.476 671.447C437.851 670.593 440.41 669.507 442.269 668.2C444.408 666.702 445.634 664.913 444.623 662.852C440.592 654.659 437.271 647.239 435.766 638.353C434.938 633.507 433.047 628.199 432.176 623.363C430.467 613.954 428.661 604.293 424.071 595.667C421.255 590.37 418.976 586.248 417.138 582.94C411.592 572.978 409.979 570.535 409.367 566.564C409.227 565.679 409.141 564.714 409.066 563.578C408.55 555.646 410.861 553.706 431.735 551.354C441.742 550.228 503.656 551.042 536.494 547.534C546.222 546.498 553.402 545.081 555.928 543.13C557.97 541.552 559.808 539.823 561.453 538.054C561.496 538.013 561.55 537.953 561.603 537.903C562.667 536.747 563.667 535.57 564.592 534.424C564.592 534.394 564.624 534.374 564.635 534.354C564.764 534.173 564.882 533.982 565 533.801C564.957 533.801 564.903 533.791 564.86 533.791C564.774 533.781 564.699 533.771 564.613 533.761C564.495 533.751 564.366 533.741 564.248 533.721C564.172 533.711 564.108 533.711 564.033 533.701C563.871 533.681 563.699 533.66 563.538 533.65C563.506 533.65 563.474 533.64 563.441 533.64C562.152 533.479 560.937 533.309 559.787 533.107C546.845 530.916 542.546 526.302 542.288 526.01C542.277 526 542.277 526 542.277 526C542.277 526 535.376 538.104 513.341 535.741C491.306 533.379 481.331 528.815 469.389 533.107C467.669 533.731 465.906 534.384 464.122 535.048C453.523 539.009 441.764 543.362 428.425 542.929C412.839 542.427 390.535 536.646 393.222 544.689Z" fill="#811E13"/>
<path d="M241.249 441.768C241.896 440.245 249.018 432.937 254.565 431.163C260.122 429.379 274.658 428.517 274.658 428.517C274.658 428.517 348.286 425.83 354.642 424.076C359.455 422.743 363.922 418.402 367.613 415.445C373.203 410.965 378.361 406.083 383.843 401.502C389.022 397.162 395.206 394.034 400.795 390.205C403.159 388.571 405.468 386.887 407.713 385.143C408.209 384.762 408.695 384.381 409.18 384C409.007 384.261 408.824 384.531 408.641 384.792C408.608 384.842 409.364 385.133 409.396 385.183C409.72 385.774 409.936 386.426 410.27 387.017C411.295 388.872 412.45 390.626 413.497 392.48C414.241 393.793 414.899 395.097 415.676 396.4C416.55 397.863 417.662 399.297 418.558 400.75C419.853 402.885 420.63 405.211 421.784 406.925C421.849 407.035 421.924 407.145 422 407.256C421.676 407.376 421.353 407.506 421.029 407.627C420.921 407.667 420.813 407.717 420.705 407.757C420.576 407.807 420.446 407.857 420.317 407.917C417.651 408.97 415.094 410.133 413.14 411.546C412.72 411.857 412.32 412.178 411.964 412.508C410.864 413.531 408.069 413.992 406.892 414.904C403.817 417.28 399.306 418.212 395.713 419.696C395.616 419.736 395.529 419.776 395.432 419.806C391.591 421.39 387.738 422.983 383.907 424.597C377.282 427.374 370.58 430.131 363.911 432.947C363.48 433.128 363.048 433.308 362.616 433.489C353.703 437.268 344.811 441.157 336.135 445.357C335.714 445.558 335.304 445.768 334.894 445.969C330.837 447.943 326.833 449.998 322.894 452.143C322.193 452.514 321.502 452.895 320.812 453.276C320.553 453.226 320.283 453.186 320.024 453.136C318.017 452.775 316.031 452.414 314.035 452.013C304.83 450.239 295.711 448.094 286.809 445.327C286.712 445.297 286.604 445.257 286.507 445.217C286.41 445.187 286.302 445.147 286.205 445.096C285.158 444.675 284.122 444.034 282.967 443.543L275.813 439.714C275.154 439.363 274.345 439.363 273.676 439.714C273.277 439.924 272.877 440.135 272.478 440.365C272.424 440.395 272.37 440.425 272.316 440.455C270.784 441.337 269.316 442.32 267.924 443.402C267.191 443.964 266.446 444.535 265.745 445.126C264.957 445.788 264.18 446.52 263.187 446.921C263.036 446.981 262.874 447.041 262.712 447.081C261.201 447.482 259.755 446.821 258.45 446.189C257.338 445.658 256.205 445.076 255.04 444.585C254.759 444.465 254.457 444.335 254.133 444.214C253.238 443.863 252.266 443.553 251.349 443.543C248.403 443.523 245.867 445.958 245.09 448.465C244.831 449.307 244.777 450.199 244.961 451.061C246.385 457.647 242.371 461.666 241.853 459.331C241.367 457.135 240.601 443.282 241.249 441.768Z" fill="#EF9292"/>
<path d="M448.631 427.166C454.197 426.257 477.041 414.305 493.524 402.512C497.06 399.986 500.315 397.499 503.055 395.173C518.572 382.042 520.893 386.865 520.893 386.865L519.292 400.135C519.044 412.867 521.355 425.648 523.429 438.189C524.234 443.062 525.083 447.935 525.793 452.828C526.469 457.471 526.598 461.884 526.598 466.568C526.598 471.251 528.221 475.434 530.456 479.578C533.83 485.829 538.074 491.641 541.857 497.682C543.103 499.679 544.317 501.696 545.435 503.763C546.918 506.529 547.67 509.085 547.906 511.421C548.863 520.498 542.179 526 542.179 526C538.472 522.925 535.71 519.05 532.594 515.506C526.76 508.875 518.873 504.062 511.071 499.649C505.538 496.523 500.058 493.158 493.9 491.181C490.451 490.073 486.83 489.514 483.198 489.214C479.813 488.935 476.396 489.005 473.022 489.414C471.636 489.584 470.272 489.813 468.907 490.093C467.886 490.303 466.199 491.042 465.221 490.353C463.878 489.404 463.545 487.567 463.04 486.169C460.515 479.149 457.957 472.189 456.324 464.93C455.293 460.337 454.53 455.684 454.003 450.961C453.52 446.567 453.036 442.164 452.553 437.77C452.542 437.71 452.52 437.65 452.51 437.6L451.704 438.09L449.608 439.358C447.105 436.312 444.913 433.317 443 430.411C444.848 429.173 446.428 427.515 448.631 427.166Z" fill="#EAC8C7"/>
<path d="M407 384.282C407 384.282 407.087 384.443 407.251 384.745C408.144 386.354 411.251 391.966 414.629 397.637C415.327 398.814 416.046 400.001 416.744 401.147L416.766 401.187L416.896 401.399C418.139 403.42 419.349 405.321 420.439 406.92C420.439 406.93 420.439 406.93 420.439 406.93C420.46 406.95 420.482 406.98 420.493 407C420.831 406.869 421.147 406.739 421.452 406.598C421.463 406.598 421.463 406.598 421.463 406.598C422.15 406.286 422.749 405.944 423.24 405.552C424.602 404.466 425.823 403.309 426.935 402.123C426.978 402.092 427.022 402.052 427.054 402.012C428.319 400.685 429.463 399.297 430.575 397.899C430.629 397.829 430.695 397.748 430.749 397.678L430.76 397.658C432.929 394.902 434.935 392.086 437.322 389.431L437.332 389.411L438.64 387.762C438.651 387.752 438.662 387.742 438.662 387.742L443 382.301C442.847 381.155 442.706 379.998 442.575 378.852C442.499 378.259 442.433 377.665 442.368 377.072C442.281 376.237 442.193 375.413 442.106 374.578C442.008 373.693 441.921 372.818 441.845 371.933C441.736 370.777 441.627 369.63 441.539 368.474C441.093 362.993 441.681 357.542 442.401 352.082C442.433 351.871 442.455 351.649 442.488 351.418C442.488 351.358 442.499 351.307 442.499 351.267C442.52 351.076 442.531 350.975 442.542 350.905C442.553 350.714 442.542 350.714 442.619 350.181C442.629 350.121 442.629 350.06 442.64 350C436.918 354.727 428.264 361.655 420.45 369.097C415.49 373.824 410.869 378.761 407.556 383.468C407.556 383.468 407.556 383.468 407.545 383.478C407.36 383.749 407.174 384.011 407 384.282Z" fill="#EAC8C7"/>
<path d="M166.764 386.199L168.93 385.268C170.462 384.608 172.278 385.208 173 386.609L214.531 467.206H311.937C313.632 467.206 315 468.457 315 470.008V472.199C315 473.749 313.632 475 311.937 475H211.041C210.953 475 210.866 474.98 210.778 474.98C210.702 474.97 210.625 474.97 210.549 474.96C210.374 474.93 210.209 474.89 210.045 474.84C210.034 474.84 210.023 474.84 210.023 474.83C209.148 474.55 208.459 473.919 208.153 473.119L165.287 389.931C164.576 388.52 165.232 386.859 166.764 386.199Z" fill="#B7C6E5"/>
<path d="M472 317.904C472 317.904 473.055 318.985 475.383 319.405C482.464 320.656 497.083 324.759 503.62 335.918C512.31 350.749 526.886 350.739 534.619 360.437C542.353 370.134 532.302 381.443 536.523 395.464C540.743 409.484 549.499 432.472 555.83 464.306C560.702 488.815 568.36 503.887 565.88 518.568C565.88 518.568 565.869 518.678 565.836 518.888C565.608 520.45 564.488 527.475 561.888 531.688C561.518 532.299 561.116 532.839 560.681 533.309C561.312 533.42 561.91 533.51 562.475 533.59C564.52 533.88 565.956 534 565.956 534C569.687 530.237 571.677 520.42 572.352 516.266C572.406 515.946 572.461 515.666 572.493 515.416C572.515 515.316 572.526 515.206 572.548 515.095C572.613 514.625 572.656 514.345 572.656 514.345L572.645 514.355C573.135 510.542 573.037 506.619 572.83 502.806C572.765 501.405 572.656 499.994 572.515 498.603C571.808 491.317 570.34 484.122 568.784 476.946C563.976 454.539 557.222 432.932 556.939 409.925C556.83 400.387 557.298 390.87 557.842 381.353C558.364 372.186 553.317 363.979 547.128 357.154C541.048 350.439 535.261 343.313 528.811 336.888C516.009 324.149 502.652 320.566 479.625 313.33C479.331 313.24 479.037 313.14 478.744 313.05C478.472 312.97 478.189 312.99 477.917 313.08C477.504 313.21 477.112 313.501 476.819 313.801L472 317.904Z" fill="#EAC8C7"/>
<path d="M279 460.562L259.52 457.133C259.52 457.133 258.228 456.833 257.359 457.133C256.49 457.433 256.479 457.433 256.479 457.433C256.479 457.433 248.172 461.368 248.053 461.93C247.934 462.482 247.412 464.646 255.187 460.918C255.187 460.918 256.588 460.44 257.587 460.496C258.586 460.553 264.211 463.166 264.211 463.166L272.04 464L279 460.562Z" fill="#D65B56"/>
<path d="M418 401.119L421.469 407C421.63 406.91 421.791 406.82 421.953 406.719C423.173 405.988 426.167 403.073 428.204 400.698L429.908 398.334C429.958 398.264 430.019 398.183 430.069 398.113L430.079 398.093L435 391C429.989 395.448 418 401.119 418 401.119Z" fill="#D3A7A7"/>
<path d="M281 474.858C281 474.858 274.513 466.561 270.291 466.052C268.449 465.825 266.428 466.391 264.682 466.854C262.301 467.477 259.973 468.27 257.687 469.11C256.142 469.676 254.597 470.29 253.105 470.96C252.068 471.422 250.978 471.79 250.025 472.385C249.549 472.687 249.242 472.961 249.104 473.47C249.062 473.612 248.956 475 249.02 475C249.02 475.009 281 474.858 281 474.858Z" fill="#EBEBF7"/>
<path d="M248.124 470.659C248.595 469.879 251.229 468.079 254.068 466.229C256.52 464.638 259.134 462.998 260.612 461.938C261.136 461.568 261.533 461.258 261.704 461.058C262.989 459.648 264.21 459.498 264.21 459.498C264.21 459.498 266.781 459.388 270.454 459.308C278.155 459.128 290.696 459.038 294.798 460.198C299.061 461.398 307.886 458.148 312.748 456.097C314.804 455.237 316.154 454.597 316.154 454.597C317.021 454.097 317.9 453.607 318.767 453.117C321.809 451.427 324.893 449.786 328.01 448.196L328.021 448.186C328.031 448.186 328.031 448.186 328.042 448.186C345.285 439.375 363.557 432.004 381.378 424.503C385.277 422.853 389.197 421.233 393.106 419.613C395.89 418.463 398.686 417.532 401.374 416.172C403.998 414.832 406.558 413.372 409.16 411.992C411.077 410.972 413.016 409.992 415.019 409.131C416.721 408.401 418.499 407.681 420.138 406.801C420.309 406.711 420.481 406.621 420.652 406.521C421.948 405.791 425.129 402.881 427.292 400.51C428.203 399.51 428.942 398.61 429.274 398C429.306 398.35 429.466 400.06 430.045 402.791C430.58 405.221 431.908 408.081 433.301 411.902C433.386 412.142 433.74 412.832 433.836 413.092C434.586 415.082 436.096 416.812 437.178 419.093C438.838 422.593 441.408 425.613 444 429.584C444 429.584 422.869 445.286 412.545 445.286C402.22 445.286 390.589 443.206 378.272 448.786C365.956 454.367 363.685 455.037 363.685 455.037C363.685 455.037 354.582 459.768 340.123 459.768C325.664 459.778 314.815 462.088 304.641 466.249C294.466 470.419 270.668 468.309 270.668 468.309C270.647 468.299 270.615 468.279 270.593 468.269C270.583 468.259 270.572 468.259 270.572 468.259C269.308 467.599 267.916 467.129 266.266 467.029C264.017 466.889 258.555 470.469 255.728 471.369C254.517 471.749 252.782 471.989 251.251 471.999C249.195 472.019 247.524 471.629 248.124 470.659Z" fill="#EF9292"/>
<path d="M406.414 250.29C406.414 250.29 416.041 256.655 416.604 262.367C417.167 268.08 421.932 272.651 422.289 275.918C422.647 279.185 428.462 284.738 428.462 287.755C428.462 290.771 430.887 302.127 425.44 308.852C419.993 315.587 402.83 323.786 399.072 324.337C395.303 324.888 393.506 325.931 392.196 323.204C390.896 320.478 383.218 300.243 380.045 294.941C376.873 289.639 371.144 287.354 372.108 283.104C373.082 278.855 385.514 246.622 406.414 250.29Z" fill="#EF9292"/>
<path d="M430.802 397.795C430.856 397.725 430.92 397.645 430.984 397.555C431.773 396.486 432.562 395.417 433.351 394.348C435.079 392.001 436.881 389.703 438.716 387.426C439.452 386.507 440.145 385.528 440.913 384.629C441.617 383.81 442.47 383.06 442.769 382.022C443.195 380.533 442.502 378.625 442.342 377.107C442.257 376.278 442.171 375.459 442.086 374.629C441.99 373.75 441.905 372.881 441.83 372.002C441.723 370.853 441.627 369.715 441.531 368.566C441.094 363.122 441.67 357.708 442.374 352.283C442.406 352.074 442.427 351.854 442.459 351.624C442.459 351.564 442.47 351.514 442.47 351.474C442.491 351.354 442.502 351.234 442.513 351.115C442.534 350.885 442.566 350.645 442.587 350.395C442.598 350.335 442.598 350.275 442.609 350.216C442.662 349.726 442.715 349.217 442.79 348.697C443.003 347.069 443.334 345.371 443.942 343.922C444.326 342.983 444.838 342.144 445.531 341.505L463.416 326.001L472.641 318C472.641 318 474.07 318.13 476.353 318.539C476.566 318.579 476.79 318.619 477.025 318.669C484.213 320.038 498.323 324.034 504.53 334.832C513.051 349.636 527.523 349.646 535.117 359.336C542.7 369.015 533.73 381.073 537.868 395.068C542.006 409.063 551.669 432.088 557.876 463.854C562.654 488.318 567.816 503.631 565.374 518.286C565.374 518.286 565.31 519.245 565.278 519.454C565.054 521.013 565.31 527.915 562.75 532.121C562.387 532.72 560.02 532.54 559.593 533C554.815 532.451 551.253 531.492 547.062 529.214C547.04 529.204 547.03 529.204 547.019 529.194C546.88 529.114 546.742 529.034 546.592 528.954C544.961 528.125 543.468 527.166 542.337 526.057C542.284 526.007 542.252 525.968 542.23 525.928C542.508 525.598 547.264 519.794 546.347 510.974C546.113 508.636 545.206 507.128 543.724 504.361C536.482 490.805 522.532 475.561 524.26 465.332C525.689 456.792 518.021 421.689 518.437 399.842L519.365 388.994C519.365 388.994 520.218 383.59 503.911 395.607C501.021 397.735 497.96 400.572 494.441 403.099C484.927 409.972 474.497 415.715 463.917 421.02C457.401 424.286 450.746 427.932 443.803 430.33C441.222 426.364 439.153 422.568 437.5 419.072C436.423 416.794 435.527 414.647 434.78 412.659C434.684 412.399 434.588 412.149 434.503 411.91C433.085 408.014 431.826 405.247 430.877 403.379C430.536 402.709 430.237 402.16 429.981 401.71C429.352 400.622 429 400.152 429 400.152L430.802 397.795Z" fill="#EFEFEF"/>
<path d="M270 468.083C271.317 468.764 272.493 469.632 273.68 470.491C275.509 471.823 277.348 473.146 279.711 473.738C283.641 474.715 287.832 472.682 291.86 472.129C313.035 469.237 334.187 466.276 355.329 463.315C361.175 462.506 367.021 461.687 372.856 460.858C376.547 460.354 380.237 459.831 383.917 459.318C385.43 459.111 386.933 458.893 388.446 458.676C392.768 458.074 397.079 457.472 401.39 456.86C409.152 455.764 417.208 455.804 424.698 453.435C431.197 451.382 437.25 448.164 442.944 444.69C445.415 443.18 448.137 441.541 451 439.834L444.305 431C444.305 431 424.045 444.374 413.55 444.374C403.056 444.374 390.536 442.736 378.016 448.243C365.497 453.751 365.497 453.751 365.497 453.751C365.497 453.751 355.699 458.429 341.002 458.429C326.305 458.439 314.33 461.321 303.988 465.427C293.646 469.543 270 468.083 270 468.083Z" fill="#D65B56"/>
<path d="M259.909 439.723C260.703 439.199 261.541 438.735 262.422 438.339L262.444 438.32H262.455C267.917 435.84 274.836 435.721 281.038 436.679C289.296 437.964 297.347 440.76 305.714 440.612C314.777 440.464 323.427 437.154 332.424 436.294C341.118 435.464 350.05 435.434 358.395 432.786C368.024 429.733 375.597 423.044 383.767 417.501C393.56 410.861 404.538 405.733 416.016 401.929L416.005 401.919L417.017 401.583L418.257 401L422 406.8L420.401 407.887C420.161 408.085 419.857 408.282 419.519 408.49C417.735 409.537 414.863 410.604 413.786 411.128C413.622 411.207 413.47 411.286 413.307 411.355C408.868 413.549 404.363 415.614 399.826 417.61C398.369 418.252 396.911 418.884 395.453 419.497C384.953 423.993 374.269 428.142 363.672 432.45C363.237 432.628 362.802 432.806 362.366 432.984C353.347 436.66 344.393 440.464 335.667 444.683C335.242 444.88 334.829 445.088 334.415 445.286C331.467 446.728 328.551 448.21 325.668 449.762C324.58 450.345 323.481 450.947 322.317 451.372C321.642 451.619 320.957 451.817 320.239 451.916C318.509 452.153 316.757 451.846 315.038 451.54C314.483 451.441 313.939 451.342 313.384 451.244C304.093 449.594 294.344 447.924 285.629 444.544C285.531 444.515 285.423 444.475 285.325 444.426C283.725 443.803 282.169 443.122 280.657 442.371C277.654 440.889 274.978 438.903 271.67 439.703C271.605 439.723 271.54 439.742 271.485 439.762C271.42 439.782 271.366 439.802 271.3 439.821L271.322 439.851C269.777 440.721 268.297 441.689 266.894 442.756C266.154 443.309 265.403 443.873 264.696 444.456C263.902 445.108 263.118 445.829 262.118 446.224C261.965 446.284 261.802 446.343 261.639 446.382C260.116 446.778 258.658 446.125 257.341 445.503C256.22 444.979 255.078 444.406 253.903 443.922C253.62 443.803 253.316 443.675 253 443.556L259.909 439.723Z" fill="#D65B56"/>
<path d="M428.146 273.155C429.701 272.798 431.396 273.066 432.684 273.868C434.368 274.927 435.58 277.512 436.664 279.145C438.67 282.165 440.751 284.443 440.161 288.146C439.518 292.156 443.412 295.057 447.735 296.423C448.551 296.671 449.624 296.909 450.804 297.087C450.804 297.087 451.405 298.176 452.992 299.325C457.606 302.651 468.709 313.088 478 313.088C477.592 313.216 476.766 313.583 476.477 313.88L471.735 317.929C471.424 318.187 469.374 317.662 469.01 317.603C466.993 317.256 464.987 316.692 463.152 315.83C461.081 314.85 459.547 313.068 457.552 311.959C449.935 307.741 441.063 304.939 438.102 296.483C435.419 288.809 430.366 282.225 426 273.67C426.601 273.333 427.47 273.303 428.146 273.155Z" fill="#D65B56"/>
<path d="M423.399 278.9C423.42 278.97 423.517 279.221 423.539 279.291C424.271 281.164 425.521 282.446 426.835 283.878C428.332 285.501 428.526 287.254 429.108 289.288C430.637 294.687 431.747 300.256 431.671 305.846C431.661 306.296 431.693 306.737 431.736 307.178C431.747 307.318 431.768 307.448 431.79 307.588C431.79 307.659 431.79 307.719 431.811 307.789C431.994 309.442 432.21 311.024 431.219 312.437C430.982 312.787 429.722 316.423 430.131 318.156C430.249 318.677 430.519 319.018 430.993 319.068C430.993 319.068 434.17 320.35 437.585 323.015C438.274 323.545 438.985 324.136 439.675 324.788C440.202 325.288 440.655 326.04 441.032 326.961C441.355 327.763 441.624 328.684 441.861 329.696C441.894 329.846 441.926 329.996 441.958 330.147C442.906 334.624 443.025 340.514 443.014 344C443.402 343.058 443.919 342.217 444.619 341.576L462.683 326.03L472 318.006C468.984 317.605 465.817 316.684 463.221 315.201C461.11 313.999 459.376 312.306 457.221 311.124C455.067 309.942 452.805 308.971 450.575 307.939C446.945 306.256 443.305 303.872 441.29 300.496C437.219 293.675 431.628 279.501 426.318 273.521C426.318 273.511 426.318 273.511 426.318 273.511C426.307 273.501 426.296 273.481 426.275 273.461C426.242 273.421 426.21 273.391 426.178 273.361C426.167 273.361 426.167 273.351 426.156 273.341C426.156 273.331 426.156 273.311 426.146 273.3L425.962 273C424.368 273.881 422.979 275.755 423 277.648C423.011 278.089 423.28 278.529 423.399 278.9Z" fill="#EF9292"/>
<path d="M394.729 231.241C392.276 229.322 389.529 227.605 388.292 224.576C386.913 221.183 390.626 214.669 395.196 210.579C399.756 206.469 405.477 211.144 409.863 215.911C412.61 218.9 413.088 220.375 411.351 223.505C410.189 225.596 408.007 228.827 407.269 231.816C407.334 231.796 407.388 231.756 407.453 231.736C408.593 231.291 409.863 231.079 411.068 231.19C412.274 231.332 413.424 231.726 414.249 232.463C412.013 232.19 410.135 232.816 408.658 233.816C408.463 233.937 408.289 234.068 408.116 234.21C407.942 234.351 407.757 234.472 407.594 234.634C407.464 234.755 407.334 234.876 407.193 234.998C407.236 235.169 407.29 235.341 407.366 235.513C407.508 235.866 407.692 236.199 407.953 236.522C409.299 238.209 413.424 239.118 415.313 239.209C417.474 239.31 420.101 239.128 422.142 239.936C424.259 240.774 425.377 242.642 426.854 244.177C428.775 246.187 431.348 247.53 433.498 249.328C436.646 251.953 438.601 255.437 439.426 259.275C440.316 263.476 439.219 268.02 440.87 272.08C440.902 272.171 440.946 272.272 440.989 272.363C441.76 274.12 443.063 275.624 444.127 277.25C446.504 280.856 445.766 284.986 446.938 288.935C447.503 290.833 449.794 293.014 451.238 294.438C453.181 296.357 457.502 298.124 459 297.7C457.48 298.205 453.604 298.023 450.412 297.518C449.229 297.337 448.143 297.094 447.318 296.842C442.932 295.448 439.002 292.489 439.654 288.399C440.251 284.622 438.145 282.3 436.114 279.22C435.018 277.553 433.802 274.928 432.087 273.837C430.784 273.019 429.101 272.857 427.516 273.221C426.832 273.383 426.159 273.625 425.54 273.948C425.529 273.938 425.519 273.918 425.508 273.898C425.453 273.817 425.16 273.322 425.095 273.231C424.053 271.736 422.49 270.787 421.469 269.242C418.972 265.475 418.223 261.032 417.268 256.76C416.464 253.165 414.499 250.206 411.155 248.287C408.17 246.571 404.728 245.813 401.439 244.773C397.943 243.672 394.697 242.016 391.277 240.734C391.885 240.239 392.591 239.835 393.438 239.572C394.871 239.108 396.988 238.663 397.997 237.381C397.281 237.25 396.564 237.078 395.891 236.835C393.72 236.028 391.776 234.684 390.604 232.877C392.667 233.715 394.621 234.25 396.575 234.533C397.14 234.604 397.693 234.654 398.236 234.674C397.52 233.261 395.761 232.039 394.729 231.241Z" fill="#0F0833"/>
<path d="M423.399 278.9C423.42 278.97 423.517 279.221 423.539 279.291C424.271 281.164 425.521 282.446 426.835 283.878C428.332 285.501 428.526 287.254 429.108 289.288C430.637 294.687 431.747 300.256 431.671 305.846C431.661 306.296 431.693 306.737 431.736 307.178C431.747 307.318 431.768 307.448 431.79 307.588C431.79 307.659 431.79 307.719 431.811 307.789C431.994 309.442 432.21 311.024 431.219 312.437C430.982 312.787 429.722 316.423 430.131 318.156C430.249 318.677 430.519 319.018 430.993 319.068C430.993 319.068 434.17 320.35 437.585 323.015C438.274 323.545 438.985 324.136 439.675 324.788C440.202 325.288 440.655 326.04 441.032 326.961C441.355 327.763 441.624 328.684 441.861 329.696C441.894 329.846 441.926 329.996 441.958 330.147C442.906 334.624 443.025 340.514 443.014 344C443.402 343.058 443.919 342.217 444.619 341.576L462.683 326.03L472 318.006C468.984 317.605 465.817 316.684 463.221 315.201C461.11 313.999 459.376 312.306 457.221 311.124C455.067 309.942 452.805 308.971 450.575 307.939C446.945 306.256 443.305 303.872 441.29 300.496C437.219 293.675 431.628 279.501 426.318 273.521C426.318 273.511 426.318 273.511 426.318 273.511C426.307 273.501 426.296 273.481 426.275 273.461C426.242 273.421 426.21 273.391 426.178 273.361C426.167 273.361 426.167 273.351 426.156 273.341C426.156 273.331 426.156 273.311 426.146 273.3L425.962 273C424.368 273.881 422.979 275.755 423 277.648C423.011 278.089 423.28 278.529 423.399 278.9Z" fill="#EF9292"/>
<path d="M399 333.56C399.151 333.776 399.303 333.982 399.454 334.178C401.539 336.975 404.122 339.439 407.417 341.077C408.022 341.382 408.53 341.686 408.963 342C409.297 341.833 409.632 341.647 409.957 341.45C412.734 339.792 415.294 337.407 416.786 335.336C417.002 335.052 417.185 334.767 417.347 334.492C421.972 326.778 426.305 326.111 430.271 321.469C430.476 321.243 430.66 321.018 430.843 320.792C431.265 320.291 431.664 319.801 432.043 319.3C432.464 318.152 432.821 316.729 433.123 315.168C433.188 314.854 433.242 314.54 433.296 314.216C433.329 314.04 433.361 313.863 433.383 313.686C433.404 313.598 433.415 313.51 433.426 313.421C433.458 313.215 433.491 313.009 433.523 312.803C433.642 311.979 433.739 311.125 433.815 310.261C433.847 309.849 433.88 309.447 433.901 309.035C434.009 307.317 434.031 305.61 433.955 304C433.955 304.01 433.955 304.02 433.944 304.029C433.944 304.049 433.934 304.079 433.934 304.098C433.923 304.167 433.912 304.226 433.89 304.294C433.728 304.844 433.35 306.12 432.788 307.651C432.767 307.739 432.723 307.827 432.702 307.916C431.502 311.076 429.525 315.109 426.975 315.855C422.664 317.121 415.478 324.364 411.804 329.978C410.897 331.352 409.989 331.401 405.818 332.333C403.765 332.794 401.442 333.197 399 333.56Z" fill="#0F0833"/>
<path d="M370.553 279.316C371.658 281.285 372.763 282.558 374.033 283.751C374.186 283.612 374.328 283.473 374.448 283.313C374.514 283.244 374.569 283.184 374.612 283.115C374.711 283.005 374.787 282.896 374.875 282.786C375.411 282.07 375.86 281.265 376.243 280.43C376.658 279.525 376.987 278.59 377.26 277.745C377.359 277.426 377.468 277.128 377.599 276.83C377.665 276.68 377.731 276.531 377.807 276.382C377.873 276.233 377.96 276.094 378.037 275.945C378.124 275.776 378.212 275.616 378.31 275.457C378.409 275.298 378.507 275.139 378.617 274.99C378.704 274.871 378.781 274.751 378.868 274.642C378.89 274.602 378.923 274.572 378.945 274.532C379.054 274.383 379.175 274.234 379.295 274.085C379.7 273.608 380.138 273.15 380.619 272.723C380.772 272.583 380.914 272.454 381.078 272.345C381.549 271.947 382.041 271.589 382.566 271.261C385.51 269.411 388.858 270.067 391.998 268.626C393.781 267.79 394.766 265.881 395.958 264.389C397.676 262.211 405.214 257.378 407.796 259.705C409.788 261.495 409.087 266.139 408.912 268.705C408.901 268.864 408.89 269.013 408.88 269.172C408.584 275.766 414.853 272.733 418.398 274.085C421.407 275.249 420.543 279.415 421.33 281.752C421.396 281.941 421.462 282.12 421.549 282.309C421.571 282.369 421.604 282.428 421.626 282.488C422.95 285.64 425.663 288.027 426.341 291.498C426.374 291.677 426.407 291.846 426.429 292.025C426.91 294.869 426.604 297.196 425.761 299.244C425.761 299.254 425.75 299.254 425.75 299.264C424.372 302.615 421.615 305.181 418.606 307.787C417.02 309.159 415.368 310.541 413.792 312.043C413.77 312.073 413.748 312.092 413.715 312.122C410.433 315.285 406.866 317.194 402.381 318.487C402.085 318.576 401.779 318.656 401.472 318.745C401.363 318.775 401.243 318.795 401.122 318.835C400.422 319.014 399.678 319.193 398.879 319.362C398.814 319.382 398.737 319.402 398.672 319.412C398.004 319.561 397.293 319.7 396.549 319.839C396.057 319.939 395.553 320.028 395.028 320.128C394.963 320.147 394.897 320.147 394.842 320.167C394.722 320.197 394.602 320.237 394.492 320.287C393.704 320.555 393.015 321.092 392.424 321.739C393.103 323.18 393.781 324.612 394.437 326.015C395.608 328.511 396.943 331.037 398.606 333.373C398.759 333.592 398.912 333.801 399.065 334C401.494 333.702 403.759 333.155 405.772 332.707C408.694 332.051 412.118 331.106 414.328 329.167C416.549 327.208 418.234 324.762 420.116 322.544C421.768 320.595 423.529 318.447 425.893 317.164C426.133 317.025 426.385 316.916 426.637 316.806C428.453 316.011 429.514 315.155 430.477 313.544C431.298 312.162 431.899 310.67 432.414 309.179C432.578 308.701 432.742 308.214 432.895 307.727C432.906 307.687 432.928 307.637 432.939 307.588C433.333 306.315 433.672 305.022 433.934 303.719C433.956 303.65 433.967 303.59 433.978 303.52C433.978 303.501 433.989 303.471 433.989 303.451C434 303.441 434 303.431 434 303.421C433.923 301.939 433.759 300.547 433.497 299.324C433.453 299.125 433.398 298.946 433.354 298.757C433.278 298.489 433.223 298.23 433.179 297.961C433.081 297.484 433.004 297.007 432.95 296.53C432.928 296.37 432.906 296.211 432.895 296.052C432.435 291.657 433.092 287.341 429.284 283.84C429.23 283.781 429.164 283.731 429.098 283.671C429.087 283.661 429.066 283.642 429.055 283.622C427.468 282.249 425.466 281.165 424.755 279.316C424.733 279.246 424.711 279.177 424.689 279.107C424.569 278.739 424.503 278.341 424.492 277.904C424.47 276.054 425.663 274.602 427.249 273.737C427.26 273.727 427.282 273.717 427.293 273.717V273.707C427.304 273.707 427.304 273.697 427.315 273.697C427.304 273.687 427.293 273.667 427.271 273.647C427.206 273.568 427.151 273.488 427.107 273.399C426.965 273.19 426.834 272.981 426.691 272.772C426.484 272.484 426.276 272.206 426.046 271.927C425.882 271.748 425.729 271.569 425.575 271.38C425.422 271.201 425.269 271.022 425.116 270.843C424.974 270.654 424.831 270.475 424.7 270.286C423.858 269.083 423.103 267.82 422.457 266.517C421.177 263.912 420.313 261.108 420.182 258.254C419.788 250.069 410.367 243.496 404.131 243.496C401.385 243.496 396.976 242.551 392.763 241C391.494 241.984 390.63 243.337 389.656 244.759C387.851 247.404 385.116 248.896 382.063 249.87C376.855 251.541 372.621 252.456 369.175 256.623C369.076 256.742 368.978 256.861 368.879 256.991C368.573 257.786 368.288 258.592 368.015 259.397C365.892 265.702 367.271 273.498 370.553 279.316Z" fill="#1E1356"/>
<path d="M393 334.095C394.052 335.446 395.194 336.722 396.29 338.063C397.252 339.255 399.457 342.526 400.791 343.296C403.098 344.605 406.117 343.961 409 342.41C408.548 342.072 408.016 341.745 407.383 341.418C403.934 339.656 401.232 337.007 399.049 334C397.116 334.243 395.081 334.338 393 334.095Z" fill="#3333BC"/>
<path d="M390.723 324.62C390.809 324.465 390.885 324.299 390.982 324.144C391.371 323.408 391.868 322.642 392.441 322C393.111 323.502 393.781 324.993 394.429 326.453C395.585 329.052 396.904 331.682 398.546 334.116C398.697 334.344 398.849 334.561 399 334.768C397.152 335.006 395.207 335.099 393.219 334.861C392.711 334.199 392.214 333.525 391.771 332.811C390.139 330.264 389.307 327.426 390.723 324.62Z" fill="#514ED8"/>
<path d="M356.002 280.287C356.013 280.53 356.101 280.793 356.167 280.995C356.31 281.409 356.53 281.794 356.806 282.147C357.367 282.876 358.126 283.472 358.941 283.968C359.48 284.291 360.053 284.574 360.647 284.797C363.124 285.747 366.008 287.264 368.76 286.961C369.355 286.9 369.927 286.758 370.499 286.546C370.521 286.536 370.543 286.526 370.566 286.516C371.567 286.071 372.492 285.424 373.34 284.787C373.483 284.685 373.615 284.574 373.747 284.453L373.945 284.271C373.967 284.251 373.989 284.23 374 284.21C372.723 282.997 371.611 281.703 370.499 279.7C367.197 273.785 365.81 265.858 367.946 259.447C368.221 258.628 368.507 257.809 368.815 257C367.373 258.81 366.162 260.802 365.26 262.915C364.258 265.231 363.641 267.688 363.509 270.175C363.509 270.236 363.498 270.307 363.498 270.368C363.421 272.37 363.388 274.584 362.254 276.323C361.099 278.093 359.018 278.912 356.938 279.417C356.673 279.478 356.365 279.539 356.178 279.741C356.024 279.872 355.991 280.075 356.002 280.287Z" fill="#514ED8"/>
<path d="M371 286.295C371.011 286.334 371.032 286.374 371.053 286.414C371.861 288.142 373.647 291.629 375.528 293.506C378.091 296.049 376.169 303.141 376.221 306.607C376.305 312.061 380.56 308.058 383.785 311.633C386.411 314.544 389.51 321.497 390.582 324C390.96 323.295 391.443 322.56 392 321.944C389.479 316.342 386.999 310.491 385.812 304.67C384.856 299.952 384.972 295.224 381.621 291.261C378.438 287.496 376.2 285.838 374.341 284C374.33 284.02 374.309 284.04 374.288 284.06L374.099 284.238C373.248 285.083 372.198 285.818 371.063 286.265C371.042 286.275 371.021 286.285 371 286.295Z" fill="#FFD8D7"/>
</svg>
