<svg xmlns="http://www.w3.org/2000/svg" xmlns:xlink="http://www.w3.org/1999/xlink" width="1920" height="400" viewBox="0 0 1920 400">
  <defs>
    <clipPath id="clip-Web_1920_1">
      <rect width="1920" height="400"/>
    </clipPath>
  </defs>
  <g id="Web_1920_1" data-name="Web 1920 – 1" clip-path="url(#clip-Web_1920_1)">
    <rect width="1920" height="400" fill="#fff"/>
    <path id="newspaper" d="M229.884,64H36.648a9.995,9.995,0,0,0-9.995,9.995v3.332H9.995A9.995,9.995,0,0,0,0,87.322V200.6a23.322,23.322,0,0,0,23.322,23.322H219.889a19.99,19.99,0,0,0,19.99-19.99V73.995A9.995,9.995,0,0,0,229.884,64ZM23.322,203.929A3.332,3.332,0,0,1,19.99,200.6V97.316h6.663V200.6A3.332,3.332,0,0,1,23.322,203.929Zm98.284-6.663H58.3a5,5,0,0,1-5-5v-3.332a5,5,0,0,1,5-5h63.3a5,5,0,0,1,5,5v3.332A5,5,0,0,1,121.605,197.266Zm86.623,0h-63.3a5,5,0,0,1-5-5v-3.332a5,5,0,0,1,5-5h63.3a5,5,0,0,1,5,5v3.332A5,5,0,0,1,208.228,197.266Zm-86.623-39.98H58.3a5,5,0,0,1-5-5v-3.332a5,5,0,0,1,5-5h63.3a5,5,0,0,1,5,5v3.332A5,5,0,0,1,121.605,157.286Zm86.623,0h-63.3a5,5,0,0,1-5-5v-3.332a5,5,0,0,1,5-5h63.3a5,5,0,0,1,5,5v3.332A5,5,0,0,1,208.228,157.286Zm0-39.98H58.3a5,5,0,0,1-5-5V95.651a5,5,0,0,1,5-5H208.228a5,5,0,0,1,5,5v16.658A5,5,0,0,1,208.228,117.306Z" transform="translate(270 35.081)" fill="#4221cb"/>
    <path id="palette" d="M60.262,1.45A75.1,75.1,0,0,0,1.542,59.963c-10.912,55.151,38.842,96.264,76.327,90.454,12.151-1.888,18.108-16.1,12.534-27.045a19.955,19.955,0,0,1,17.961-29.021H131.87a19.3,19.3,0,0,0,19.141-19.259C150.864,28.613,108.571-7.958,60.262,1.45Zm-31.941,92.9a9.438,9.438,0,1,1,9.438-9.438A9.428,9.428,0,0,1,28.322,94.352ZM37.759,56.6A9.438,9.438,0,1,1,47.2,47.164,9.428,9.428,0,0,1,37.759,56.6ZM75.51,37.726a9.438,9.438,0,1,1,9.438-9.438A9.428,9.428,0,0,1,75.51,37.726ZM113.26,56.6a9.438,9.438,0,1,1,9.438-9.438A9.428,9.428,0,0,1,113.26,56.6Z" transform="translate(808.988 106.035)" fill="#1030ff"/>
    <path id="paint-brush" d="M44.864,83.107c-10.779.693-20.56,4.8-26.111,19.424a4.1,4.1,0,0,1-3.92,2.681c-2.985,0-12.213-7.434-14.843-9.228,0,22.124,10.193,41.57,34.391,41.57,20.38,0,34.388-11.759,34.388-32.29a23.278,23.278,0,0,0-.261-2.453l-23.645-19.7ZM123.009,0a16.406,16.406,0,0,0-10.8,4.419C57.29,53.477,51.575,54.629,51.575,69.069a24.872,24.872,0,0,0,2.345,10.4L71.066,93.754a24.721,24.721,0,0,0,6.015.814c16.686,0,26.358-12.216,56.73-68.9,1.983-3.855,3.734-8.019,3.734-12.356C137.546,5.545,130.561,0,123.009,0Z" transform="translate(844.01 99.081)" fill="#ffc200"/>
    <path id="database" d="M120.75,19.714V32.036c0,10.858-27.043,19.714-60.375,19.714S0,42.894,0,32.036V19.714C0,8.856,27.043,0,60.375,0S120.75,8.856,120.75,19.714Zm0,27.723V75.161c0,10.858-27.043,19.714-60.375,19.714S0,86.019,0,75.161V47.438c12.971,8.933,36.712,13.092,60.375,13.092S107.779,56.371,120.75,47.438Zm0,43.125v27.723C120.75,129.144,93.707,138,60.375,138S0,129.144,0,118.286V90.563c12.971,8.933,36.712,13.092,60.375,13.092S107.779,99.5,120.75,90.563Z" transform="translate(982 110)" fill="#450ec8"/>
    <path id="truck-pickup" d="M248.182,103.618h-6.364v-17.9c0-4.943-5.7-8.952-12.727-8.952H210L166.735,38.72C161.9,34.473,154.59,32,146.857,32H101.818c-7.028,0-12.727,4.009-12.727,8.952V76.761H25.455c-7.028,0-22.394-4.943-22.394,0l9.667,26.857H6.364c-3.516,0-6.364,2-6.364,4.476v8.952c0,2.473,2.848,4.476,6.364,4.476H26.095a22.217,22.217,0,0,0-.64,4.476C25.455,143.3,45.4,157.331,70,157.331S114.545,143.3,114.545,126a22.219,22.219,0,0,0-.64-4.476h26.739A22.218,22.218,0,0,0,140,126c0,17.306,19.942,31.333,44.545,31.333S229.095,143.3,229.095,126a22.217,22.217,0,0,0-.64-4.476h19.727c3.516,0,6.364-2,6.364-4.476v-8.952C254.545,105.621,251.7,103.618,248.182,103.618ZM114.545,49.9h32.311L177.4,76.761H114.545ZM70,139.427c-10.528,0-19.091-6.023-19.091-13.428S59.472,112.57,70,112.57,89.091,118.593,89.091,126,80.528,139.427,70,139.427Zm114.545,0c-10.528,0-19.091-6.023-19.091-13.428s8.563-13.428,19.091-13.428,19.091,6.023,19.091,13.428S195.073,139.427,184.545,139.427Z" transform="translate(1460.939 101.303)" fill="#1e0aa4"/>
    <path id="box-open" d="M62.263,62.467A7.219,7.219,0,0,1,56.2,59.281l-9.41-14.514L37.4,59.281a7.381,7.381,0,0,1-8.02,2.941L9.33,56.885V81.121a4.415,4.415,0,0,0,3.542,4.221l32.185,1.621a8.358,8.358,0,0,0,4.1,0l31.561-1.621a4.438,4.438,0,0,0,3.542-4.221V56.885L64.209,62.209A7.2,7.2,0,0,1,62.263,62.467ZM93.376,47.19l-7.537-14A2.436,2.436,0,0,0,83.4,31.982l-36.6,4.343,13.42,20.709a2.489,2.489,0,0,0,2.707.994l28.962-7.693a2.2,2.2,0,0,0,1.493-3.145Zm-85.626-14-7.537,14a2.181,2.181,0,0,0,1.478,3.132l28.962,7.693a2.489,2.489,0,0,0,2.707-.994l13.434-20.7L10.179,31.982A2.437,2.437,0,0,0,7.749,33.193Z" transform="translate(1455.042 92.037)" fill="#ffc200"/>
    <text id="Research_and_Plan_" data-name="Research and Plan
" transform="translate(236 339)" fill="#707070" font-size="38" font-family="TimesNewRomanPS-BoldMT, Times New Roman" font-weight="700"><tspan x="0" y="0">Research and Plan</tspan><tspan x="0" y="44"></tspan></text>
    <text id="Design_and_Develop_" data-name="Design and Develop
" transform="translate(795 339)" fill="#707070" font-size="38" font-family="TimesNewRomanPS-BoldMT, Times New Roman" font-weight="700"><tspan x="0" y="0">Design and Develop</tspan><tspan x="0" y="44"></tspan></text>
    <text id="Deliver_" data-name="Deliver
" transform="translate(1506 355)" fill="#707070" font-size="38" font-family="TimesNewRomanPS-BoldMT, Times New Roman" font-weight="700"><tspan x="0" y="0">Deliver</tspan><tspan x="0" y="44"></tspan></text>
    <path id="Path_6" data-name="Path 6" d="M7.773,0H247.167" transform="translate(532.833 55.5)" fill="none" stroke="#0746f3" stroke-width="8"/>
    <path id="Path_7" data-name="Path 7" d="M-5.5,0H225" transform="translate(1150 56.5)" fill="none" stroke="#0746f3" stroke-width="10"/>
    <g id="boxline" transform="translate(4 -732.104)">
      <line id="Line_3" data-name="Line 3" y2="110.226" transform="translate(235.048 896.604)" fill="none" stroke="#0746f3" stroke-width="8"/>
      <path id="Path_5" data-name="Path 5" d="M0,223V0" transform="translate(533.453 783.604)" fill="none" stroke="#0746f3" stroke-width="8"/>
      <path id="Path_4" data-name="Path 4" d="M306.5,0H0" transform="translate(231 1004.604)" fill="none" stroke="#0746f3" stroke-width="8"/>
    </g>
    <g id="boxline-2" data-name="boxline" transform="translate(540 -732.104)">
      <line id="Line_3-2" data-name="Line 3" y2="219.226" transform="translate(235.859 787.604)" fill="none" stroke="#0746f3" stroke-width="8"/>
      <path id="Path_5-2" data-name="Path 5" d="M0,222.833V0" transform="translate(602.527 783.771)" fill="none" stroke="#0746f3" stroke-width="8"/>
      <path id="Path_4-2" data-name="Path 4" d="M374.5,0H0" transform="translate(232 1004.604)" fill="none" stroke="#0746f3" stroke-width="8"/>
    </g>
    <g id="boxline-3" data-name="boxline" transform="translate(1140 -732.104)">
      <line id="Line_3-3" data-name="Line 3" y2="223.226" transform="translate(235.859 783.604)" fill="none" stroke="#0746f3" stroke-width="8"/>
      <path id="Path_5-3" data-name="Path 5" d="M0,110V0" transform="translate(602.527 896.604)" fill="none" stroke="#0746f3" stroke-width="8"/>
      <path id="Path_4-3" data-name="Path 4" d="M374.5,0H0" transform="translate(232 1004.604)" fill="none" stroke="#0746f3" stroke-width="8"/>
    </g>
    <path id="Path_8" data-name="Path 8" d="M0,0H79" transform="translate(163.5 168.5)" fill="none" stroke="#0746f3" stroke-width="8"/>
    <path id="Path_9" data-name="Path 9" d="M0,0H79" transform="translate(1739.5 168.5)" fill="none" stroke="#0746f3" stroke-width="8"/>
    <g id="Path_11" data-name="Path 11" transform="translate(1828.5 148.5) rotate(90)" fill="#fff">
      <path d="M 33.53981781005859 21.39411926269531 L 20.6934700012207 9.029509544372559 L 20 8.36205005645752 L 19.3065299987793 9.029509544372559 L 6.460183143615723 21.39411926269531 L 20 1.7613844871521 L 33.53981781005859 21.39411926269531 Z" stroke="none"/>
      <path d="M 20 3.522792816162109 L 12.92039680480957 13.78821849822998 L 18.61305999755859 8.309030532836914 L 20 6.974100112915039 L 21.38694000244141 8.309030532836914 L 27.07960319519043 13.78821849822998 L 20 3.522792816162109 M 20 0 L 40 29 L 20 9.75 L 0 29 L 20 0 Z" stroke="none" fill="#0746f3"/>
    </g>
    <g id="Path_10" data-name="Path 10" transform="translate(169.5 148.5) rotate(90)" fill="#fff">
      <path d="M 35.28776550292969 23.92864227294922 L 32.14467239379883 21.40184211730957 L 20.66234016418457 11.25080013275146 L 19.99600982666016 10.66172027587891 L 19.33320999145508 11.25475978851318 L 9.85163402557373 19.7382755279541 L 4.758923053741455 23.86094665527344 L 20 1.7613844871521 L 35.28776550292969 23.92864227294922 Z" stroke="none"/>
      <path d="M 20 3.522792816162109 L 9.566183090209961 18.65182876586914 L 18.66641044616699 10.50951957702637 L 19.99201965332031 9.323450088500977 L 21.32468032836914 10.50159072875977 L 30.26200103759766 18.40269470214844 L 20 3.522792816162109 M 20 0 L 40 29 L 31.5 22.16666030883789 L 20 12 L 10.5 20.5 L 0 29 L 20 0 Z" stroke="none" fill="#0746f3"/>
    </g>
    <text id="CREATE" transform="translate(576 165)" fill="#707070" font-size="38" font-family="TimesNewRomanPS-BoldMT, Times New Roman" font-weight="700"><tspan x="0" y="0">CREATE</tspan></text>
    <text id="TEST" transform="translate(1211 155)" fill="#707070" font-size="38" font-family="TimesNewRomanPS-BoldMT, Times New Roman" font-weight="700"><tspan x="0" y="0">TEST</tspan></text>
  </g>
</svg>
